{"glyphs":{"0":{"ha":928,"x_min":0,"x_max":0,"o":"m 463 -26 b 21 493 183 -26 21 208 b 464 1015 21 765 168 1015 b 907 494 744 1015 907 788 b 463 -26 907 194 740 -26 m 464 228 b 636 494 576 228 636 353 b 461 761 636 626 583 761 b 292 494 347 761 292 635 b 464 228 292 361 344 228 "},"1":{"ha":493,"x_min":0,"x_max":0,"o":"m 297 -8 b 165 124 221 -8 165 40 l 165 746 l 115 746 b -8 867 38 746 -8 797 b 107 989 -8 936 43 989 l 283 989 b 428 863 381 989 428 946 l 428 124 b 297 -8 428 43 375 -8 "},"2":{"ha":724,"x_min":0,"x_max":0,"o":"m 138 0 b -3 118 54 0 -3 42 b 82 263 -3 160 26 206 l 332 518 b 422 688 382 568 422 631 b 347 761 422 740 392 761 b 253 665 303 761 265 729 b 139 571 243 611 203 571 b 19 694 67 571 19 626 b 367 1015 19 863 139 1015 b 699 708 574 1015 699 889 b 499 360 699 550 599 457 l 381 243 l 603 243 b 718 122 675 243 718 192 b 603 0 718 50 665 0 l 138 0 "},"3":{"ha":751,"x_min":0,"x_max":0,"o":"m 365 -26 b -3 254 160 -26 -3 107 b 119 375 -3 321 54 375 b 249 292 176 375 210 344 b 364 228 278 253 310 228 b 460 319 424 228 460 267 b 340 410 460 381 407 406 b 224 519 268 414 224 450 b 364 639 224 596 283 619 b 438 706 393 646 438 663 b 365 765 438 746 403 765 b 242 711 313 765 282 739 b 138 669 210 689 186 669 b 32 790 75 669 32 724 b 361 1015 32 918 214 1015 b 688 743 572 1015 688 904 b 565 538 688 661 642 581 b 731 286 669 493 731 407 b 365 -26 731 106 575 -26 "},"4":{"ha":904,"x_min":0,"x_max":0,"o":"m 604 -8 b 478 128 525 -8 478 44 l 478 190 l 103 190 b -15 294 26 190 -15 238 b 29 413 -15 326 -4 361 l 342 888 b 544 997 390 960 443 997 b 731 807 664 997 731 914 l 731 425 l 776 425 b 907 307 857 425 907 392 b 776 190 907 222 854 190 l 731 190 l 731 131 b 604 -8 731 46 683 -8 m 471 425 l 478 704 l 476 717 l 306 425 "},"5":{"ha":721,"x_min":0,"x_max":0,"o":"m 332 -26 b 0 158 186 -26 0 39 b 114 299 0 239 44 299 b 322 228 192 299 246 228 b 439 361 388 228 439 269 b 340 472 439 421 411 472 b 168 421 269 472 247 421 b 71 517 103 421 71 453 b 79 640 71 563 76 618 l 106 881 b 239 989 114 951 149 989 l 599 989 b 717 867 664 989 717 939 b 599 746 717 796 664 746 l 326 746 l 318 657 b 421 672 350 665 388 672 b 721 343 622 672 721 538 b 332 -26 721 136 581 -26 "},"6":{"ha":785,"x_min":0,"x_max":0,"o":"m 392 -26 b 11 322 171 -26 11 111 b 199 765 11 458 64 594 b 485 1011 365 972 406 1011 b 613 890 560 1011 613 956 b 497 713 613 829 583 806 b 425 625 468 681 447 654 l 428 621 b 490 628 447 625 467 628 b 774 335 656 628 774 507 b 392 -26 774 129 628 -26 m 393 228 b 503 333 456 228 503 272 b 393 429 503 392 456 429 b 282 333 333 429 282 388 b 393 228 282 269 332 228 "},"7":{"ha":689,"x_min":0,"x_max":0,"o":"m 213 -8 b 88 107 135 -8 88 49 b 124 219 88 144 110 190 l 385 746 l 108 746 b -7 867 46 746 -7 796 b 108 989 -7 936 44 989 l 563 989 b 696 864 633 989 696 950 b 658 742 696 828 671 771 l 336 69 b 213 -8 317 29 274 -8 "},"8":{"ha":813,"x_min":0,"x_max":0,"o":"m 406 -26 b 21 300 183 -26 21 101 b 147 533 21 388 51 463 l 147 538 b 64 725 100 581 64 651 b 406 1015 64 911 208 1015 b 749 725 604 1015 749 910 b 665 538 749 651 713 581 l 665 533 b 792 301 763 468 792 392 b 406 -26 792 104 629 -26 m 406 626 b 486 703 444 626 486 651 b 404 783 486 756 447 783 b 326 703 365 783 326 754 b 406 626 326 651 369 626 m 406 228 b 521 331 465 228 521 267 b 404 436 521 394 468 436 b 292 331 349 436 292 394 b 406 228 292 267 347 228 "},"9":{"ha":785,"x_min":0,"x_max":0,"o":"m 299 -26 b 172 94 225 -26 172 29 b 285 269 172 156 200 179 b 360 360 313 301 338 329 l 357 364 b 294 357 336 360 318 357 b 11 650 129 357 11 478 b 393 1011 11 856 157 1011 b 774 663 614 1011 774 874 b 586 219 774 526 722 389 b 299 -26 421 11 379 -26 m 392 557 b 503 651 451 557 503 597 b 392 757 503 717 453 757 b 282 651 329 757 282 713 b 392 557 282 593 329 557 "},"\u0000":{"ha":0,"x_min":0,"x_max":0,"o":""},"\r":{"ha":403,"x_min":0,"x_max":0,"o":""}," ":{"ha":403,"x_min":0,"x_max":0,"o":""},"!":{"ha":353,"x_min":0,"x_max":0,"o":"m 176 279 b 51 417 99 279 51 343 l 51 879 b 176 1015 51 950 99 1015 b 303 879 254 1015 303 950 l 303 417 b 176 279 303 343 254 279 m 176 -26 b 39 113 101 -26 39 36 b 176 249 39 183 104 249 b 315 113 249 249 315 183 b 176 -26 315 36 251 -26 "},"\"":{"ha":738,"x_min":0,"x_max":0,"o":"m 221 526 b 117 635 156 526 117 575 l 117 889 b 221 997 117 949 156 997 b 326 889 288 997 326 949 l 326 635 b 221 526 326 575 288 526 m 517 526 b 411 635 450 526 411 575 l 411 889 b 517 997 411 949 450 997 b 621 889 582 997 621 949 l 621 635 b 517 526 621 575 582 526 "},"#":{"ha":836,"x_min":0,"x_max":0,"o":"m 219 -8 b 149 54 182 -8 149 15 b 154 106 149 58 149 71 l 178 271 l 138 271 b 65 347 88 271 65 304 b 138 419 65 389 88 419 l 197 419 l 217 567 l 174 567 b 104 642 132 567 104 594 b 175 717 104 686 131 717 l 240 717 l 264 894 b 353 997 274 971 293 997 b 424 935 390 997 424 974 b 419 893 424 931 422 913 l 394 717 l 503 717 l 526 892 b 617 997 535 958 547 997 b 686 935 656 997 686 974 b 682 893 686 931 685 915 l 657 717 l 697 717 b 771 642 749 717 771 685 b 699 567 771 600 749 567 l 638 567 l 618 419 l 665 419 b 732 347 706 419 732 390 b 663 271 732 303 707 271 l 594 271 l 567 67 b 482 -8 560 13 531 -8 b 411 54 444 -8 411 15 b 417 103 411 60 417 101 l 440 271 l 332 271 l 304 64 b 219 -8 299 19 268 -8 m 461 419 l 482 567 l 372 567 l 351 419 "},"$":{"ha":944,"x_min":0,"x_max":0,"o":"m 474 -133 b 428 -85 438 -133 428 -117 l 428 -26 b 203 21 336 -19 258 -4 b 99 150 136 50 99 93 b 211 275 99 222 147 275 b 275 261 231 275 251 269 b 428 217 322 244 376 218 l 428 385 b 99 690 210 446 99 518 b 428 1017 99 867 225 996 l 428 1079 b 474 1126 428 1111 443 1126 b 521 1081 506 1126 521 1111 l 521 1015 b 686 976 590 1010 644 996 b 776 846 746 947 776 903 b 667 736 776 779 729 736 b 589 760 642 736 614 747 b 521 783 563 771 539 783 l 521 626 b 847 290 739 564 847 481 b 521 -28 847 104 710 -10 l 521 -90 b 474 -133 521 -118 506 -133 m 428 783 b 372 713 400 775 372 756 b 428 650 372 676 401 651 m 521 218 b 574 290 553 225 574 254 b 521 361 574 325 556 353 l 521 218 "},"%":{"ha":942,"x_min":0,"x_max":0,"o":"m 238 579 b 21 799 121 579 21 661 b 238 1015 21 929 119 1015 b 456 799 357 1015 456 928 b 238 579 456 667 358 579 m 185 -22 b 111 54 135 -22 111 13 b 158 165 111 93 129 118 l 657 936 b 754 1011 696 999 724 1011 b 828 935 804 1011 828 976 b 781 824 828 897 811 871 l 282 53 b 185 -22 243 -10 215 -22 m 238 746 b 289 799 265 746 289 764 b 238 847 289 825 271 847 b 188 799 211 847 188 829 b 238 746 188 764 211 746 m 703 -26 b 486 193 586 -26 486 57 b 703 410 486 324 585 410 b 921 193 822 410 921 322 b 703 -26 921 63 824 -26 m 703 142 b 756 193 732 142 756 158 b 703 243 756 221 736 243 b 653 193 676 243 653 224 b 703 142 653 158 676 142 "},"&":{"ha":1003,"x_min":0,"x_max":0,"o":"m 374 -26 b 25 267 174 -26 25 96 b 246 557 25 390 85 481 b 158 746 179 631 158 683 b 468 1001 158 899 288 1001 b 774 751 660 1001 774 908 b 597 497 774 635 699 558 l 717 371 b 790 442 746 397 769 422 b 869 486 819 469 844 486 b 978 376 926 486 978 428 b 856 217 978 335 965 319 l 867 206 b 929 97 910 163 929 129 b 806 -10 929 46 882 -10 b 689 63 753 -10 728 11 l 682 71 b 374 -26 581 -4 483 -26 m 464 626 b 565 746 531 653 565 703 b 475 832 565 799 533 832 b 389 751 419 832 389 794 b 464 626 389 710 417 669 m 392 174 b 544 224 461 174 501 196 l 376 408 b 275 276 326 383 275 343 b 392 174 275 221 329 174 "},"'":{"ha":382,"x_min":0,"x_max":0,"o":"m 193 526 b 86 635 126 526 86 575 l 86 889 b 193 997 86 949 126 997 b 297 889 257 997 297 949 l 297 635 b 193 526 297 575 257 526 "},"(":{"ha":393,"x_min":0,"x_max":0,"o":"m 276 -269 b 156 -174 213 -269 183 -235 b 51 368 114 -85 51 86 b 132 842 51 539 83 719 b 272 1006 181 965 210 1006 b 385 906 338 1006 385 965 b 358 804 385 888 374 853 b 272 368 325 703 272 542 b 353 -49 272 182 319 46 b 385 -167 371 -99 385 -137 b 276 -269 385 -231 342 -269 "},")":{"ha":393,"x_min":0,"x_max":0,"o":"m 117 -269 b 8 -167 51 -269 8 -231 b 40 -49 8 -137 22 -99 b 121 368 74 46 121 182 b 35 804 121 542 68 703 b 8 906 19 853 8 888 b 121 1006 8 965 56 1006 b 263 842 185 1006 214 965 b 342 368 310 719 342 539 b 239 -174 342 86 279 -85 b 117 -269 211 -235 181 -269 "},"*":{"ha":550,"x_min":0,"x_max":0,"o":"m 275 458 b 190 528 222 458 190 486 b 201 600 190 549 200 586 b 113 544 146 554 136 544 b 28 644 67 544 28 599 b 129 728 28 685 58 703 b 26 808 60 750 26 764 b 110 911 26 847 61 911 b 201 857 136 911 149 901 b 190 928 200 871 190 911 b 275 997 190 969 222 997 b 360 928 328 997 360 969 b 349 857 360 911 350 871 b 440 911 400 900 414 911 b 524 808 489 911 524 847 b 421 728 524 764 490 750 b 522 644 492 703 522 685 b 438 544 522 599 483 544 b 349 600 414 544 403 554 b 360 528 350 586 360 549 b 275 458 360 486 328 458 "},"+":{"ha":853,"x_min":0,"x_max":0,"o":"m 426 0 b 321 107 354 0 321 49 l 321 300 l 129 300 b 21 406 74 300 21 343 b 126 511 21 474 68 511 l 321 511 l 321 706 b 426 811 321 763 354 811 b 532 706 499 811 532 761 l 532 511 l 726 511 b 832 406 785 511 832 474 b 726 300 832 336 785 300 l 532 300 l 532 107 b 426 0 532 51 499 0 "},",":{"ha":426,"x_min":0,"x_max":0,"o":"m 96 -222 b -28 -112 32 -222 -28 -179 b -1 -31 -28 -94 -28 -76 l 117 172 b 233 249 143 217 174 249 b 357 140 297 249 357 206 b 331 57 357 122 356 104 l 213 -144 b 96 -222 186 -189 156 -222 "},"-":{"ha":628,"x_min":0,"x_max":0,"o":"m 139 288 b 38 393 79 288 38 328 b 139 499 38 460 79 499 l 489 499 b 590 393 549 499 590 460 b 489 288 590 328 549 288 l 139 288 "},".":{"ha":415,"x_min":0,"x_max":0,"o":"m 208 -26 b 69 113 133 -26 69 36 b 208 249 69 183 133 249 b 346 113 283 249 346 183 b 208 -26 346 38 285 -26 "},"/":{"ha":692,"x_min":0,"x_max":0,"o":"m 96 -26 b 13 57 49 -26 13 11 b 60 178 13 96 29 125 l 474 903 b 596 1015 517 978 543 1015 b 679 932 642 1015 679 978 b 633 811 679 893 663 863 l 219 88 b 96 -26 174 8 150 -26 "},":":{"ha":415,"x_min":0,"x_max":0,"o":"m 208 396 b 69 535 133 396 69 457 b 208 672 69 613 138 672 b 346 535 279 672 346 611 b 208 396 346 460 283 396 m 208 -26 b 69 113 133 -26 69 35 b 208 249 69 188 138 249 b 346 113 279 249 346 188 b 208 -26 346 38 283 -26 "},";":{"ha":426,"x_min":0,"x_max":0,"o":"m 219 396 b 81 535 144 396 81 457 b 219 672 81 611 147 672 b 357 535 290 672 357 613 b 219 396 357 458 294 396 m 94 -222 b -29 -112 31 -222 -29 -179 b -3 -31 -29 -94 -29 -76 l 115 172 b 232 249 142 217 172 249 b 356 140 296 249 356 206 b 329 57 356 122 354 104 l 211 -144 b 94 -222 185 -189 154 -222 "},"<":{"ha":839,"x_min":0,"x_max":0,"o":"m 717 49 b 636 71 689 49 667 57 l 97 301 b 29 406 51 321 29 364 b 97 508 29 446 43 485 l 633 744 b 714 764 668 760 686 764 b 810 665 765 764 810 731 b 733 567 810 617 793 590 l 321 406 l 739 240 b 810 143 783 222 810 200 b 717 49 810 81 768 49 "},"=":{"ha":853,"x_min":0,"x_max":0,"o":"m 126 472 b 21 576 68 472 21 508 b 126 682 21 646 68 682 l 726 682 b 832 576 785 682 832 646 b 726 472 832 508 785 472 l 126 472 m 126 128 b 21 235 68 128 21 164 b 126 340 21 304 68 340 l 726 340 b 832 235 785 340 832 304 b 726 128 832 164 785 128 l 126 128 "},">":{"ha":839,"x_min":0,"x_max":0,"o":"m 122 49 b 29 143 71 49 29 81 b 100 240 29 200 56 222 l 518 406 l 106 567 b 29 665 46 590 29 617 b 125 764 29 731 74 764 b 207 744 153 764 171 760 l 742 508 b 810 406 796 485 810 446 b 742 301 810 364 788 321 l 203 71 b 122 49 172 57 150 49 "},"?":{"ha":725,"x_min":0,"x_max":0,"o":"m 339 279 b 213 394 264 279 213 328 l 213 488 b 328 592 213 544 240 578 b 424 678 393 601 424 628 b 347 750 424 724 392 750 b 243 700 301 750 279 733 b 124 639 208 664 175 639 b 10 757 63 639 10 693 b 343 1015 10 915 190 1015 b 706 697 547 1015 706 894 b 464 401 706 533 614 440 l 464 392 b 339 279 464 321 407 279 m 339 -26 b 200 113 264 -26 200 38 b 339 249 200 183 263 249 b 476 113 414 249 476 183 b 339 -26 476 38 414 -26 "},"@":{"ha":1272,"x_min":0,"x_max":0,"o":"m 658 -194 b 46 397 324 -194 46 53 b 665 1015 46 763 322 1015 b 1226 506 985 1015 1226 814 b 854 92 1226 194 1022 92 b 724 157 800 92 743 111 b 536 92 682 126 624 92 b 313 378 406 92 313 213 b 622 744 313 567 449 744 b 806 650 701 744 753 718 l 807 654 b 900 733 825 703 843 733 b 975 657 942 733 975 708 b 965 594 975 644 967 608 l 926 332 b 924 306 925 322 924 313 b 954 283 924 293 931 283 b 1065 463 1025 283 1065 353 b 661 851 1065 708 914 851 b 243 408 435 851 243 660 b 682 -32 243 142 414 -32 b 956 42 792 -32 889 -3 b 1021 65 972 53 992 65 b 1085 -1 1057 65 1085 38 b 1035 -90 1085 -35 1067 -64 b 658 -194 958 -154 807 -194 m 619 297 b 740 446 683 297 740 351 b 658 556 740 511 715 556 b 544 411 594 556 544 483 b 619 297 544 344 569 297 "},"A":{"ha":890,"x_min":0,"x_max":0,"o":"m 121 -8 b -4 101 44 -8 -4 33 b 29 247 -4 151 14 207 l 257 854 b 447 1015 293 953 349 1015 b 635 854 540 1015 597 953 l 857 263 b 894 101 876 207 894 154 b 771 -8 894 33 847 -8 b 633 118 692 -8 656 40 l 613 182 l 276 182 l 261 124 b 121 -8 229 21 189 -8 m 538 426 l 453 729 l 450 729 l 354 426 "},"B":{"ha":857,"x_min":0,"x_max":0,"o":"m 176 0 b 51 128 111 0 51 56 l 51 861 b 176 989 51 932 111 989 l 476 989 b 746 733 624 989 746 897 b 626 547 746 649 699 578 l 626 543 b 826 300 743 515 826 432 b 481 0 826 117 693 0 l 176 0 m 404 614 b 483 683 447 614 483 639 b 401 757 483 733 449 757 l 314 757 l 314 614 m 451 232 b 554 308 513 232 554 260 b 450 379 554 360 506 379 l 314 379 l 314 232 "},"C":{"ha":838,"x_min":0,"x_max":0,"o":"m 518 -26 b 26 492 218 -26 26 197 b 536 1015 26 804 229 1015 b 746 978 622 1015 694 1003 b 833 850 801 950 833 908 b 719 726 833 785 786 726 b 657 738 701 726 679 729 b 543 761 621 750 582 761 b 308 499 389 761 308 654 b 514 239 308 347 389 239 b 651 261 588 239 625 257 b 719 275 674 267 694 275 b 838 154 797 275 838 225 b 743 17 838 92 801 46 b 518 -26 686 -12 601 -26 "},"D":{"ha":954,"x_min":0,"x_max":0,"o":"m 176 0 b 51 128 111 0 51 56 l 51 861 b 176 989 51 932 111 989 l 461 989 b 928 507 724 989 928 788 b 464 0 928 171 699 0 l 176 0 m 417 243 b 647 500 556 243 647 338 b 428 746 647 661 557 746 l 314 746 l 314 243 "},"E":{"ha":674,"x_min":0,"x_max":0,"o":"m 176 0 b 51 128 111 0 51 56 l 51 861 b 176 989 51 932 111 989 l 533 989 b 658 867 606 989 658 940 b 533 746 658 789 606 746 l 313 746 l 313 621 l 513 621 b 638 499 586 621 638 575 b 513 376 638 422 589 376 l 314 376 l 314 243 l 539 243 b 665 122 615 243 665 200 b 540 0 665 49 614 0 l 176 0 "},"F":{"ha":644,"x_min":0,"x_max":0,"o":"m 183 -8 b 51 124 106 -8 51 40 l 51 863 b 176 989 51 933 110 989 l 529 989 b 654 867 603 989 654 940 b 529 746 654 789 603 746 l 314 746 l 314 624 l 503 624 b 628 503 576 624 628 579 b 503 379 628 425 576 379 l 314 379 l 314 124 b 183 -8 314 40 260 -8 "},"G":{"ha":1026,"x_min":0,"x_max":0,"o":"m 539 -26 b 26 485 192 -26 26 232 b 531 1015 26 799 242 1015 b 831 939 647 1015 757 989 b 926 779 890 900 926 846 b 811 672 926 718 883 672 b 718 707 775 672 747 689 b 540 772 689 724 640 772 b 308 494 410 772 308 660 b 533 217 308 335 393 217 b 719 351 628 217 706 272 l 601 351 b 475 472 522 351 475 397 b 600 596 475 551 522 596 l 865 596 b 992 439 942 596 992 549 b 539 -26 992 178 790 -26 "},"H":{"ha":1010,"x_min":0,"x_max":0,"o":"m 183 -8 b 51 124 106 -8 51 40 l 51 865 b 183 997 51 949 106 997 b 314 865 260 997 314 949 l 314 629 l 696 629 l 696 865 b 828 997 696 949 750 997 b 958 865 904 997 958 949 l 958 124 b 828 -8 958 40 904 -8 b 696 124 750 -8 696 40 l 696 385 l 314 385 l 314 124 b 183 -8 314 40 260 -8 "},"I":{"ha":365,"x_min":0,"x_max":0,"o":"m 183 -8 b 51 124 106 -8 51 40 l 51 865 b 183 997 51 949 106 997 b 314 865 260 997 314 949 l 314 124 b 183 -8 314 40 260 -8 "},"J":{"ha":624,"x_min":0,"x_max":0,"o":"m 249 -26 b -14 150 138 -19 -14 10 b 101 281 -14 226 24 281 b 243 231 158 281 194 231 b 310 372 297 231 310 274 l 310 865 b 440 997 310 949 365 997 b 572 865 518 997 572 949 l 572 319 b 249 -26 572 82 469 -26 "},"K":{"ha":872,"x_min":0,"x_max":0,"o":"m 183 -8 b 51 124 106 -8 51 40 l 51 865 b 183 997 51 949 106 997 b 314 865 260 997 314 949 l 314 614 l 585 933 b 703 997 632 986 656 997 b 828 875 763 997 828 942 b 781 771 828 838 813 806 l 554 525 l 835 207 b 874 118 860 179 874 149 b 746 -8 874 40 821 -8 b 579 106 701 -8 664 1 l 314 426 l 314 124 b 183 -8 314 40 260 -8 "},"L":{"ha":667,"x_min":0,"x_max":0,"o":"m 179 0 b 51 129 110 0 51 56 l 51 865 b 183 997 51 949 106 997 b 314 865 260 997 314 949 l 314 243 l 551 243 b 681 122 629 243 681 200 b 554 0 681 49 628 0 l 179 0 "},"M":{"ha":1231,"x_min":0,"x_max":0,"o":"m 147 -8 b 21 118 67 -8 21 54 b 64 403 21 142 26 208 l 142 817 b 308 997 168 951 225 997 b 517 758 435 997 467 911 l 615 456 l 618 456 l 694 700 b 913 997 760 915 794 997 b 1089 815 1011 997 1064 953 l 1194 247 b 1210 118 1207 181 1210 135 b 1083 -8 1210 53 1164 -8 b 935 179 978 -8 956 47 l 885 504 l 882 504 l 754 93 b 617 -8 733 26 694 -8 b 472 103 533 -8 497 24 l 350 504 l 347 504 l 294 163 b 147 -8 271 7 215 -8 "},"N":{"ha":1010,"x_min":0,"x_max":0,"o":"m 183 -8 b 51 124 106 -8 51 40 l 51 864 b 175 997 51 946 94 997 b 308 922 233 997 267 976 l 693 475 l 696 475 l 696 865 b 828 997 696 949 751 997 b 958 865 906 997 958 949 l 958 125 b 832 -8 958 40 907 -8 b 689 79 774 -8 739 17 l 317 511 l 314 511 l 314 124 b 183 -8 314 40 260 -8 "},"O":{"ha":1065,"x_min":0,"x_max":0,"o":"m 533 -26 b 26 496 231 -26 26 172 b 533 1015 26 817 228 1015 b 1039 494 833 1015 1039 821 b 533 -26 1039 178 843 -26 m 532 217 b 757 496 676 217 757 331 b 532 772 757 656 678 772 b 308 494 394 772 308 660 b 532 217 308 321 401 217 "},"P":{"ha":828,"x_min":0,"x_max":0,"o":"m 183 -8 b 51 124 106 -8 51 40 l 51 861 b 176 989 51 933 111 989 l 474 989 b 815 653 629 989 815 881 b 482 300 815 431 681 300 l 314 300 l 314 124 b 183 -8 314 40 260 -8 m 418 533 b 542 643 489 533 542 571 b 422 757 542 721 490 757 l 314 757 l 314 533 "},"Q":{"ha":1078,"x_min":0,"x_max":0,"o":"m 986 143 b 1075 15 1051 89 1075 64 b 961 -99 1075 -51 1025 -99 b 835 -33 908 -99 883 -74 l 776 18 b 533 -26 707 -10 619 -26 b 26 494 231 -26 26 172 b 533 1015 26 819 231 1015 b 1039 494 833 1015 1039 819 b 947 174 1039 365 1006 257 l 986 143 m 733 353 b 757 494 749 392 757 440 b 532 769 757 653 679 769 b 308 494 394 769 308 658 b 533 219 308 328 397 219 b 550 221 540 219 546 219 l 540 229 b 486 328 507 257 486 275 b 596 429 486 388 535 429 b 721 367 650 429 686 400 l 733 353 "},"R":{"ha":833,"x_min":0,"x_max":0,"o":"m 183 -8 b 51 124 106 -8 51 40 l 51 861 b 176 989 51 933 111 989 l 467 989 b 806 669 665 989 806 867 b 615 401 806 561 751 446 l 607 399 l 764 228 b 819 115 793 196 819 158 b 679 -8 819 58 775 -8 b 547 72 632 -8 592 13 l 317 383 l 314 383 l 314 124 b 183 -8 314 40 260 -8 m 458 574 b 543 664 507 574 543 610 b 458 746 543 719 497 746 l 314 746 l 314 574 "},"S":{"ha":778,"x_min":0,"x_max":0,"o":"m 357 -26 b 107 22 271 -26 176 -10 b 4 151 46 53 4 94 b 132 285 4 224 44 285 b 203 269 158 285 176 278 b 378 231 251 254 299 231 b 467 290 433 231 467 254 b 344 382 467 333 426 357 b 21 686 192 425 21 472 b 399 1015 21 899 171 1015 b 582 988 474 1015 535 1006 b 694 849 656 960 694 911 b 576 728 694 779 650 728 b 524 736 557 728 540 732 b 388 761 486 744 449 761 b 306 708 336 761 306 746 b 436 632 306 668 353 658 b 751 310 622 572 751 524 b 357 -26 751 97 601 -26 "},"T":{"ha":693,"x_min":0,"x_max":0,"o":"m 347 -8 b 215 124 269 -8 215 40 l 215 746 l 104 746 b -28 867 24 746 -28 790 b 104 989 -28 944 24 989 l 590 989 b 721 867 669 989 721 944 b 590 746 721 790 669 746 l 478 746 l 478 124 b 347 -8 478 40 425 -8 "},"U":{"ha":981,"x_min":0,"x_max":0,"o":"m 489 -26 b 44 411 218 -26 44 157 l 44 865 b 176 997 44 949 100 997 b 307 865 254 997 307 949 l 307 408 b 490 228 307 306 379 228 b 674 408 599 228 674 304 l 674 865 b 806 997 674 946 726 997 b 936 865 882 997 936 949 l 936 411 b 489 -26 936 160 768 -26 "},"V":{"ha":851,"x_min":0,"x_max":0,"o":"m 422 -8 b 293 86 358 -8 318 26 l 4 794 b -17 871 -15 843 -17 854 b 107 997 -17 935 31 997 b 257 869 178 997 215 976 l 425 438 l 428 438 l 589 856 b 744 997 632 967 660 997 b 868 871 815 997 868 935 b 843 782 868 854 863 829 l 550 82 b 422 -8 526 25 488 -8 "},"W":{"ha":1322,"x_min":0,"x_max":0,"o":"m 358 -8 b 161 235 214 -8 207 75 l 21 728 b -8 868 10 768 -8 822 b 122 997 -8 943 49 997 b 258 878 192 997 239 961 l 369 421 l 372 421 l 514 860 b 661 997 547 963 590 997 b 806 865 732 997 775 958 l 950 421 l 953 421 l 1061 865 b 1200 997 1086 969 1129 997 b 1331 868 1276 997 1331 940 b 1321 800 1331 850 1329 828 l 1151 193 b 964 -8 1107 38 1078 -8 b 788 138 864 -8 819 46 l 663 511 l 660 511 l 538 139 b 358 -8 507 47 460 -8 "},"X":{"ha":863,"x_min":0,"x_max":0,"o":"m 126 -8 b -3 124 53 -8 -3 50 b 44 233 -3 156 7 185 l 272 532 l 94 758 b 46 874 69 790 46 826 b 186 997 46 940 101 997 b 296 932 228 997 265 975 l 432 753 l 553 915 b 679 997 588 964 625 997 b 817 874 764 997 817 939 b 768 757 817 824 790 786 l 592 532 l 801 261 b 865 124 828 222 865 186 b 736 -8 865 44 808 -8 b 614 64 683 -8 650 15 l 432 306 l 257 74 b 126 -8 214 15 178 -8 "},"Y":{"ha":782,"x_min":0,"x_max":0,"o":"m 392 -8 b 260 124 314 -8 260 40 l 260 463 l 90 665 b -29 879 7 776 -29 824 b 107 997 -29 946 26 997 b 247 900 176 997 218 940 l 392 704 l 533 899 b 675 997 603 993 640 997 b 811 879 754 997 811 946 b 700 676 811 828 782 786 l 522 463 l 522 124 b 392 -8 522 40 467 -8 "},"Z":{"ha":793,"x_min":0,"x_max":0,"o":"m 171 0 b -4 143 57 0 -4 40 b 36 243 -4 182 4 203 l 442 757 l 143 757 b 10 872 61 757 10 801 b 146 989 10 944 61 989 l 617 989 b 776 854 718 989 776 936 b 704 704 776 819 753 767 l 336 243 l 663 243 b 797 122 747 243 797 199 b 663 0 797 44 747 0 l 171 0 "},"[":{"ha":538,"x_min":0,"x_max":0,"o":"m 219 -279 b 108 -172 143 -279 108 -244 l 108 913 b 211 1015 108 976 147 1015 l 443 1015 b 528 925 489 1015 528 979 b 440 835 528 868 485 835 l 326 835 l 326 -97 l 440 -97 b 528 -189 489 -97 528 -132 b 442 -279 528 -244 489 -279 l 219 -279 "},"\\":{"ha":692,"x_min":0,"x_max":0,"o":"m 596 -26 b 472 88 543 -26 519 7 l 60 811 b 13 932 31 863 13 893 b 96 1015 13 978 50 1015 b 219 901 150 1015 176 978 l 633 178 b 679 57 663 125 679 96 b 596 -26 679 11 643 -26 "},"]":{"ha":538,"x_min":0,"x_max":0,"o":"m 94 -279 b 10 -189 51 -279 10 -244 b 96 -97 10 -132 51 -97 l 208 -97 l 208 835 l 96 835 b 10 925 51 835 10 868 b 97 1015 10 981 51 1015 l 310 1015 b 429 913 389 1015 429 982 l 429 -175 b 324 -279 429 -240 390 -279 l 94 -279 "},"^":{"ha":811,"x_min":0,"x_max":0,"o":"m 176 458 b 90 526 125 458 90 492 b 122 615 90 544 90 556 l 294 921 b 406 997 324 972 353 997 b 515 922 461 997 489 971 l 701 592 b 721 526 713 571 721 547 b 635 458 721 492 686 458 b 531 525 571 458 546 496 l 406 757 l 283 531 b 176 458 264 494 238 458 "},"_":{"ha":689,"x_min":0,"x_max":0,"o":"m -4 -174 b -43 -139 -25 -174 -43 -162 b -4 -104 -43 -115 -25 -104 l 693 -104 b 732 -139 714 -104 732 -115 b 693 -174 732 -162 714 -174 l -4 -174 "},"`":{"ha":339,"x_min":0,"x_max":0,"o":"m 240 819 b 146 846 210 819 197 824 l -40 929 b -97 1019 -79 947 -97 983 b 8 1125 -97 1076 -53 1125 b 79 1108 31 1125 57 1118 l 281 1018 b 346 928 331 996 346 965 b 240 819 346 864 301 819 "},"a":{"ha":822,"x_min":0,"x_max":0,"o":"m 350 -26 b 18 369 169 -26 18 151 b 351 765 18 592 168 765 b 538 681 422 765 497 740 l 540 681 l 544 688 b 657 747 561 714 593 747 b 779 622 729 747 779 689 l 779 117 b 657 -8 779 50 729 -8 b 546 56 593 -8 560 28 l 544 58 l 542 58 b 350 -26 493 6 431 -26 m 397 219 b 528 369 474 219 528 282 b 396 519 528 457 475 519 b 267 369 321 519 267 460 b 397 219 267 282 321 219 "},"b":{"ha":822,"x_min":0,"x_max":0,"o":"m 165 -8 b 43 117 94 -8 43 50 l 43 943 b 169 1068 43 1011 97 1068 b 294 943 244 1068 294 1011 l 294 717 l 297 717 b 461 765 344 749 392 765 b 804 369 654 765 804 590 b 464 -26 804 149 646 -26 b 281 58 389 -26 335 -1 l 278 58 l 275 51 b 165 -8 260 25 231 -8 m 425 219 b 556 369 503 219 556 282 b 424 519 556 457 504 519 b 294 369 349 519 294 458 b 425 219 294 282 347 219 "},"c":{"ha":671,"x_min":0,"x_max":0,"o":"m 396 -26 b 18 371 183 -26 18 136 b 393 765 18 604 178 765 b 588 729 469 765 538 753 b 672 603 640 703 672 661 b 575 488 672 539 631 488 b 526 496 557 488 539 489 b 415 522 483 514 457 522 b 267 367 319 522 267 456 b 399 217 267 279 317 217 b 513 242 449 217 483 231 b 571 257 533 250 553 257 b 674 142 636 257 674 201 b 603 29 674 93 644 56 b 396 -26 544 -8 461 -26 "},"d":{"ha":822,"x_min":0,"x_max":0,"o":"m 350 -26 b 18 369 167 -26 18 151 b 353 765 18 586 161 765 b 525 718 422 765 478 750 l 528 718 l 528 943 b 654 1068 528 1011 578 1068 b 779 943 725 1068 779 1011 l 779 117 b 657 -8 779 50 729 -8 b 547 53 593 -8 563 26 l 544 58 l 542 58 b 350 -26 492 4 428 -26 m 397 219 b 528 369 474 219 528 281 b 400 519 528 458 471 519 b 267 369 318 519 267 458 b 397 219 267 282 321 219 "},"e":{"ha":796,"x_min":0,"x_max":0,"o":"m 410 -26 b 18 369 174 -26 18 149 b 411 765 18 586 186 765 b 778 394 622 765 778 592 b 665 290 778 319 750 290 l 288 290 b 443 208 297 243 340 208 b 604 247 503 208 556 229 b 663 264 629 260 647 264 b 767 156 724 264 767 214 b 703 50 767 113 742 76 b 410 -26 633 0 518 -26 m 528 460 b 410 553 526 510 481 553 b 289 460 339 553 289 499 "},"f":{"ha":542,"x_min":0,"x_max":0,"o":"m 253 -8 b 126 117 181 -8 125 50 l 126 504 l 114 504 b -22 621 18 504 -22 540 b 118 739 -22 703 25 739 l 126 739 l 126 804 b 369 1068 126 939 210 1068 l 381 1068 b 531 951 474 1068 531 1025 b 419 836 531 868 482 836 l 415 836 b 378 783 385 836 378 811 l 378 739 l 432 739 b 564 621 507 739 564 708 b 432 504 564 535 507 504 l 378 504 l 378 117 b 253 -8 378 50 322 -8 "},"g":{"ha":822,"x_min":0,"x_max":0,"o":"m 365 -311 b 126 -265 288 -311 194 -297 b 29 -142 69 -239 29 -199 b 124 -33 29 -90 69 -33 b 214 -58 158 -33 185 -46 b 363 -89 246 -72 292 -89 b 528 69 464 -89 528 -43 l 528 74 l 525 74 b 324 -8 481 18 417 -8 b 18 369 135 -8 18 158 b 351 765 18 588 163 765 b 538 681 429 765 496 740 l 540 681 l 544 688 b 657 747 561 714 593 747 b 779 622 729 747 779 689 l 779 76 b 365 -311 779 -165 633 -311 m 397 215 b 528 369 474 215 528 276 b 396 519 528 457 475 519 b 267 369 322 519 267 460 b 397 215 267 276 321 215 "},"h":{"ha":800,"x_min":0,"x_max":0,"o":"m 174 -8 b 47 117 101 -8 47 50 l 47 943 b 174 1068 47 1011 101 1068 b 299 943 244 1068 299 1011 l 299 711 l 301 711 b 478 765 364 749 415 765 b 753 518 644 765 753 669 l 753 117 b 626 -8 753 49 699 -8 b 500 117 556 -8 500 50 l 500 444 b 400 556 500 510 465 556 b 299 447 336 556 299 506 l 299 117 b 174 -8 299 50 244 -8 "},"i":{"ha":344,"x_min":0,"x_max":0,"o":"m 174 796 b 25 943 96 796 25 860 b 174 1090 25 1025 92 1090 b 319 943 258 1090 319 1026 b 174 796 319 861 257 796 m 174 -8 b 47 117 101 -8 47 50 l 47 622 b 174 747 47 689 101 747 b 299 622 249 747 299 689 l 299 117 b 174 -8 299 50 244 -8 "},"j":{"ha":339,"x_min":0,"x_max":0,"o":"m 171 796 b 22 943 93 796 22 861 b 171 1090 22 1025 89 1090 b 317 943 256 1090 317 1026 b 171 796 317 861 253 796 m 171 -311 b 44 -187 99 -311 44 -251 l 44 624 b 171 747 44 689 99 747 b 296 624 246 747 296 689 l 296 -187 b 171 -311 296 -251 242 -311 "},"k":{"ha":719,"x_min":0,"x_max":0,"o":"m 174 -8 b 47 117 101 -8 47 50 l 47 943 b 174 1068 47 1011 101 1068 b 299 943 244 1068 299 1011 l 299 499 l 481 693 b 576 747 499 713 535 747 b 694 633 646 747 694 694 b 606 489 694 588 672 556 l 532 417 l 690 206 b 739 108 717 171 739 140 b 622 -8 739 42 689 -8 b 494 82 567 -8 542 15 l 299 351 l 299 117 b 174 -8 299 50 244 -8 "},"l":{"ha":338,"x_min":0,"x_max":0,"o":"m 169 -8 b 43 117 97 -8 43 50 l 43 943 b 169 1068 43 1011 97 1068 b 294 943 244 1068 294 1011 l 294 117 b 169 -8 294 50 240 -8 "},"m":{"ha":1211,"x_min":0,"x_max":0,"o":"m 174 -8 b 47 117 101 -8 47 50 l 47 622 b 174 747 47 689 101 747 b 292 686 242 747 274 711 l 296 681 l 299 681 b 492 765 332 728 393 765 b 685 682 572 765 643 735 b 899 765 763 743 831 765 b 1164 519 1064 765 1164 669 l 1164 117 b 1038 -8 1164 50 1110 -8 b 911 117 967 -8 911 50 l 911 444 b 821 556 911 514 876 556 b 731 447 763 556 731 510 l 731 117 b 606 -8 731 50 678 -8 b 479 117 535 -8 479 50 l 479 449 b 392 556 479 508 450 556 b 299 444 332 556 299 504 l 299 117 b 174 -8 299 50 244 -8 "},"n":{"ha":800,"x_min":0,"x_max":0,"o":"m 174 -8 b 47 117 101 -8 47 50 l 47 622 b 174 747 47 689 101 747 b 292 686 242 747 274 711 l 296 681 l 299 681 b 486 765 332 733 393 765 b 753 518 656 765 753 669 l 753 117 b 626 -8 753 54 699 -8 b 500 117 556 -8 500 54 l 500 447 b 400 556 500 514 463 556 b 299 447 336 556 299 506 l 299 117 b 174 -8 299 50 244 -8 "},"o":{"ha":796,"x_min":0,"x_max":0,"o":"m 397 -26 b 18 369 178 -26 18 149 b 397 765 18 600 179 765 b 778 369 608 765 778 606 b 397 -26 778 149 617 -26 m 397 219 b 526 369 474 219 526 282 b 396 519 526 457 475 519 b 267 369 319 519 267 457 b 397 219 267 281 321 219 "},"p":{"ha":822,"x_min":0,"x_max":0,"o":"m 169 -311 b 43 -187 97 -311 43 -251 l 43 622 b 163 747 43 689 92 747 b 276 685 232 747 260 711 l 279 681 l 282 681 b 467 765 315 731 382 765 b 804 369 668 765 804 582 b 464 -26 804 142 646 -26 b 297 17 394 -26 344 -14 l 294 17 l 294 -187 b 169 -311 294 -251 240 -311 m 425 219 b 556 369 501 219 556 281 b 424 519 556 457 503 519 b 294 369 349 519 294 458 b 425 219 294 282 347 219 "},"q":{"ha":822,"x_min":0,"x_max":0,"o":"m 654 -311 b 528 -186 582 -311 528 -249 l 528 18 l 525 18 b 351 -26 479 -11 421 -26 b 18 369 168 -26 18 150 b 350 765 18 583 163 765 b 538 681 436 765 503 735 l 540 681 l 542 683 b 654 747 558 710 589 747 b 779 622 725 747 779 686 l 779 -186 b 654 -311 779 -249 725 -311 m 397 219 b 526 369 474 219 526 282 b 396 519 526 457 475 519 b 267 369 319 519 267 458 b 397 219 267 282 321 219 "},"r":{"ha":540,"x_min":0,"x_max":0,"o":"m 174 -8 b 47 117 101 -8 47 50 l 47 622 b 171 747 47 689 101 747 b 289 686 242 747 271 711 l 293 681 l 296 681 b 444 765 344 731 392 765 b 568 640 510 765 568 714 b 404 497 568 589 550 542 b 299 361 310 468 299 444 l 299 117 b 174 -8 299 50 244 -8 "},"s":{"ha":608,"x_min":0,"x_max":0,"o":"m 306 -26 b 92 19 225 -26 147 -11 b 17 128 46 44 17 81 b 118 243 17 201 63 243 b 174 231 140 243 157 238 b 313 189 215 215 257 189 b 354 219 343 189 354 207 b 33 513 354 301 33 260 b 321 765 33 647 140 765 b 496 719 378 765 444 750 b 575 599 542 693 575 653 b 471 503 575 535 526 503 b 403 522 447 503 428 511 b 307 551 369 538 333 551 b 272 517 283 551 272 539 b 592 225 272 450 592 457 b 306 -26 592 60 463 -26 "},"t":{"ha":564,"x_min":0,"x_max":0,"o":"m 260 -8 b 135 117 189 -8 135 50 l 135 504 b -14 621 31 504 -14 540 b 131 739 -14 703 31 739 l 135 739 l 135 876 b 260 1001 135 943 189 1001 b 386 876 331 1001 386 943 l 386 739 l 449 739 b 578 621 522 739 578 708 b 449 504 578 535 522 504 l 386 504 l 386 117 b 260 -8 386 50 331 -8 "},"u":{"ha":800,"x_min":0,"x_max":0,"o":"m 400 -26 b 47 268 186 -26 47 81 l 47 622 b 174 747 47 689 101 747 b 299 622 244 747 299 689 l 299 303 b 400 208 299 250 347 208 b 500 303 451 208 500 249 l 500 622 b 626 747 500 686 556 747 b 753 622 699 747 753 686 l 753 267 b 400 -26 753 92 619 -26 "},"v":{"ha":668,"x_min":0,"x_max":0,"o":"m 335 -8 b 194 94 258 -8 218 39 l 43 453 b -10 628 -4 565 -10 599 b 118 747 -10 700 49 747 b 232 650 151 747 201 743 l 333 363 l 336 363 l 432 640 b 554 747 463 731 497 747 b 678 628 624 747 678 694 b 632 468 678 596 674 571 l 472 92 b 335 -8 450 40 408 -8 "},"w":{"ha":1068,"x_min":0,"x_max":0,"o":"m 321 -8 b 168 107 228 -8 190 43 l 31 481 b -10 626 -6 579 -10 597 b 115 747 -10 694 33 747 b 224 674 169 747 210 718 l 321 350 l 324 350 l 415 649 b 533 747 433 706 471 747 b 665 608 585 747 629 731 l 743 350 l 746 350 l 839 661 b 953 747 856 715 894 747 b 1078 626 1035 747 1078 694 b 1004 390 1078 578 1028 451 l 911 140 b 750 -8 876 44 854 -8 b 604 118 674 -8 636 21 l 535 332 l 532 332 l 465 121 b 321 -8 440 44 415 -8 "},"x":{"ha":719,"x_min":0,"x_max":0,"o":"m 110 -8 b -14 119 44 -8 -14 42 b 38 225 -14 163 13 201 l 204 388 l 122 468 b 19 617 71 517 19 561 b 138 747 19 700 72 747 b 263 686 192 747 222 733 l 365 571 l 461 682 b 586 747 503 729 535 747 b 701 635 649 747 701 701 b 606 476 701 585 676 551 l 517 383 l 683 225 b 733 119 722 188 733 153 b 606 -8 733 42 678 -8 b 514 33 571 -8 536 10 l 360 200 l 253 83 b 110 -8 218 49 168 -8 "},"y":{"ha":731,"x_min":0,"x_max":0,"o":"m 235 -311 b 117 -194 160 -311 117 -256 b 160 -57 117 -151 139 -103 l 228 85 l 56 456 b -3 629 38 496 -3 590 b 122 747 -3 700 51 747 b 249 654 163 747 217 736 l 361 390 l 364 390 l 467 615 b 608 747 503 704 554 747 b 733 619 688 747 733 697 b 682 463 733 588 717 539 l 392 -167 b 235 -311 340 -276 308 -311 "},"z":{"ha":692,"x_min":0,"x_max":0,"o":"m 110 0 b 0 85 33 0 0 35 b 25 156 0 111 14 143 l 286 507 l 136 507 b 4 622 64 507 4 538 b 136 739 4 708 64 739 l 564 739 b 674 657 639 739 674 710 b 646 590 674 635 658 607 l 369 232 l 560 232 b 692 117 632 232 692 201 b 560 0 692 31 632 0 l 110 0 "},"{":{"ha":525,"x_min":0,"x_max":0,"o":"m 331 -279 b 136 -94 218 -279 136 -229 l 136 232 b 82 293 136 274 121 293 b 0 368 25 293 0 326 b 82 443 0 411 26 443 b 136 503 124 443 136 469 l 136 832 b 331 1015 136 956 214 1015 l 438 1015 b 525 946 492 1015 525 993 b 442 875 525 899 493 875 l 417 875 b 357 808 379 875 357 854 l 357 488 b 196 369 357 415 321 371 l 196 367 b 357 249 321 365 357 321 l 357 -72 b 418 -139 357 -117 379 -139 l 442 -139 b 525 -210 494 -139 525 -162 b 438 -279 525 -257 492 -279 l 331 -279 "},"|":{"ha":325,"x_min":0,"x_max":0,"o":"m 163 -449 b 68 -350 103 -449 68 -407 l 68 1044 b 163 1143 68 1101 103 1143 b 257 1044 222 1143 257 1101 l 257 -350 b 163 -449 257 -407 222 -449 "},"}":{"ha":525,"x_min":0,"x_max":0,"o":"m 89 -279 b 0 -210 33 -279 0 -257 b 83 -139 0 -162 32 -139 l 107 -139 b 168 -72 147 -139 168 -117 l 168 249 b 329 367 168 321 204 365 l 329 369 b 168 488 204 371 168 415 l 168 808 b 108 875 168 854 146 875 l 85 875 b 0 946 32 875 0 899 b 89 1015 0 993 33 1015 l 196 1015 b 389 832 313 1015 389 956 l 389 503 b 443 443 389 469 401 443 b 525 368 499 443 525 411 b 443 293 525 326 500 293 b 389 232 404 293 389 274 l 389 -94 b 194 -279 389 -229 307 -279 l 89 -279 "},"~":{"ha":853,"x_min":0,"x_max":0,"o":"m 121 268 b 54 353 76 268 54 299 b 253 556 54 457 132 556 b 575 464 363 556 517 464 b 654 496 610 464 633 482 b 732 540 678 517 699 540 b 799 457 775 540 799 514 b 589 253 799 353 718 253 b 278 344 492 253 331 344 b 197 313 242 344 218 329 b 121 268 174 292 153 268 "},"Á":{"ha":890,"x_min":0,"x_max":0,"o":"m 378 1051 b 276 1163 313 1051 276 1099 b 338 1250 276 1200 288 1229 l 539 1340 b 610 1357 561 1351 588 1357 b 713 1249 672 1357 713 1306 b 658 1161 713 1213 699 1179 l 474 1078 b 378 1051 413 1051 397 1051 m 121 -8 b -4 101 44 -8 -4 33 b 29 247 -4 151 14 207 l 257 854 b 447 1015 293 953 349 1015 b 635 854 540 1015 597 953 l 857 263 b 894 101 876 207 894 154 b 771 -8 894 33 847 -8 b 633 118 692 -8 656 40 l 613 182 l 276 182 l 261 124 b 121 -8 229 21 189 -8 m 538 426 l 453 729 l 450 729 l 354 426 "},"Ă":{"ha":890,"x_min":0,"x_max":0,"o":"m 453 1035 b 178 1275 303 1035 178 1139 b 269 1378 178 1332 206 1378 b 360 1286 313 1378 338 1346 b 453 1203 378 1235 399 1203 b 546 1286 506 1203 528 1235 b 636 1378 568 1347 593 1378 b 726 1275 699 1378 726 1332 b 453 1035 726 1139 601 1035 m 121 -8 b -4 101 44 -8 -4 33 b 29 247 -4 151 14 207 l 257 854 b 447 1015 293 953 349 1015 b 635 854 540 1015 597 953 l 857 263 b 894 101 876 207 894 154 b 771 -8 894 33 847 -8 b 633 118 692 -8 656 40 l 613 182 l 276 182 l 261 124 b 121 -8 229 21 189 -8 m 538 426 l 453 729 l 450 729 l 354 426 "},"Â":{"ha":890,"x_min":0,"x_max":0,"o":"m 231 1054 b 147 1151 189 1054 147 1096 b 232 1272 147 1221 176 1246 l 404 1351 b 450 1364 425 1360 446 1364 b 540 1332 465 1364 485 1357 l 682 1265 b 750 1151 719 1247 750 1224 b 668 1054 750 1096 711 1054 b 564 1088 639 1054 621 1061 l 450 1140 l 319 1081 b 231 1054 306 1074 267 1054 m 121 -8 b -4 101 44 -8 -4 33 b 29 247 -4 151 14 207 l 257 854 b 447 1015 293 953 349 1015 b 635 854 540 1015 597 953 l 857 263 b 894 101 876 207 894 154 b 771 -8 894 33 847 -8 b 633 118 692 -8 656 40 l 613 182 l 276 182 l 261 124 b 121 -8 229 21 189 -8 m 538 426 l 453 729 l 450 729 l 354 426 "},"Ä":{"ha":890,"x_min":0,"x_max":0,"o":"m 276 1096 b 157 1215 210 1096 157 1150 b 276 1336 157 1282 210 1336 b 397 1215 343 1336 397 1282 b 276 1096 397 1150 343 1096 m 622 1096 b 501 1215 556 1096 501 1150 b 622 1336 501 1282 556 1336 b 742 1215 688 1336 742 1282 b 622 1096 742 1150 688 1096 m 121 -8 b -4 101 44 -8 -4 33 b 29 247 -4 151 14 207 l 257 854 b 447 1015 293 953 349 1015 b 635 854 540 1015 597 953 l 857 263 b 894 101 876 207 894 154 b 771 -8 894 33 847 -8 b 633 118 692 -8 656 40 l 613 182 l 276 182 l 261 124 b 121 -8 229 21 189 -8 m 538 426 l 453 729 l 450 729 l 354 426 "},"À":{"ha":890,"x_min":0,"x_max":0,"o":"m 524 1051 b 429 1078 492 1051 476 1057 l 243 1161 b 186 1251 203 1179 186 1215 b 292 1357 186 1308 231 1357 b 363 1340 314 1357 340 1350 l 564 1250 b 629 1160 614 1228 629 1197 b 524 1051 629 1096 585 1051 m 121 -8 b -4 101 44 -8 -4 33 b 29 247 -4 151 14 207 l 257 854 b 447 1015 293 953 349 1015 b 635 854 540 1015 597 953 l 857 263 b 894 101 876 207 894 154 b 771 -8 894 33 847 -8 b 633 118 692 -8 656 40 l 613 182 l 276 182 l 261 124 b 121 -8 229 21 189 -8 m 538 426 l 453 729 l 450 729 l 354 426 "},"Ā":{"ha":890,"x_min":0,"x_max":0,"o":"m 265 1121 b 172 1218 213 1121 172 1158 b 265 1318 172 1279 213 1318 l 626 1318 b 717 1218 681 1318 717 1279 b 626 1121 717 1156 681 1121 l 265 1121 m 121 -8 b -4 101 44 -8 -4 33 b 29 247 -4 151 14 207 l 257 854 b 447 1015 293 953 349 1015 b 635 854 540 1015 597 953 l 857 263 b 894 101 876 207 894 154 b 771 -8 894 33 847 -8 b 633 118 692 -8 656 40 l 613 182 l 276 182 l 261 124 b 121 -8 229 21 189 -8 m 538 426 l 453 729 l 450 729 l 354 426 "},"Ą":{"ha":890,"x_min":0,"x_max":0,"o":"m 672 -328 b 535 -203 588 -328 535 -278 b 706 6 535 -128 606 -50 b 633 118 669 26 649 65 l 613 182 l 276 182 l 261 124 b 121 -8 229 21 189 -8 b -4 101 44 -8 -4 33 b 29 247 -4 151 14 207 l 257 854 b 447 1015 293 953 349 1015 b 635 854 540 1015 597 953 l 857 263 b 894 101 876 207 894 154 b 824 0 894 50 868 15 b 703 -161 749 -54 703 -115 b 746 -210 703 -192 719 -210 b 792 -200 768 -210 776 -200 b 831 -242 811 -200 831 -210 b 786 -303 831 -268 813 -287 b 672 -328 757 -318 717 -328 m 538 426 l 453 729 l 450 729 l 354 426 "},"Å":{"ha":890,"x_min":0,"x_max":0,"o":"m 449 1043 b 308 1183 374 1043 308 1101 b 449 1324 308 1263 374 1324 b 589 1183 525 1324 589 1265 b 449 1043 589 1107 525 1043 m 449 1124 b 508 1183 481 1124 508 1147 b 446 1243 508 1221 478 1243 b 389 1183 417 1243 389 1221 b 449 1124 389 1146 417 1124 m 121 -8 b -4 101 44 -8 -4 33 b 29 247 -4 151 14 207 l 257 854 b 447 1015 293 953 349 1015 b 635 854 540 1015 597 953 l 857 263 b 894 101 876 207 894 154 b 771 -8 894 33 847 -8 b 633 118 692 -8 656 40 l 613 182 l 276 182 l 261 124 b 121 -8 229 21 189 -8 m 538 426 l 453 729 l 450 729 l 354 426 "},"Ǻ":{"ha":890,"x_min":0,"x_max":0,"o":"m 364 1114 b 281 1188 311 1114 281 1143 b 325 1246 281 1215 299 1236 l 500 1313 b 542 1321 517 1318 528 1321 b 622 1247 593 1321 622 1292 b 569 1183 622 1221 610 1199 l 439 1135 b 364 1114 415 1125 389 1114 m 122 -8 b -4 101 47 -8 -4 33 b 29 247 -4 154 14 207 l 244 822 b 317 942 264 871 281 906 b 319 975 319 957 319 964 b 442 1097 319 1043 376 1097 b 564 975 510 1097 564 1043 b 567 949 564 965 564 958 b 649 818 604 913 633 861 l 851 275 b 894 101 879 200 894 151 b 767 -8 894 33 843 -8 b 633 118 693 -8 656 40 l 613 182 l 276 182 l 261 124 b 122 -8 229 21 189 -8 m 442 922 b 494 975 472 922 494 946 b 440 1026 494 1004 472 1026 b 392 975 414 1026 392 1004 b 442 922 392 949 413 922 m 538 426 l 453 729 l 450 729 l 354 426 "},"Ã":{"ha":890,"x_min":0,"x_max":0,"o":"m 214 1047 b 125 1151 168 1047 125 1082 b 292 1322 125 1242 199 1322 b 546 1249 403 1322 489 1249 b 683 1322 610 1249 624 1322 b 774 1221 739 1322 774 1281 b 610 1047 774 1135 708 1047 b 354 1122 496 1047 410 1122 b 214 1047 292 1122 274 1047 m 121 -8 b -4 101 44 -8 -4 33 b 29 247 -4 151 14 207 l 257 854 b 447 1015 293 953 349 1015 b 635 854 540 1015 597 953 l 857 263 b 894 101 876 207 894 154 b 771 -8 894 33 847 -8 b 633 118 692 -8 656 40 l 613 182 l 276 182 l 261 124 b 121 -8 229 21 189 -8 m 538 426 l 453 729 l 450 729 l 354 426 "},"Æ":{"ha":1242,"x_min":0,"x_max":0,"o":"m 114 -8 b -4 117 46 -8 -4 29 b 31 232 -4 168 24 224 l 432 878 b 654 989 482 961 511 989 l 1099 989 b 1224 867 1176 989 1224 940 b 1099 746 1224 789 1172 746 l 879 746 l 879 621 l 1076 621 b 1203 499 1150 621 1203 575 b 1076 376 1203 422 1150 376 l 879 376 l 879 243 l 1107 243 b 1233 122 1181 243 1233 200 b 1107 0 1233 49 1181 0 l 744 0 b 617 135 678 0 617 49 l 617 181 l 303 181 l 256 88 b 114 -8 224 25 182 -8 m 608 426 l 617 750 l 611 750 l 436 426 "},"Ǽ":{"ha":1242,"x_min":0,"x_max":0,"o":"m 643 1051 b 542 1163 578 1051 542 1099 b 603 1250 542 1200 553 1229 l 804 1340 b 875 1357 826 1351 853 1357 b 978 1249 938 1357 978 1306 b 924 1161 978 1213 964 1179 l 739 1078 b 643 1051 678 1051 663 1051 m 114 -8 b -4 117 46 -8 -4 29 b 31 232 -4 168 24 224 l 432 878 b 654 989 482 961 511 989 l 1099 989 b 1224 867 1176 989 1224 940 b 1099 746 1224 789 1172 746 l 879 746 l 879 621 l 1076 621 b 1203 499 1150 621 1203 575 b 1076 376 1203 422 1150 376 l 879 376 l 879 243 l 1107 243 b 1233 122 1181 243 1233 200 b 1107 0 1233 49 1181 0 l 744 0 b 617 135 678 0 617 49 l 617 181 l 303 181 l 256 88 b 114 -8 224 25 182 -8 m 608 426 l 617 750 l 611 750 l 436 426 "},"Ć":{"ha":838,"x_min":0,"x_max":0,"o":"m 443 1051 b 342 1163 378 1051 342 1099 b 403 1250 342 1200 353 1229 l 604 1340 b 675 1357 626 1351 653 1357 b 778 1249 738 1357 778 1306 b 724 1161 778 1213 764 1179 l 539 1078 b 443 1051 478 1051 463 1051 m 518 -26 b 26 492 218 -26 26 197 b 536 1015 26 804 229 1015 b 746 978 622 1015 694 1003 b 833 850 801 950 833 908 b 719 726 833 785 786 726 b 657 738 701 726 679 729 b 543 761 621 750 582 761 b 308 499 389 761 308 654 b 514 239 308 347 389 239 b 651 261 588 239 625 257 b 719 275 674 267 694 275 b 838 154 797 275 838 225 b 743 17 838 92 801 46 b 518 -26 686 -12 601 -26 "},"Č":{"ha":838,"x_min":0,"x_max":0,"o":"m 519 1054 b 474 1067 515 1054 494 1058 l 301 1146 b 217 1267 246 1172 217 1197 b 300 1364 217 1322 258 1364 b 389 1338 336 1364 375 1344 l 519 1278 l 633 1331 b 738 1364 690 1358 708 1364 b 819 1267 781 1364 819 1322 b 751 1154 819 1194 789 1171 l 610 1088 b 519 1054 554 1061 535 1054 m 518 -26 b 26 492 218 -26 26 197 b 536 1015 26 804 229 1015 b 746 978 622 1015 694 1003 b 833 850 801 950 833 908 b 719 726 833 785 786 726 b 657 738 701 726 679 729 b 543 761 621 750 582 761 b 308 499 389 761 308 654 b 514 239 308 347 389 239 b 651 261 588 239 625 257 b 719 275 674 267 694 275 b 838 154 797 275 838 225 b 743 17 838 92 801 46 b 518 -26 686 -12 601 -26 "},"Ç":{"ha":838,"x_min":0,"x_max":0,"o":"m 421 -328 b 276 -256 335 -328 276 -301 b 317 -206 276 -235 290 -206 b 392 -228 344 -206 361 -228 b 439 -183 421 -228 439 -211 b 389 -142 439 -162 425 -142 l 371 -142 b 335 -111 356 -142 335 -137 b 374 -43 335 -89 351 -69 l 399 -14 b 26 492 168 38 26 239 b 536 1015 26 804 229 1015 b 746 978 622 1015 694 1003 b 833 850 801 950 833 908 b 719 726 833 785 786 726 b 657 738 701 726 679 729 b 543 761 621 750 582 761 b 308 499 389 761 308 654 b 514 239 308 347 389 239 b 651 261 588 239 625 257 b 719 275 674 267 694 275 b 838 154 797 275 838 225 b 743 17 838 92 801 46 b 518 -26 686 -12 601 -26 l 497 -26 l 457 -78 l 458 -79 b 492 -75 469 -76 481 -75 b 608 -181 557 -75 608 -111 b 421 -328 608 -296 490 -328 "},"Ĉ":{"ha":838,"x_min":0,"x_max":0,"o":"m 300 1054 b 217 1151 258 1054 217 1096 b 301 1272 217 1221 246 1246 l 474 1351 b 519 1364 494 1360 515 1364 b 610 1332 535 1364 554 1357 l 751 1265 b 819 1151 789 1247 819 1224 b 738 1054 819 1096 781 1054 b 633 1088 708 1054 690 1061 l 519 1140 l 389 1081 b 300 1054 375 1074 336 1054 m 518 -26 b 26 492 218 -26 26 197 b 536 1015 26 804 229 1015 b 746 978 622 1015 694 1003 b 833 850 801 950 833 908 b 719 726 833 785 786 726 b 657 738 701 726 679 729 b 543 761 621 750 582 761 b 308 499 389 761 308 654 b 514 239 308 347 389 239 b 651 261 588 239 625 257 b 719 275 674 267 694 275 b 838 154 797 275 838 225 b 743 17 838 92 801 46 b 518 -26 686 -12 601 -26 "},"Ċ":{"ha":838,"x_min":0,"x_max":0,"o":"m 511 1096 b 390 1215 444 1096 390 1150 b 511 1336 390 1282 444 1336 b 632 1215 578 1336 632 1282 b 511 1096 632 1150 578 1096 m 518 -26 b 26 492 218 -26 26 197 b 536 1015 26 804 229 1015 b 746 978 622 1015 694 1003 b 833 850 801 950 833 908 b 719 726 833 785 786 726 b 657 738 701 726 679 729 b 543 761 621 750 582 761 b 308 499 389 761 308 654 b 514 239 308 347 389 239 b 651 261 588 239 625 257 b 719 275 674 267 694 275 b 838 154 797 275 838 225 b 743 17 838 92 801 46 b 518 -26 686 -12 601 -26 "},"Ð":{"ha":964,"x_min":0,"x_max":0,"o":"m 186 0 b 61 128 121 0 61 56 l 61 401 l 47 401 b -74 503 -25 401 -74 418 b 47 603 -74 571 -44 603 l 61 603 l 61 861 b 186 989 61 932 121 989 l 471 989 b 938 507 733 989 938 788 b 474 0 938 171 708 0 l 186 0 m 426 243 b 657 500 565 243 657 338 b 438 746 657 661 567 746 l 324 746 l 324 603 l 418 603 b 511 503 474 603 511 565 b 418 401 511 439 474 401 l 324 401 l 324 243 "},"Ď":{"ha":954,"x_min":0,"x_max":0,"o":"m 404 1054 b 358 1067 400 1054 379 1058 l 186 1146 b 101 1267 131 1172 101 1197 b 185 1364 101 1322 143 1364 b 274 1338 221 1364 260 1344 l 404 1278 l 518 1331 b 622 1364 575 1358 593 1364 b 704 1267 665 1364 704 1322 b 636 1154 704 1194 674 1171 l 494 1088 b 404 1054 439 1061 419 1054 m 176 0 b 51 128 111 0 51 56 l 51 861 b 176 989 51 932 111 989 l 461 989 b 928 507 724 989 928 788 b 464 0 928 171 699 0 l 176 0 m 417 243 b 647 500 556 243 647 338 b 428 746 647 661 557 746 l 314 746 l 314 243 "},"Đ":{"ha":964,"x_min":0,"x_max":0,"o":"m 186 0 b 61 128 121 0 61 56 l 61 401 l 47 401 b -74 503 -25 401 -74 418 b 47 603 -74 571 -44 603 l 61 603 l 61 861 b 186 989 61 932 121 989 l 471 989 b 938 507 733 989 938 788 b 474 0 938 171 708 0 l 186 0 m 426 243 b 657 500 565 243 657 338 b 438 746 657 661 567 746 l 324 746 l 324 603 l 418 603 b 511 503 474 603 511 565 b 418 401 511 439 474 401 l 324 401 l 324 243 "},"É":{"ha":674,"x_min":0,"x_max":0,"o":"m 263 1051 b 161 1163 197 1051 161 1099 b 222 1250 161 1200 172 1229 l 424 1340 b 494 1357 446 1351 472 1357 b 597 1249 557 1357 597 1306 b 543 1161 597 1213 583 1179 l 358 1078 b 263 1051 297 1051 282 1051 m 176 0 b 51 128 111 0 51 56 l 51 861 b 176 989 51 932 111 989 l 533 989 b 658 867 606 989 658 940 b 533 746 658 789 606 746 l 313 746 l 313 621 l 513 621 b 638 499 586 621 638 575 b 513 376 638 422 589 376 l 314 376 l 314 243 l 539 243 b 665 122 615 243 665 200 b 540 0 665 49 614 0 l 176 0 "},"Ĕ":{"ha":674,"x_min":0,"x_max":0,"o":"m 350 1035 b 75 1275 200 1035 75 1139 b 167 1378 75 1332 103 1378 b 257 1286 210 1378 235 1346 b 350 1203 275 1235 296 1203 b 443 1286 403 1203 425 1235 b 533 1378 465 1347 490 1378 b 624 1275 596 1378 624 1332 b 350 1035 624 1139 499 1035 m 176 0 b 51 128 111 0 51 56 l 51 861 b 176 989 51 932 111 989 l 533 989 b 658 867 606 989 658 940 b 533 746 658 789 606 746 l 313 746 l 313 621 l 513 621 b 638 499 586 621 638 575 b 513 376 638 422 589 376 l 314 376 l 314 243 l 539 243 b 665 122 615 243 665 200 b 540 0 665 49 614 0 l 176 0 "},"Ě":{"ha":674,"x_min":0,"x_max":0,"o":"m 351 1054 b 306 1067 347 1054 326 1058 l 133 1146 b 49 1267 78 1172 49 1197 b 132 1364 49 1322 90 1364 b 221 1338 168 1364 207 1344 l 351 1278 l 465 1331 b 569 1364 522 1358 540 1364 b 651 1267 613 1364 651 1322 b 583 1154 651 1194 621 1171 l 442 1088 b 351 1054 386 1061 367 1054 m 176 0 b 51 128 111 0 51 56 l 51 861 b 176 989 51 932 111 989 l 533 989 b 658 867 606 989 658 940 b 533 746 658 789 606 746 l 313 746 l 313 621 l 513 621 b 638 499 586 621 638 575 b 513 376 638 422 589 376 l 314 376 l 314 243 l 539 243 b 665 122 615 243 665 200 b 540 0 665 49 614 0 l 176 0 "},"Ê":{"ha":674,"x_min":0,"x_max":0,"o":"m 124 1054 b 40 1151 82 1054 40 1096 b 125 1272 40 1221 69 1246 l 297 1351 b 343 1364 318 1360 339 1364 b 433 1332 358 1364 378 1357 l 575 1265 b 643 1151 613 1247 643 1224 b 561 1054 643 1096 604 1054 b 457 1088 532 1054 514 1061 l 343 1140 l 213 1081 b 124 1054 199 1074 160 1054 m 176 0 b 51 128 111 0 51 56 l 51 861 b 176 989 51 932 111 989 l 533 989 b 658 867 606 989 658 940 b 533 746 658 789 606 746 l 313 746 l 313 621 l 513 621 b 638 499 586 621 638 575 b 513 376 638 422 589 376 l 314 376 l 314 243 l 539 243 b 665 122 615 243 665 200 b 540 0 665 49 614 0 l 176 0 "},"Ë":{"ha":674,"x_min":0,"x_max":0,"o":"m 172 1096 b 53 1215 106 1096 53 1150 b 172 1336 53 1282 106 1336 b 293 1215 239 1336 293 1282 b 172 1096 293 1150 239 1096 m 518 1096 b 397 1215 451 1096 397 1150 b 518 1336 397 1282 451 1336 b 638 1215 583 1336 638 1282 b 518 1096 638 1150 583 1096 m 176 0 b 51 128 111 0 51 56 l 51 861 b 176 989 51 932 111 989 l 533 989 b 658 867 606 989 658 940 b 533 746 658 789 606 746 l 313 746 l 313 621 l 513 621 b 638 499 586 621 638 575 b 513 376 638 422 589 376 l 314 376 l 314 243 l 539 243 b 665 122 615 243 665 200 b 540 0 665 49 614 0 l 176 0 "},"Ė":{"ha":674,"x_min":0,"x_max":0,"o":"m 346 1096 b 225 1215 279 1096 225 1150 b 346 1336 225 1282 279 1336 b 467 1215 413 1336 467 1282 b 346 1096 467 1150 413 1096 m 176 0 b 51 128 111 0 51 56 l 51 861 b 176 989 51 932 111 989 l 533 989 b 658 867 606 989 658 940 b 533 746 658 789 606 746 l 313 746 l 313 621 l 513 621 b 638 499 586 621 638 575 b 513 376 638 422 589 376 l 314 376 l 314 243 l 539 243 b 665 122 615 243 665 200 b 540 0 665 49 614 0 l 176 0 "},"È":{"ha":674,"x_min":0,"x_max":0,"o":"m 408 1051 b 314 1078 376 1051 361 1057 l 128 1161 b 71 1251 88 1179 71 1215 b 176 1357 71 1308 115 1357 b 247 1340 199 1357 225 1350 l 449 1250 b 514 1160 499 1228 514 1197 b 408 1051 514 1096 469 1051 m 176 0 b 51 128 111 0 51 56 l 51 861 b 176 989 51 932 111 989 l 533 989 b 658 867 606 989 658 940 b 533 746 658 789 606 746 l 313 746 l 313 621 l 513 621 b 638 499 586 621 638 575 b 513 376 638 422 589 376 l 314 376 l 314 243 l 539 243 b 665 122 615 243 665 200 b 540 0 665 49 614 0 l 176 0 "},"Ē":{"ha":674,"x_min":0,"x_max":0,"o":"m 168 1121 b 75 1218 115 1121 75 1158 b 168 1318 75 1279 115 1318 l 529 1318 b 619 1218 583 1318 619 1279 b 529 1121 619 1156 583 1121 l 168 1121 m 176 0 b 51 128 111 0 51 56 l 51 861 b 176 989 51 932 111 989 l 533 989 b 658 867 606 989 658 940 b 533 746 658 789 606 746 l 313 746 l 313 621 l 513 621 b 638 499 586 621 638 575 b 513 376 638 422 589 376 l 314 376 l 314 243 l 539 243 b 665 122 615 243 665 200 b 540 0 665 49 614 0 l 176 0 "},"Ę":{"ha":674,"x_min":0,"x_max":0,"o":"m 379 -328 b 240 -203 294 -328 240 -278 b 401 0 240 -131 306 -56 l 176 0 b 51 128 111 0 51 56 l 51 861 b 176 989 51 932 111 989 l 533 989 b 658 867 606 989 658 940 b 533 746 658 789 606 746 l 313 746 l 313 621 l 513 621 b 638 499 586 621 638 575 b 513 376 638 422 588 376 l 314 376 l 314 243 l 539 243 b 665 122 615 243 665 200 b 540 0 665 49 614 0 l 531 0 b 410 -161 456 -53 410 -115 b 453 -210 410 -192 426 -210 b 499 -200 475 -210 483 -200 b 538 -242 518 -200 538 -210 b 492 -303 538 -268 519 -287 b 379 -328 463 -318 422 -328 "},"Ğ":{"ha":1026,"x_min":0,"x_max":0,"o":"m 514 1035 b 239 1275 364 1035 239 1139 b 331 1378 239 1332 267 1378 b 421 1286 374 1378 399 1346 b 514 1203 439 1235 460 1203 b 607 1286 567 1203 589 1235 b 697 1378 629 1347 654 1378 b 788 1275 760 1378 788 1332 b 514 1035 788 1139 663 1035 m 539 -26 b 26 485 192 -26 26 232 b 531 1015 26 799 242 1015 b 831 939 647 1015 757 989 b 926 779 890 900 926 846 b 811 672 926 718 883 672 b 718 707 775 672 747 689 b 540 772 689 724 640 772 b 308 494 410 772 308 660 b 533 217 308 335 393 217 b 719 351 628 217 706 272 l 601 351 b 475 472 522 351 475 397 b 600 596 475 551 522 596 l 865 596 b 992 439 942 596 992 549 b 539 -26 992 178 790 -26 "},"Ĝ":{"ha":1026,"x_min":0,"x_max":0,"o":"m 282 1054 b 199 1151 240 1054 199 1096 b 283 1272 199 1221 228 1246 l 456 1351 b 501 1364 476 1360 497 1364 b 592 1332 517 1364 536 1357 l 733 1265 b 801 1151 771 1247 801 1224 b 719 1054 801 1096 763 1054 b 615 1088 690 1054 672 1061 l 501 1140 l 371 1081 b 282 1054 357 1074 318 1054 m 539 -26 b 26 485 192 -26 26 232 b 531 1015 26 799 242 1015 b 831 939 647 1015 757 989 b 926 779 890 900 926 846 b 811 672 926 718 883 672 b 718 707 775 672 747 689 b 540 772 689 724 640 772 b 308 494 410 772 308 660 b 533 217 308 335 393 217 b 719 351 628 217 706 272 l 601 351 b 475 472 522 351 475 397 b 600 596 475 551 522 596 l 865 596 b 992 439 942 596 992 549 b 539 -26 992 178 790 -26 "},"Ģ":{"ha":1026,"x_min":0,"x_max":0,"o":"m 539 -26 b 26 485 192 -26 26 232 b 531 1015 26 799 242 1015 b 831 939 647 1015 757 989 b 926 779 890 900 926 846 b 811 672 926 718 883 672 b 718 707 775 672 747 689 b 540 772 689 724 640 772 b 308 494 410 772 308 660 b 533 217 308 335 393 217 b 719 351 628 217 706 272 l 601 351 b 475 472 522 351 475 397 b 600 596 475 551 522 596 l 865 596 b 992 439 942 596 992 549 b 539 -26 992 178 790 -26 m 438 -328 b 354 -261 385 -328 354 -306 b 367 -208 354 -250 357 -228 l 419 -104 b 518 -37 436 -71 463 -37 b 628 -126 588 -37 628 -75 b 614 -174 628 -146 624 -158 l 547 -272 b 438 -328 515 -318 483 -328 "},"Ġ":{"ha":1026,"x_min":0,"x_max":0,"o":"m 514 1096 b 393 1215 447 1096 393 1150 b 514 1336 393 1282 447 1336 b 635 1215 581 1336 635 1282 b 514 1096 635 1150 581 1096 m 539 -26 b 26 485 192 -26 26 232 b 531 1015 26 799 242 1015 b 831 939 647 1015 757 989 b 926 779 890 900 926 846 b 811 672 926 718 883 672 b 718 707 775 672 747 689 b 540 772 689 724 640 772 b 308 494 410 772 308 660 b 533 217 308 335 393 217 b 719 351 628 217 706 272 l 601 351 b 475 472 522 351 475 397 b 600 596 475 551 522 596 l 865 596 b 992 439 942 596 992 549 b 539 -26 992 178 790 -26 "},"Ħ":{"ha":1010,"x_min":0,"x_max":0,"o":"m 183 -8 b 51 124 106 -8 51 40 l 51 865 b 183 997 51 949 106 997 b 314 869 258 997 314 953 l 314 858 l 696 858 l 696 869 b 828 997 696 951 753 997 b 958 865 904 997 958 949 l 958 124 b 828 -8 958 40 904 -8 b 696 124 750 -8 696 40 l 696 385 l 314 385 l 314 124 b 183 -8 314 40 260 -8 m 696 629 l 696 689 l 314 689 l 314 629 "},"Ĥ":{"ha":1010,"x_min":0,"x_max":0,"o":"m 294 1054 b 211 1151 253 1054 211 1096 b 296 1272 211 1221 240 1246 l 468 1351 b 514 1364 489 1360 510 1364 b 604 1332 529 1364 549 1357 l 746 1265 b 814 1151 783 1247 814 1224 b 732 1054 814 1096 775 1054 b 628 1088 703 1054 685 1061 l 514 1140 l 383 1081 b 294 1054 369 1074 331 1054 m 183 -8 b 51 124 106 -8 51 40 l 51 865 b 183 997 51 949 106 997 b 314 865 260 997 314 949 l 314 629 l 696 629 l 696 865 b 828 997 696 949 750 997 b 958 865 904 997 958 949 l 958 124 b 828 -8 958 40 904 -8 b 696 124 750 -8 696 40 l 696 385 l 314 385 l 314 124 b 183 -8 314 40 260 -8 "},"Ĳ":{"ha":989,"x_min":0,"x_max":0,"o":"m 183 -8 b 51 124 106 -8 51 40 l 51 865 b 183 997 51 949 106 997 b 314 865 260 997 314 949 l 314 124 b 183 -8 314 40 260 -8 m 614 -26 b 351 150 503 -19 351 10 b 467 281 351 226 389 281 b 608 231 524 281 560 231 b 675 372 663 231 675 274 l 675 865 b 806 997 675 949 731 997 b 938 865 883 997 938 949 l 938 319 b 614 -26 938 82 835 -26 "},"Í":{"ha":365,"x_min":0,"x_max":0,"o":"m 111 1051 b 10 1163 46 1051 10 1099 b 71 1250 10 1200 21 1229 l 272 1340 b 343 1357 294 1351 321 1357 b 446 1249 406 1357 446 1306 b 392 1161 446 1213 432 1179 l 207 1078 b 111 1051 146 1051 131 1051 m 183 -8 b 51 124 106 -8 51 40 l 51 865 b 183 997 51 949 106 997 b 314 865 260 997 314 949 l 314 124 b 183 -8 314 40 260 -8 "},"Ĭ":{"ha":365,"x_min":0,"x_max":0,"o":"m 186 1035 b -89 1275 36 1035 -89 1139 b 3 1378 -89 1332 -61 1378 b 93 1286 46 1378 71 1346 b 186 1203 111 1235 132 1203 b 279 1286 239 1203 261 1235 b 369 1378 301 1347 326 1378 b 460 1275 432 1378 460 1332 b 186 1035 460 1139 335 1035 m 183 -8 b 51 124 106 -8 51 40 l 51 865 b 183 997 51 949 106 997 b 314 865 260 997 314 949 l 314 124 b 183 -8 314 40 260 -8 "},"Î":{"ha":365,"x_min":0,"x_max":0,"o":"m -33 1054 b -117 1151 -75 1054 -117 1096 b -32 1272 -117 1221 -87 1246 l 140 1351 b 186 1364 161 1360 182 1364 b 276 1332 201 1364 221 1357 l 418 1265 b 486 1151 456 1247 486 1224 b 404 1054 486 1096 447 1054 b 300 1088 375 1054 357 1061 l 186 1140 l 56 1081 b -33 1054 42 1074 3 1054 m 183 -8 b 51 124 106 -8 51 40 l 51 865 b 183 997 51 949 106 997 b 314 865 260 997 314 949 l 314 124 b 183 -8 314 40 260 -8 "},"Ï":{"ha":365,"x_min":0,"x_max":0,"o":"m 15 1096 b -104 1215 -51 1096 -104 1150 b 15 1336 -104 1282 -51 1336 b 136 1215 82 1336 136 1282 b 15 1096 136 1150 82 1096 m 361 1096 b 240 1215 294 1096 240 1150 b 361 1336 240 1282 294 1336 b 481 1215 426 1336 481 1282 b 361 1096 481 1150 426 1096 m 183 -8 b 51 124 106 -8 51 40 l 51 865 b 183 997 51 949 106 997 b 314 865 260 997 314 949 l 314 124 b 183 -8 314 40 260 -8 "},"İ":{"ha":365,"x_min":0,"x_max":0,"o":"m 182 1096 b 61 1215 115 1096 61 1150 b 182 1336 61 1282 115 1336 b 303 1215 249 1336 303 1282 b 182 1096 303 1150 249 1096 m 183 -8 b 51 124 106 -8 51 40 l 51 865 b 183 997 51 949 106 997 b 314 865 260 997 314 949 l 314 124 b 183 -8 314 40 260 -8 "},"Ì":{"ha":365,"x_min":0,"x_max":0,"o":"m 257 1051 b 163 1078 225 1051 210 1057 l -24 1161 b -81 1251 -64 1179 -81 1215 b 25 1357 -81 1308 -36 1357 b 96 1340 47 1357 74 1350 l 297 1250 b 363 1160 347 1228 363 1197 b 257 1051 363 1096 318 1051 m 183 -8 b 51 124 106 -8 51 40 l 51 865 b 183 997 51 949 106 997 b 314 865 260 997 314 949 l 314 124 b 183 -8 314 40 260 -8 "},"Ī":{"ha":365,"x_min":0,"x_max":0,"o":"m 8 1121 b -85 1218 -44 1121 -85 1158 b 8 1318 -85 1279 -44 1318 l 369 1318 b 460 1218 424 1318 460 1279 b 369 1121 460 1156 424 1121 l 8 1121 m 183 -8 b 51 124 106 -8 51 40 l 51 865 b 183 997 51 949 106 997 b 314 865 260 997 314 949 l 314 124 b 183 -8 314 40 260 -8 "},"Į":{"ha":364,"x_min":0,"x_max":0,"o":"m 82 -328 b -57 -203 -3 -328 -57 -278 b 114 6 -57 -128 14 -50 b 50 124 74 26 50 67 l 50 865 b 182 997 50 949 104 997 b 313 865 258 997 313 949 l 313 124 b 235 0 313 61 282 18 b 113 -161 158 -53 113 -114 b 156 -210 113 -192 129 -210 b 201 -200 178 -210 186 -200 b 240 -242 221 -200 240 -210 b 194 -303 240 -268 222 -289 b 82 -328 165 -318 125 -328 "},"Ĩ":{"ha":365,"x_min":0,"x_max":0,"o":"m -46 1047 b -135 1151 -92 1047 -135 1082 b 32 1322 -135 1242 -61 1322 b 286 1249 143 1322 229 1249 b 424 1322 350 1249 364 1322 b 514 1221 479 1322 514 1281 b 350 1047 514 1135 449 1047 b 94 1122 236 1047 150 1122 b -46 1047 32 1122 14 1047 m 183 -8 b 51 124 106 -8 51 40 l 51 865 b 183 997 51 949 106 997 b 314 865 260 997 314 949 l 314 124 b 183 -8 314 40 260 -8 "},"Ĵ":{"ha":624,"x_min":0,"x_max":0,"o":"m 221 1054 b 138 1151 179 1054 138 1096 b 222 1272 138 1221 167 1246 l 394 1351 b 440 1364 415 1360 436 1364 b 531 1332 456 1364 475 1357 l 672 1265 b 740 1151 710 1247 740 1224 b 658 1054 740 1096 701 1054 b 554 1088 629 1054 611 1061 l 440 1140 l 310 1081 b 221 1054 296 1074 257 1054 m 249 -26 b -14 150 138 -19 -14 10 b 101 281 -14 226 24 281 b 243 231 158 281 194 231 b 310 372 297 231 310 274 l 310 865 b 440 997 310 949 365 997 b 572 865 518 997 572 949 l 572 319 b 249 -26 572 82 469 -26 "},"Ķ":{"ha":844,"x_min":0,"x_max":0,"o":"m 183 -8 b 51 124 106 -8 51 40 l 51 865 b 183 997 51 949 106 997 b 314 865 260 997 314 949 l 314 614 l 585 933 b 703 997 632 986 656 997 b 828 875 763 997 828 942 b 781 771 828 838 813 806 l 554 525 l 835 207 b 874 118 860 179 874 149 b 746 -8 874 40 821 -8 b 579 106 701 -8 664 1 l 314 426 l 314 124 b 183 -8 314 40 260 -8 m 356 -328 b 272 -261 303 -328 272 -306 b 285 -208 272 -250 275 -228 l 338 -104 b 436 -37 354 -71 381 -37 b 546 -126 506 -37 546 -75 b 532 -174 546 -146 542 -158 l 465 -272 b 356 -328 433 -318 401 -328 "},"Ĺ":{"ha":667,"x_min":0,"x_max":0,"o":"m 131 1051 b 29 1163 65 1051 29 1099 b 90 1250 29 1200 40 1229 l 292 1340 b 363 1357 314 1351 340 1357 b 465 1249 425 1357 465 1306 b 411 1161 465 1213 451 1179 l 226 1078 b 131 1051 165 1051 150 1051 m 179 0 b 51 129 110 0 51 56 l 51 865 b 183 997 51 949 106 997 b 314 865 260 997 314 949 l 314 243 l 551 243 b 681 122 629 243 681 200 b 554 0 681 49 628 0 l 179 0 "},"Ľ":{"ha":667,"x_min":0,"x_max":0,"o":"m 463 810 b 363 890 397 810 363 844 b 374 965 363 925 371 956 l 399 1056 b 490 1129 415 1117 460 1129 b 601 1036 556 1129 601 1094 b 590 988 601 1024 599 1011 l 543 865 b 463 810 538 851 519 810 m 179 0 b 51 129 110 0 51 56 l 51 865 b 183 997 51 949 106 997 b 314 865 260 997 314 949 l 314 243 l 551 243 b 681 122 629 243 681 200 b 554 0 681 49 628 0 l 179 0 "},"Ļ":{"ha":667,"x_min":0,"x_max":0,"o":"m 179 0 b 51 129 110 0 51 56 l 51 865 b 183 997 51 949 106 997 b 314 865 260 997 314 949 l 314 243 l 551 243 b 681 122 629 243 681 200 b 554 0 681 49 628 0 l 179 0 m 267 -328 b 183 -261 214 -328 183 -306 b 196 -208 183 -250 186 -228 l 249 -104 b 347 -37 265 -71 292 -37 b 457 -126 417 -37 457 -75 b 443 -174 457 -146 453 -158 l 376 -272 b 267 -328 344 -318 313 -328 "},"Ŀ":{"ha":669,"x_min":0,"x_max":0,"o":"m 179 0 b 51 129 110 0 51 56 l 51 865 b 183 997 51 949 106 997 b 314 865 260 997 314 949 l 314 243 l 551 243 b 681 122 629 243 681 200 b 554 0 681 49 628 0 l 179 0 m 524 413 b 403 532 457 413 403 467 b 524 653 403 599 457 653 b 644 532 590 653 644 599 b 524 413 644 467 590 413 "},"Ł":{"ha":669,"x_min":0,"x_max":0,"o":"m 182 0 b 54 126 113 0 54 56 l 54 293 b -17 261 36 278 13 261 b -78 342 -54 261 -78 293 b -10 439 -78 381 -62 397 l 54 489 l 54 865 b 186 997 54 949 108 997 b 317 865 263 997 317 949 l 317 685 l 439 778 b 510 810 458 792 481 810 b 574 728 547 810 574 776 b 506 631 574 689 558 671 l 317 486 l 317 243 l 554 243 b 683 122 632 243 683 200 b 557 0 683 49 631 0 l 182 0 "},"Ń":{"ha":1010,"x_min":0,"x_max":0,"o":"m 433 1051 b 332 1163 368 1051 332 1099 b 393 1250 332 1200 343 1229 l 594 1340 b 665 1357 617 1351 643 1357 b 768 1249 728 1357 768 1306 b 714 1161 768 1213 754 1179 l 529 1078 b 433 1051 468 1051 453 1051 m 183 -8 b 51 124 106 -8 51 40 l 51 864 b 175 997 51 946 94 997 b 308 922 233 997 267 976 l 693 475 l 696 475 l 696 865 b 828 997 696 949 751 997 b 958 865 906 997 958 949 l 958 125 b 832 -8 958 40 907 -8 b 689 79 774 -8 739 17 l 317 511 l 314 511 l 314 124 b 183 -8 314 40 260 -8 "},"Ň":{"ha":1010,"x_min":0,"x_max":0,"o":"m 513 1054 b 467 1067 508 1054 488 1058 l 294 1146 b 210 1267 239 1172 210 1197 b 293 1364 210 1322 251 1364 b 382 1338 329 1364 368 1344 l 513 1278 l 626 1331 b 731 1364 683 1358 701 1364 b 813 1267 774 1364 813 1322 b 744 1154 813 1194 782 1171 l 603 1088 b 513 1054 547 1061 528 1054 m 183 -8 b 51 124 106 -8 51 40 l 51 864 b 175 997 51 946 94 997 b 308 922 233 997 267 976 l 693 475 l 696 475 l 696 865 b 828 997 696 949 751 997 b 958 865 906 997 958 949 l 958 125 b 832 -8 958 40 907 -8 b 689 79 774 -8 739 17 l 317 511 l 314 511 l 314 124 b 183 -8 314 40 260 -8 "},"Ņ":{"ha":1010,"x_min":0,"x_max":0,"o":"m 183 -8 b 51 124 106 -8 51 40 l 51 864 b 175 997 51 946 94 997 b 308 922 233 997 267 976 l 693 475 l 696 475 l 696 865 b 828 997 696 949 751 997 b 958 865 906 997 958 949 l 958 125 b 832 -8 958 40 907 -8 b 689 79 774 -8 739 17 l 317 511 l 314 511 l 314 124 b 183 -8 314 40 260 -8 m 461 -328 b 378 -261 408 -328 378 -306 b 390 -208 378 -250 381 -228 l 443 -104 b 542 -37 460 -71 486 -37 b 651 -126 611 -37 651 -75 b 638 -174 651 -146 647 -158 l 571 -272 b 461 -328 539 -318 507 -328 "},"Ŋ":{"ha":978,"x_min":0,"x_max":0,"o":"m 635 -304 b 363 -131 494 -304 363 -250 b 451 -31 363 -86 394 -31 b 622 -79 511 -31 554 -79 b 686 3 667 -79 686 -50 l 686 67 l 294 560 l 292 560 l 292 110 b 172 -8 292 39 243 -8 b 51 110 103 -8 51 40 l 51 878 b 169 997 51 947 99 997 b 271 946 193 997 236 990 l 681 418 l 683 418 l 683 879 b 804 997 683 949 735 997 b 926 879 876 997 926 943 l 926 3 b 635 -304 926 -201 821 -304 "},"Ñ":{"ha":1010,"x_min":0,"x_max":0,"o":"m 283 1047 b 194 1151 238 1047 194 1082 b 361 1322 194 1242 268 1322 b 615 1249 472 1322 558 1249 b 753 1322 679 1249 693 1322 b 843 1221 808 1322 843 1281 b 679 1047 843 1135 778 1047 b 424 1122 565 1047 479 1122 b 283 1047 361 1122 343 1047 m 183 -8 b 51 124 106 -8 51 40 l 51 864 b 175 997 51 946 94 997 b 308 922 233 997 267 976 l 693 475 l 696 475 l 696 865 b 828 997 696 949 751 997 b 958 865 906 997 958 949 l 958 125 b 832 -8 958 40 907 -8 b 689 79 774 -8 739 17 l 317 511 l 314 511 l 314 124 b 183 -8 314 40 260 -8 "},"Ó":{"ha":1065,"x_min":0,"x_max":0,"o":"m 464 1051 b 363 1163 399 1051 363 1099 b 424 1250 363 1200 374 1229 l 625 1340 b 696 1357 647 1351 674 1357 b 799 1249 758 1357 799 1306 b 744 1161 799 1213 785 1179 l 560 1078 b 464 1051 499 1051 483 1051 m 533 -26 b 26 496 231 -26 26 172 b 533 1015 26 817 228 1015 b 1039 494 833 1015 1039 821 b 533 -26 1039 178 843 -26 m 532 217 b 757 496 676 217 757 331 b 532 772 757 656 678 772 b 308 494 394 772 308 660 b 532 217 308 321 401 217 "},"Ŏ":{"ha":1065,"x_min":0,"x_max":0,"o":"m 536 1035 b 261 1275 386 1035 261 1139 b 353 1378 261 1332 289 1378 b 443 1286 396 1378 421 1346 b 536 1203 461 1235 482 1203 b 629 1286 589 1203 611 1235 b 719 1378 651 1347 676 1378 b 810 1275 782 1378 810 1332 b 536 1035 810 1139 685 1035 m 533 -26 b 26 496 231 -26 26 172 b 533 1015 26 817 228 1015 b 1039 494 833 1015 1039 821 b 533 -26 1039 178 843 -26 m 532 217 b 757 496 676 217 757 331 b 532 772 757 656 678 772 b 308 494 394 772 308 660 b 532 217 308 321 401 217 "},"Ô":{"ha":1065,"x_min":0,"x_max":0,"o":"m 322 1054 b 239 1151 281 1054 239 1096 b 324 1272 239 1221 268 1246 l 496 1351 b 542 1364 517 1360 538 1364 b 632 1332 557 1364 576 1357 l 774 1265 b 842 1151 811 1247 842 1224 b 760 1054 842 1096 803 1054 b 656 1088 731 1054 713 1061 l 542 1140 l 411 1081 b 322 1054 397 1074 358 1054 m 533 -26 b 26 496 231 -26 26 172 b 533 1015 26 817 228 1015 b 1039 494 833 1015 1039 821 b 533 -26 1039 178 843 -26 m 532 217 b 757 496 676 217 757 331 b 532 772 757 656 678 772 b 308 494 394 772 308 660 b 532 217 308 321 401 217 "},"Ö":{"ha":1065,"x_min":0,"x_max":0,"o":"m 365 1096 b 246 1215 299 1096 246 1150 b 365 1336 246 1282 299 1336 b 486 1215 432 1336 486 1282 b 365 1096 486 1150 432 1096 m 711 1096 b 590 1215 644 1096 590 1150 b 711 1336 590 1282 644 1336 b 831 1215 776 1336 831 1282 b 711 1096 831 1150 776 1096 m 533 -26 b 26 496 231 -26 26 172 b 533 1015 26 817 228 1015 b 1039 494 833 1015 1039 821 b 533 -26 1039 178 843 -26 m 532 217 b 757 496 676 217 757 331 b 532 772 757 656 678 772 b 308 494 394 772 308 660 b 532 217 308 321 401 217 "},"Ò":{"ha":1065,"x_min":0,"x_max":0,"o":"m 610 1051 b 515 1078 578 1051 563 1057 l 329 1161 b 272 1251 289 1179 272 1215 b 378 1357 272 1308 317 1357 b 449 1340 400 1357 426 1350 l 650 1250 b 715 1160 700 1228 715 1197 b 610 1051 715 1096 671 1051 m 533 -26 b 26 496 231 -26 26 172 b 533 1015 26 817 228 1015 b 1039 494 833 1015 1039 821 b 533 -26 1039 178 843 -26 m 532 217 b 757 496 676 217 757 331 b 532 772 757 656 678 772 b 308 494 394 772 308 660 b 532 217 308 321 401 217 "},"Ő":{"ha":1065,"x_min":0,"x_max":0,"o":"m 275 1053 b 174 1164 210 1053 174 1100 b 235 1251 174 1201 185 1231 l 436 1342 b 506 1358 458 1353 485 1358 b 610 1250 569 1358 610 1307 b 556 1163 610 1214 596 1181 l 371 1079 b 275 1053 311 1053 293 1053 m 756 1053 b 654 1164 690 1053 654 1100 b 715 1251 654 1201 667 1231 l 917 1342 b 988 1358 939 1353 965 1358 b 1092 1250 1051 1358 1092 1307 b 1038 1163 1092 1214 1078 1181 l 851 1079 b 756 1053 792 1053 775 1053 m 533 -26 b 26 496 231 -26 26 172 b 533 1015 26 817 228 1015 b 1039 494 833 1015 1039 821 b 533 -26 1039 178 843 -26 m 532 217 b 757 496 676 217 757 331 b 532 772 757 656 678 772 b 308 494 394 772 308 660 b 532 217 308 321 401 217 "},"Ō":{"ha":1065,"x_min":0,"x_max":0,"o":"m 356 1121 b 263 1218 303 1121 263 1158 b 356 1318 263 1279 303 1318 l 717 1318 b 807 1218 771 1318 807 1279 b 717 1121 807 1156 771 1121 l 356 1121 m 533 -26 b 26 496 231 -26 26 172 b 533 1015 26 817 228 1015 b 1039 494 833 1015 1039 821 b 533 -26 1039 178 843 -26 m 532 217 b 757 496 676 217 757 331 b 532 772 757 656 678 772 b 308 494 394 772 308 660 b 532 217 308 321 401 217 "},"Ø":{"ha":1065,"x_min":0,"x_max":0,"o":"m 71 -68 b 4 -4 29 -68 4 -43 b 38 68 4 32 22 53 l 125 161 b 26 496 61 250 26 358 b 535 1015 26 811 228 1015 b 838 929 653 1015 756 988 l 924 1024 b 990 1063 953 1056 968 1063 b 1063 997 1032 1063 1063 1036 b 1031 928 1063 968 1054 953 l 939 831 b 1039 494 1001 744 1039 633 b 533 -26 1039 176 838 -26 b 228 61 415 -26 311 4 l 142 -31 b 71 -68 115 -58 96 -68 m 660 735 b 532 772 625 760 588 772 b 308 494 396 772 308 663 b 325 378 308 454 313 415 m 532 217 b 757 496 678 217 757 332 b 742 613 757 531 753 572 l 406 254 b 532 217 435 233 479 217 "},"Ǿ":{"ha":1065,"x_min":0,"x_max":0,"o":"m 464 1051 b 363 1163 399 1051 363 1099 b 424 1250 363 1200 374 1229 l 625 1340 b 696 1357 647 1351 674 1357 b 799 1249 758 1357 799 1306 b 744 1161 799 1213 785 1179 l 560 1078 b 464 1051 499 1051 483 1051 m 71 -68 b 4 -4 29 -68 4 -43 b 38 68 4 32 22 53 l 125 161 b 26 496 61 250 26 358 b 535 1015 26 811 228 1015 b 838 929 653 1015 756 988 l 924 1024 b 990 1063 953 1056 968 1063 b 1063 997 1032 1063 1063 1036 b 1031 928 1063 968 1054 953 l 939 831 b 1039 494 1001 744 1039 633 b 533 -26 1039 176 838 -26 b 228 61 415 -26 311 4 l 142 -31 b 71 -68 115 -58 96 -68 m 660 735 b 532 772 625 760 588 772 b 308 494 396 772 308 663 b 325 378 308 454 313 415 m 532 217 b 757 496 678 217 757 332 b 742 613 757 531 753 572 l 406 254 b 532 217 435 233 479 217 "},"Õ":{"ha":1065,"x_min":0,"x_max":0,"o":"m 303 1047 b 214 1151 257 1047 214 1082 b 381 1322 214 1242 288 1322 b 635 1249 492 1322 578 1249 b 772 1322 699 1249 713 1322 b 863 1221 828 1322 863 1281 b 699 1047 863 1135 797 1047 b 443 1122 585 1047 499 1122 b 303 1047 381 1122 363 1047 m 533 -26 b 26 496 231 -26 26 172 b 533 1015 26 817 228 1015 b 1039 494 833 1015 1039 821 b 533 -26 1039 178 843 -26 m 532 217 b 757 496 676 217 757 331 b 532 772 757 656 678 772 b 308 494 394 772 308 660 b 532 217 308 321 401 217 "},"Œ":{"ha":1365,"x_min":0,"x_max":0,"o":"m 506 -26 b 26 496 231 -26 26 172 b 507 1015 26 808 228 1015 b 776 925 621 1015 722 983 l 779 925 l 781 931 b 868 989 792 972 825 989 l 1229 989 b 1354 867 1301 989 1354 940 b 1229 746 1354 789 1304 746 l 1008 746 l 1008 621 l 1206 621 b 1332 499 1283 621 1332 575 b 1206 376 1332 419 1283 376 l 1008 376 l 1008 243 l 1231 243 b 1357 122 1307 243 1357 200 b 1232 0 1357 49 1306 0 l 892 0 b 781 61 818 0 789 28 l 779 67 l 776 67 b 506 -26 714 1 617 -26 m 533 217 b 746 494 667 217 746 322 b 532 772 746 683 678 772 b 308 494 389 772 308 674 b 533 217 308 313 392 217 "},"Þ":{"ha":828,"x_min":0,"x_max":0,"o":"m 182 -8 b 51 125 97 -8 51 44 l 51 865 b 182 997 51 943 97 997 b 314 854 263 997 314 964 l 314 849 l 472 849 b 815 515 664 849 815 711 b 485 161 815 299 689 161 l 314 161 l 314 122 b 182 -8 314 44 264 -8 m 421 393 b 542 504 490 393 542 433 b 421 617 542 578 493 617 l 314 617 l 314 393 "},"Ŕ":{"ha":833,"x_min":0,"x_max":0,"o":"m 303 1051 b 201 1163 238 1051 201 1099 b 263 1250 201 1200 213 1229 l 464 1340 b 535 1357 486 1351 513 1357 b 638 1249 597 1357 638 1306 b 583 1161 638 1213 624 1179 l 399 1078 b 303 1051 338 1051 322 1051 m 183 -8 b 51 124 106 -8 51 40 l 51 861 b 176 989 51 933 111 989 l 467 989 b 806 669 665 989 806 867 b 615 401 806 561 751 446 l 607 399 l 764 228 b 819 115 793 196 819 158 b 679 -8 819 58 775 -8 b 547 72 632 -8 592 13 l 317 383 l 314 383 l 314 124 b 183 -8 314 40 260 -8 m 458 574 b 543 664 507 574 543 610 b 458 746 543 719 497 746 l 314 746 l 314 574 "},"Ř":{"ha":833,"x_min":0,"x_max":0,"o":"m 401 1054 b 356 1067 397 1054 376 1058 l 183 1146 b 99 1267 128 1172 99 1197 b 182 1364 99 1322 140 1364 b 271 1338 218 1364 257 1344 l 401 1278 l 515 1331 b 619 1364 572 1358 590 1364 b 701 1267 663 1364 701 1322 b 633 1154 701 1194 671 1171 l 492 1088 b 401 1054 436 1061 417 1054 m 183 -8 b 51 124 106 -8 51 40 l 51 861 b 176 989 51 933 111 989 l 467 989 b 806 669 665 989 806 867 b 615 401 806 561 751 446 l 607 399 l 764 228 b 819 115 793 196 819 158 b 679 -8 819 58 775 -8 b 547 72 632 -8 592 13 l 317 383 l 314 383 l 314 124 b 183 -8 314 40 260 -8 m 458 574 b 543 664 507 574 543 610 b 458 746 543 719 497 746 l 314 746 l 314 574 "},"Ŗ":{"ha":833,"x_min":0,"x_max":0,"o":"m 183 -8 b 51 124 106 -8 51 40 l 51 861 b 176 989 51 933 111 989 l 467 989 b 806 669 665 989 806 867 b 615 401 806 561 751 446 l 607 399 l 764 228 b 819 115 793 196 819 158 b 679 -8 819 58 775 -8 b 547 72 632 -8 592 13 l 317 383 l 314 383 l 314 124 b 183 -8 314 40 260 -8 m 458 574 b 543 664 507 574 543 610 b 458 746 543 719 497 746 l 314 746 l 314 574 m 325 -328 b 242 -261 272 -328 242 -306 b 254 -208 242 -250 244 -228 l 307 -104 b 406 -37 324 -71 350 -37 b 515 -126 475 -37 515 -75 b 501 -174 515 -146 511 -158 l 435 -272 b 325 -328 403 -318 371 -328 "},"Ś":{"ha":778,"x_min":0,"x_max":0,"o":"m 301 1051 b 200 1163 236 1051 200 1099 b 261 1250 200 1200 211 1229 l 463 1340 b 533 1357 485 1351 511 1357 b 636 1249 596 1357 636 1306 b 582 1161 636 1213 622 1179 l 397 1078 b 301 1051 336 1051 321 1051 m 357 -26 b 107 22 271 -26 176 -10 b 4 151 46 53 4 94 b 132 285 4 224 44 285 b 203 269 158 285 176 278 b 378 231 251 254 299 231 b 467 290 433 231 467 254 b 344 382 467 333 426 357 b 21 686 192 425 21 472 b 399 1015 21 899 171 1015 b 582 988 474 1015 535 1006 b 694 849 656 960 694 911 b 576 728 694 779 650 728 b 524 736 557 728 540 732 b 388 761 486 744 449 761 b 306 708 336 761 306 746 b 436 632 306 668 353 658 b 751 310 622 572 751 524 b 357 -26 751 97 601 -26 "},"Š":{"ha":778,"x_min":0,"x_max":0,"o":"m 379 1054 b 333 1067 375 1054 354 1058 l 161 1146 b 76 1267 106 1172 76 1197 b 160 1364 76 1322 118 1364 b 249 1338 196 1364 235 1344 l 379 1278 l 493 1331 b 597 1364 550 1358 568 1364 b 679 1267 640 1364 679 1322 b 611 1154 679 1194 649 1171 l 469 1088 b 379 1054 414 1061 394 1054 m 357 -26 b 107 22 271 -26 176 -10 b 4 151 46 53 4 94 b 132 285 4 224 44 285 b 203 269 158 285 176 278 b 378 231 251 254 299 231 b 467 290 433 231 467 254 b 344 382 467 333 426 357 b 21 686 192 425 21 472 b 399 1015 21 899 171 1015 b 582 988 474 1015 535 1006 b 694 849 656 960 694 911 b 576 728 694 779 650 728 b 524 736 557 728 540 732 b 388 761 486 744 449 761 b 306 708 336 761 306 746 b 436 632 306 668 353 658 b 751 310 622 572 751 524 b 357 -26 751 97 601 -26 "},"Ş":{"ha":778,"x_min":0,"x_max":0,"o":"m 356 -328 b 206 -258 268 -328 206 -304 b 246 -206 206 -235 224 -206 b 318 -228 267 -206 299 -228 b 368 -181 340 -228 368 -212 b 318 -142 368 -160 354 -142 l 300 -142 b 269 -104 286 -142 269 -131 b 304 -43 269 -92 281 -68 l 319 -25 b 97 31 240 -21 157 -1 b 4 151 42 60 4 100 b 128 282 4 224 53 282 b 194 271 147 282 169 278 b 378 231 243 257 300 231 b 467 293 440 231 467 254 b 344 382 467 336 426 357 b 21 678 192 425 21 464 b 399 1015 21 890 171 1015 b 574 992 469 1015 528 1007 b 694 854 653 965 694 918 b 576 733 694 783 650 733 b 524 739 557 733 540 736 b 388 761 486 743 451 761 b 306 703 336 761 306 742 b 436 632 306 663 353 658 b 751 310 622 572 751 525 b 431 -22 751 113 631 -1 l 388 -78 l 389 -79 b 417 -75 400 -76 406 -75 b 538 -199 483 -75 538 -114 b 356 -328 538 -281 439 -328 "},"Ŝ":{"ha":778,"x_min":0,"x_max":0,"o":"m 174 1054 b 90 1151 132 1054 90 1096 b 175 1272 90 1221 119 1246 l 347 1351 b 393 1364 368 1360 389 1364 b 483 1332 408 1364 428 1357 l 625 1265 b 693 1151 663 1247 693 1224 b 611 1054 693 1096 654 1054 b 507 1088 582 1054 564 1061 l 393 1140 l 263 1081 b 174 1054 249 1074 210 1054 m 357 -26 b 107 22 271 -26 176 -10 b 4 151 46 53 4 94 b 132 285 4 224 44 285 b 203 269 158 285 176 278 b 378 231 251 254 299 231 b 467 290 433 231 467 254 b 344 382 467 333 426 357 b 21 686 192 425 21 472 b 399 1015 21 899 171 1015 b 582 988 474 1015 535 1006 b 694 849 656 960 694 911 b 576 728 694 779 650 728 b 524 736 557 728 540 732 b 388 761 486 744 449 761 b 306 708 336 761 306 746 b 436 632 306 668 353 658 b 751 310 622 572 751 524 b 357 -26 751 97 601 -26 "},"Ș":{"ha":778,"x_min":0,"x_max":0,"o":"m 357 -26 b 107 22 271 -26 176 -10 b 4 151 46 53 4 94 b 132 285 4 224 44 285 b 203 269 158 285 176 278 b 378 231 251 254 299 231 b 467 290 433 231 467 254 b 344 382 467 333 426 357 b 21 686 192 425 21 472 b 399 1015 21 899 171 1015 b 582 988 474 1015 535 1006 b 694 849 656 960 694 911 b 576 728 694 779 650 728 b 524 736 557 728 540 732 b 388 761 486 744 449 761 b 306 708 336 761 306 746 b 436 632 306 668 353 658 b 751 310 622 572 751 524 b 357 -26 751 97 601 -26 m 264 -328 b 181 -261 211 -328 181 -306 b 193 -208 181 -250 183 -228 l 246 -104 b 344 -37 263 -71 289 -37 b 454 -126 414 -37 454 -75 b 440 -174 454 -146 450 -158 l 374 -272 b 264 -328 342 -318 310 -328 "},"ẞ":{"ha":901,"x_min":0,"x_max":0,"o":"m 178 -8 b 44 117 100 -8 44 50 l 44 672 b 432 1014 44 872 174 1014 b 803 732 668 1014 803 908 b 689 536 803 631 751 576 l 689 533 b 868 296 786 501 868 431 b 490 -8 868 101 742 -8 b 346 119 407 -8 346 40 b 479 235 346 192 397 235 b 586 319 556 235 586 271 b 474 406 586 369 551 397 b 368 506 390 414 368 449 b 465 611 368 560 401 592 b 533 693 501 622 533 640 b 432 772 533 733 501 772 b 308 642 360 772 308 731 l 308 117 b 178 -8 308 50 257 -8 "},"Ə":{"ha":996,"x_min":0,"x_max":0,"o":"m 474 -26 b 24 447 199 -26 24 186 b 160 593 24 532 60 593 l 681 593 b 428 757 664 665 599 757 b 246 714 353 757 310 739 b 165 699 213 701 185 699 b 56 818 97 699 56 754 b 443 1015 56 943 260 1015 b 969 493 775 1015 969 814 b 474 -26 969 192 790 -26 m 485 218 b 671 382 601 218 667 311 l 310 382 b 485 218 318 307 372 218 "},"Ŧ":{"ha":693,"x_min":0,"x_max":0,"o":"m 347 -8 b 215 124 269 -8 215 40 l 215 411 l 158 411 b 60 511 96 411 60 449 b 158 613 60 575 96 613 l 215 613 l 215 746 l 104 746 b -28 867 24 746 -28 790 b 104 989 -28 944 24 989 l 590 989 b 721 867 669 989 721 944 b 590 746 721 790 669 746 l 478 746 l 478 613 l 536 613 b 635 511 600 613 635 575 b 536 411 635 449 600 411 l 478 411 l 478 124 b 347 -8 478 40 425 -8 "},"Ť":{"ha":693,"x_min":0,"x_max":0,"o":"m 353 1054 b 307 1067 349 1054 328 1058 l 135 1146 b 50 1267 79 1172 50 1197 b 133 1364 50 1322 92 1364 b 222 1338 169 1364 208 1344 l 353 1278 l 467 1331 b 571 1364 524 1358 542 1364 b 653 1267 614 1364 653 1322 b 585 1154 653 1194 622 1171 l 443 1088 b 353 1054 388 1061 368 1054 m 347 -8 b 215 124 269 -8 215 40 l 215 746 l 104 746 b -28 867 24 746 -28 790 b 104 989 -28 944 24 989 l 590 989 b 721 867 669 989 721 944 b 590 746 721 790 669 746 l 478 746 l 478 124 b 347 -8 478 40 425 -8 "},"Ţ":{"ha":693,"x_min":0,"x_max":0,"o":"m 347 -8 b 215 124 269 -8 215 40 l 215 746 l 104 746 b -28 867 24 746 -28 790 b 104 989 -28 944 24 989 l 590 989 b 721 867 669 989 721 944 b 590 746 721 790 669 746 l 478 746 l 478 124 b 347 -8 478 40 425 -8 m 257 -328 b 174 -261 204 -328 174 -306 b 186 -208 174 -250 176 -228 l 239 -104 b 338 -37 256 -71 282 -37 b 447 -126 407 -37 447 -75 b 433 -174 447 -146 443 -158 l 367 -272 b 257 -328 335 -318 303 -328 "},"Ț":{"ha":693,"x_min":0,"x_max":0,"o":"m 347 -8 b 215 124 269 -8 215 40 l 215 746 l 104 746 b -28 867 24 746 -28 790 b 104 989 -28 944 24 989 l 590 989 b 721 867 669 989 721 944 b 590 746 721 790 669 746 l 478 746 l 478 124 b 347 -8 478 40 425 -8 m 257 -328 b 174 -261 204 -328 174 -306 b 186 -208 174 -250 176 -228 l 239 -104 b 338 -37 256 -71 282 -37 b 447 -126 407 -37 447 -75 b 433 -174 447 -146 443 -158 l 367 -272 b 257 -328 335 -318 303 -328 "},"Ú":{"ha":981,"x_min":0,"x_max":0,"o":"m 417 1051 b 315 1163 351 1051 315 1099 b 376 1250 315 1200 326 1229 l 578 1340 b 649 1357 600 1351 626 1357 b 751 1249 711 1357 751 1306 b 697 1161 751 1213 738 1179 l 513 1078 b 417 1051 451 1051 436 1051 m 489 -26 b 44 411 218 -26 44 157 l 44 865 b 176 997 44 949 100 997 b 307 865 254 997 307 949 l 307 408 b 490 228 307 306 379 228 b 674 408 599 228 674 304 l 674 865 b 806 997 674 946 726 997 b 936 865 882 997 936 949 l 936 411 b 489 -26 936 160 768 -26 "},"Ŭ":{"ha":981,"x_min":0,"x_max":0,"o":"m 493 1035 b 218 1275 343 1035 218 1139 b 310 1378 218 1332 246 1378 b 400 1286 353 1378 378 1346 b 493 1203 418 1235 439 1203 b 586 1286 546 1203 568 1235 b 676 1378 608 1347 633 1378 b 767 1275 739 1378 767 1332 b 493 1035 767 1139 642 1035 m 489 -26 b 44 411 218 -26 44 157 l 44 865 b 176 997 44 949 100 997 b 307 865 254 997 307 949 l 307 408 b 490 228 307 306 379 228 b 674 408 599 228 674 304 l 674 865 b 806 997 674 946 726 997 b 936 865 882 997 936 949 l 936 411 b 489 -26 936 160 768 -26 "},"Û":{"ha":981,"x_min":0,"x_max":0,"o":"m 275 1054 b 192 1151 233 1054 192 1096 b 276 1272 192 1221 221 1246 l 449 1351 b 494 1364 469 1360 490 1364 b 585 1332 510 1364 529 1357 l 726 1265 b 794 1151 764 1247 794 1224 b 713 1054 794 1096 756 1054 b 608 1088 683 1054 665 1061 l 494 1140 l 364 1081 b 275 1054 350 1074 311 1054 m 489 -26 b 44 411 218 -26 44 157 l 44 865 b 176 997 44 949 100 997 b 307 865 254 997 307 949 l 307 408 b 490 228 307 306 379 228 b 674 408 599 228 674 304 l 674 865 b 806 997 674 946 726 997 b 936 865 882 997 936 949 l 936 411 b 489 -26 936 160 768 -26 "},"Ü":{"ha":981,"x_min":0,"x_max":0,"o":"m 319 1096 b 200 1215 253 1096 200 1150 b 319 1336 200 1282 253 1336 b 440 1215 386 1336 440 1282 b 319 1096 440 1150 386 1096 m 665 1096 b 544 1215 599 1096 544 1150 b 665 1336 544 1282 599 1336 b 785 1215 731 1336 785 1282 b 665 1096 785 1150 731 1096 m 489 -26 b 44 411 218 -26 44 157 l 44 865 b 176 997 44 949 100 997 b 307 865 254 997 307 949 l 307 408 b 490 228 307 306 379 228 b 674 408 599 228 674 304 l 674 865 b 806 997 674 946 726 997 b 936 865 882 997 936 949 l 936 411 b 489 -26 936 160 768 -26 "},"Ù":{"ha":981,"x_min":0,"x_max":0,"o":"m 563 1051 b 468 1078 531 1051 515 1057 l 282 1161 b 225 1251 242 1179 225 1215 b 331 1357 225 1308 269 1357 b 401 1340 353 1357 379 1350 l 603 1250 b 668 1160 653 1228 668 1197 b 563 1051 668 1096 624 1051 m 489 -26 b 44 411 218 -26 44 157 l 44 865 b 176 997 44 949 100 997 b 307 865 254 997 307 949 l 307 408 b 490 228 307 306 379 228 b 674 408 599 228 674 304 l 674 865 b 806 997 674 946 726 997 b 936 865 882 997 936 949 l 936 411 b 489 -26 936 160 768 -26 "},"Ű":{"ha":981,"x_min":0,"x_max":0,"o":"m 247 1053 b 146 1164 182 1053 146 1100 b 207 1251 146 1201 157 1231 l 408 1342 b 478 1358 431 1353 457 1358 b 582 1250 542 1358 582 1307 b 528 1163 582 1214 568 1181 l 343 1079 b 247 1053 283 1053 265 1053 m 728 1053 b 626 1164 663 1053 626 1100 b 688 1251 626 1201 639 1231 l 889 1342 b 960 1358 911 1353 938 1358 b 1064 1250 1024 1358 1064 1307 b 1010 1163 1064 1214 1050 1181 l 824 1079 b 728 1053 764 1053 747 1053 m 489 -26 b 44 411 218 -26 44 157 l 44 865 b 176 997 44 949 100 997 b 307 865 254 997 307 949 l 307 408 b 490 228 307 306 379 228 b 674 408 599 228 674 304 l 674 865 b 806 997 674 946 726 997 b 936 865 882 997 936 949 l 936 411 b 489 -26 936 160 768 -26 "},"Ū":{"ha":981,"x_min":0,"x_max":0,"o":"m 313 1121 b 219 1218 260 1121 219 1158 b 313 1318 219 1279 260 1318 l 674 1318 b 764 1218 728 1318 764 1279 b 674 1121 764 1156 728 1121 l 313 1121 m 489 -26 b 44 411 218 -26 44 157 l 44 865 b 176 997 44 949 100 997 b 307 865 254 997 307 949 l 307 408 b 490 228 307 306 379 228 b 674 408 599 228 674 304 l 674 865 b 806 997 674 946 726 997 b 936 865 882 997 936 949 l 936 411 b 489 -26 936 160 768 -26 "},"Ų":{"ha":981,"x_min":0,"x_max":0,"o":"m 472 -328 b 333 -203 388 -328 333 -278 b 456 -25 333 -136 388 -74 b 44 411 204 -11 44 167 l 44 865 b 176 997 44 949 100 997 b 307 865 254 997 307 949 l 307 408 b 490 228 307 306 379 228 b 674 408 599 228 674 304 l 674 865 b 806 997 674 946 726 997 b 936 865 882 997 936 949 l 936 411 b 604 -14 936 196 814 29 b 503 -161 543 -61 503 -117 b 546 -210 503 -192 519 -210 b 592 -200 568 -210 576 -200 b 631 -242 611 -200 631 -210 b 585 -303 631 -268 613 -287 b 472 -328 556 -318 515 -328 "},"Ů":{"ha":981,"x_min":0,"x_max":0,"o":"m 489 1043 b 349 1183 414 1043 349 1101 b 489 1324 349 1263 414 1324 b 629 1183 565 1324 629 1265 b 489 1043 629 1107 565 1043 m 489 1124 b 549 1183 521 1124 549 1147 b 486 1243 549 1221 518 1243 b 429 1183 457 1243 429 1221 b 489 1124 429 1146 457 1124 m 489 -26 b 44 411 218 -26 44 157 l 44 865 b 176 997 44 949 100 997 b 307 865 254 997 307 949 l 307 408 b 490 228 307 306 379 228 b 674 408 599 228 674 304 l 674 865 b 806 997 674 946 726 997 b 936 865 882 997 936 949 l 936 411 b 489 -26 936 160 768 -26 "},"Ũ":{"ha":981,"x_min":0,"x_max":0,"o":"m 268 1047 b 179 1151 222 1047 179 1082 b 346 1322 179 1242 253 1322 b 600 1249 457 1322 543 1249 b 738 1322 664 1249 678 1322 b 828 1221 793 1322 828 1281 b 664 1047 828 1135 763 1047 b 408 1122 550 1047 464 1122 b 268 1047 346 1122 328 1047 m 489 -26 b 44 411 218 -26 44 157 l 44 865 b 176 997 44 949 100 997 b 307 865 254 997 307 949 l 307 408 b 490 228 307 306 379 228 b 674 408 599 228 674 304 l 674 865 b 806 997 674 946 726 997 b 936 865 882 997 936 949 l 936 411 b 489 -26 936 160 768 -26 "},"Ẃ":{"ha":1322,"x_min":0,"x_max":0,"o":"m 604 1051 b 503 1163 539 1051 503 1099 b 564 1250 503 1200 514 1229 l 765 1340 b 836 1357 788 1351 814 1357 b 939 1249 899 1357 939 1306 b 885 1161 939 1213 925 1179 l 700 1078 b 604 1051 639 1051 624 1051 m 358 -8 b 161 235 214 -8 207 75 l 21 728 b -8 868 10 768 -8 822 b 122 997 -8 943 49 997 b 258 878 192 997 239 961 l 369 421 l 372 421 l 514 860 b 661 997 547 963 590 997 b 806 865 732 997 775 958 l 950 421 l 953 421 l 1061 865 b 1200 997 1086 969 1129 997 b 1331 868 1276 997 1331 940 b 1321 800 1331 850 1329 828 l 1151 193 b 964 -8 1107 38 1078 -8 b 788 138 864 -8 819 46 l 663 511 l 660 511 l 538 139 b 358 -8 507 47 460 -8 "},"Ŵ":{"ha":1322,"x_min":0,"x_max":0,"o":"m 444 1054 b 361 1151 403 1054 361 1096 b 446 1272 361 1221 390 1246 l 618 1351 b 664 1364 639 1360 660 1364 b 754 1332 679 1364 699 1357 l 896 1265 b 964 1151 933 1247 964 1224 b 882 1054 964 1096 925 1054 b 778 1088 853 1054 835 1061 l 664 1140 l 533 1081 b 444 1054 519 1074 481 1054 m 358 -8 b 161 235 214 -8 207 75 l 21 728 b -8 868 10 768 -8 822 b 122 997 -8 943 49 997 b 258 878 192 997 239 961 l 369 421 l 372 421 l 514 860 b 661 997 547 963 590 997 b 806 865 732 997 775 958 l 950 421 l 953 421 l 1061 865 b 1200 997 1086 969 1129 997 b 1331 868 1276 997 1331 940 b 1321 800 1331 850 1329 828 l 1151 193 b 964 -8 1107 38 1078 -8 b 788 138 864 -8 819 46 l 663 511 l 660 511 l 538 139 b 358 -8 507 47 460 -8 "},"Ẅ":{"ha":1322,"x_min":0,"x_max":0,"o":"m 490 1096 b 371 1215 424 1096 371 1150 b 490 1336 371 1282 424 1336 b 611 1215 557 1336 611 1282 b 490 1096 611 1150 557 1096 m 836 1096 b 715 1215 769 1096 715 1150 b 836 1336 715 1282 769 1336 b 956 1215 901 1336 956 1282 b 836 1096 956 1150 901 1096 m 358 -8 b 161 235 214 -8 207 75 l 21 728 b -8 868 10 768 -8 822 b 122 997 -8 943 49 997 b 258 878 192 997 239 961 l 369 421 l 372 421 l 514 860 b 661 997 547 963 590 997 b 806 865 732 997 775 958 l 950 421 l 953 421 l 1061 865 b 1200 997 1086 969 1129 997 b 1331 868 1276 997 1331 940 b 1321 800 1331 850 1329 828 l 1151 193 b 964 -8 1107 38 1078 -8 b 788 138 864 -8 819 46 l 663 511 l 660 511 l 538 139 b 358 -8 507 47 460 -8 "},"Ẁ":{"ha":1322,"x_min":0,"x_max":0,"o":"m 739 1051 b 644 1078 707 1051 692 1057 l 458 1161 b 401 1251 418 1179 401 1215 b 507 1357 401 1308 446 1357 b 578 1340 529 1357 556 1350 l 779 1250 b 844 1160 829 1228 844 1197 b 739 1051 844 1096 800 1051 m 358 -8 b 161 235 214 -8 207 75 l 21 728 b -8 868 10 768 -8 822 b 122 997 -8 943 49 997 b 258 878 192 997 239 961 l 369 421 l 372 421 l 514 860 b 661 997 547 963 590 997 b 806 865 732 997 775 958 l 950 421 l 953 421 l 1061 865 b 1200 997 1086 969 1129 997 b 1331 868 1276 997 1331 940 b 1321 800 1331 850 1329 828 l 1151 193 b 964 -8 1107 38 1078 -8 b 788 138 864 -8 819 46 l 663 511 l 660 511 l 538 139 b 358 -8 507 47 460 -8 "},"Ý":{"ha":782,"x_min":0,"x_max":0,"o":"m 322 1051 b 221 1163 257 1051 221 1099 b 282 1250 221 1200 232 1229 l 483 1340 b 554 1357 506 1351 532 1357 b 657 1249 617 1357 657 1306 b 603 1161 657 1213 643 1179 l 418 1078 b 322 1051 357 1051 342 1051 m 392 -8 b 260 124 314 -8 260 40 l 260 463 l 90 665 b -29 879 7 776 -29 824 b 107 997 -29 946 26 997 b 247 900 176 997 218 940 l 392 704 l 533 899 b 675 997 603 993 640 997 b 811 879 754 997 811 946 b 700 676 811 828 782 786 l 522 463 l 522 124 b 392 -8 522 40 467 -8 "},"Ŷ":{"ha":782,"x_min":0,"x_max":0,"o":"m 176 1054 b 93 1151 135 1054 93 1096 b 178 1272 93 1221 122 1246 l 350 1351 b 396 1364 371 1360 392 1364 b 486 1332 411 1364 431 1357 l 628 1265 b 696 1151 665 1247 696 1224 b 614 1054 696 1096 657 1054 b 510 1088 585 1054 567 1061 l 396 1140 l 265 1081 b 176 1054 251 1074 213 1054 m 392 -8 b 260 124 314 -8 260 40 l 260 463 l 90 665 b -29 879 7 776 -29 824 b 107 997 -29 946 26 997 b 247 900 176 997 218 940 l 392 704 l 533 899 b 675 997 603 993 640 997 b 811 879 754 997 811 946 b 700 676 811 828 782 786 l 522 463 l 522 124 b 392 -8 522 40 467 -8 "},"Ÿ":{"ha":782,"x_min":0,"x_max":0,"o":"m 222 1096 b 103 1215 156 1096 103 1150 b 222 1336 103 1282 156 1336 b 343 1215 289 1336 343 1282 b 222 1096 343 1150 289 1096 m 568 1096 b 447 1215 501 1096 447 1150 b 568 1336 447 1282 501 1336 b 688 1215 633 1336 688 1282 b 568 1096 688 1150 633 1096 m 392 -8 b 260 124 314 -8 260 40 l 260 463 l 90 665 b -29 879 7 776 -29 824 b 107 997 -29 946 26 997 b 247 900 176 997 218 940 l 392 704 l 533 899 b 675 997 603 993 640 997 b 811 879 754 997 811 946 b 700 676 811 828 782 786 l 522 463 l 522 124 b 392 -8 522 40 467 -8 "},"Ỳ":{"ha":782,"x_min":0,"x_max":0,"o":"m 439 1051 b 344 1078 407 1051 392 1057 l 158 1161 b 101 1251 118 1179 101 1215 b 207 1357 101 1308 146 1357 b 278 1340 229 1357 256 1350 l 479 1250 b 544 1160 529 1228 544 1197 b 439 1051 544 1096 500 1051 m 392 -8 b 260 124 314 -8 260 40 l 260 463 l 90 665 b -29 879 7 776 -29 824 b 107 997 -29 946 26 997 b 247 900 176 997 218 940 l 392 704 l 533 899 b 675 997 603 993 640 997 b 811 879 754 997 811 946 b 700 676 811 828 782 786 l 522 463 l 522 124 b 392 -8 522 40 467 -8 "},"Ź":{"ha":793,"x_min":0,"x_max":0,"o":"m 263 1051 b 161 1163 197 1051 161 1099 b 222 1250 161 1200 172 1229 l 424 1340 b 494 1357 446 1351 472 1357 b 597 1249 557 1357 597 1306 b 543 1161 597 1213 583 1179 l 358 1078 b 263 1051 297 1051 282 1051 m 171 0 b -4 143 57 0 -4 40 b 36 243 -4 182 4 203 l 442 757 l 143 757 b 10 872 61 757 10 801 b 146 989 10 944 61 989 l 617 989 b 776 854 718 989 776 936 b 704 704 776 819 753 767 l 336 243 l 663 243 b 797 122 747 243 797 199 b 663 0 797 44 747 0 l 171 0 "},"Ž":{"ha":793,"x_min":0,"x_max":0,"o":"m 381 1054 b 335 1067 376 1054 356 1058 l 163 1146 b 78 1267 107 1172 78 1197 b 161 1364 78 1322 119 1364 b 250 1338 197 1364 236 1344 l 381 1278 l 494 1331 b 599 1364 551 1358 569 1364 b 681 1267 642 1364 681 1322 b 613 1154 681 1194 650 1171 l 471 1088 b 381 1054 415 1061 396 1054 m 171 0 b -4 143 57 0 -4 40 b 36 243 -4 182 4 203 l 442 757 l 143 757 b 10 872 61 757 10 801 b 146 989 10 944 61 989 l 617 989 b 776 854 718 989 776 936 b 704 704 776 819 753 767 l 336 243 l 663 243 b 797 122 747 243 797 199 b 663 0 797 44 747 0 l 171 0 "},"Ż":{"ha":793,"x_min":0,"x_max":0,"o":"m 379 1096 b 258 1215 313 1096 258 1150 b 379 1336 258 1282 313 1336 b 500 1215 446 1336 500 1282 b 379 1096 500 1150 446 1096 m 171 0 b -4 143 57 0 -4 40 b 36 243 -4 182 4 203 l 442 757 l 143 757 b 10 872 61 757 10 801 b 146 989 10 944 61 989 l 617 989 b 776 854 718 989 776 936 b 704 704 776 819 753 767 l 336 243 l 663 243 b 797 122 747 243 797 199 b 663 0 797 44 747 0 l 171 0 "},"á":{"ha":822,"x_min":0,"x_max":0,"o":"m 329 819 b 228 931 264 819 228 867 b 289 1018 228 968 239 999 l 490 1108 b 561 1125 513 1119 539 1125 b 664 1017 624 1125 664 1074 b 610 929 664 981 650 947 l 425 846 b 329 819 364 819 349 819 m 350 -26 b 18 369 169 -26 18 151 b 351 765 18 592 168 765 b 538 681 422 765 497 740 l 540 681 l 544 688 b 657 747 561 714 593 747 b 779 622 729 747 779 689 l 779 117 b 657 -8 779 50 729 -8 b 546 56 593 -8 560 28 l 544 58 l 542 58 b 350 -26 493 6 431 -26 m 397 219 b 528 369 474 219 528 282 b 396 519 528 457 475 519 b 267 369 321 519 267 460 b 397 219 267 282 321 219 "},"ă":{"ha":822,"x_min":0,"x_max":0,"o":"m 413 801 b 138 1042 263 801 138 906 b 229 1144 138 1099 165 1144 b 319 1054 272 1144 297 1113 b 413 969 338 1003 358 969 b 506 1054 465 969 488 1003 b 596 1144 528 1114 553 1144 b 686 1042 658 1144 686 1099 b 413 801 686 906 561 801 m 350 -26 b 18 369 169 -26 18 151 b 351 765 18 592 168 765 b 538 681 422 765 497 740 l 540 681 l 544 688 b 657 747 561 714 593 747 b 779 622 729 747 779 689 l 779 117 b 657 -8 779 50 729 -8 b 546 56 593 -8 560 28 l 544 58 l 542 58 b 350 -26 493 6 431 -26 m 397 219 b 528 369 474 219 528 282 b 396 519 528 457 475 519 b 267 369 321 519 267 460 b 397 219 267 282 321 219 "},"â":{"ha":822,"x_min":0,"x_max":0,"o":"m 204 821 b 114 921 149 821 114 867 b 204 1042 114 990 149 1017 l 371 1118 b 417 1131 392 1128 406 1131 b 507 1099 432 1131 451 1124 l 643 1035 b 717 921 682 1017 717 994 b 628 821 717 867 679 821 b 531 854 599 821 588 828 l 417 907 l 286 847 b 204 821 272 840 240 821 m 350 -26 b 18 369 169 -26 18 151 b 351 765 18 592 168 765 b 538 681 422 765 497 740 l 540 681 l 544 688 b 657 747 561 714 593 747 b 779 622 729 747 779 689 l 779 117 b 657 -8 779 50 729 -8 b 546 56 593 -8 560 28 l 544 58 l 542 58 b 350 -26 493 6 431 -26 m 397 219 b 528 369 474 219 528 282 b 396 519 528 457 475 519 b 267 369 321 519 267 460 b 397 219 267 282 321 219 "},"ä":{"ha":822,"x_min":0,"x_max":0,"o":"m 246 863 b 126 982 179 863 126 917 b 246 1103 126 1049 179 1103 b 367 982 313 1103 367 1049 b 246 863 367 917 313 863 m 592 863 b 471 982 525 863 471 917 b 592 1103 471 1049 525 1103 b 711 982 657 1103 711 1049 b 592 863 711 917 657 863 m 350 -26 b 18 369 169 -26 18 151 b 351 765 18 592 168 765 b 538 681 422 765 497 740 l 540 681 l 544 688 b 657 747 561 714 593 747 b 779 622 729 747 779 689 l 779 117 b 657 -8 779 50 729 -8 b 546 56 593 -8 560 28 l 544 58 l 542 58 b 350 -26 493 6 431 -26 m 397 219 b 528 369 474 219 528 282 b 396 519 528 457 475 519 b 267 369 321 519 267 460 b 397 219 267 282 321 219 "},"à":{"ha":822,"x_min":0,"x_max":0,"o":"m 485 819 b 390 846 454 819 442 824 l 204 929 b 147 1019 165 947 147 983 b 253 1125 147 1076 192 1125 b 324 1108 275 1125 301 1118 l 525 1018 b 590 928 575 996 590 965 b 485 819 590 864 546 819 m 350 -26 b 18 369 169 -26 18 151 b 351 765 18 592 168 765 b 538 681 422 765 497 740 l 540 681 l 544 688 b 657 747 561 714 593 747 b 779 622 729 747 779 689 l 779 117 b 657 -8 779 50 729 -8 b 546 56 593 -8 560 28 l 544 58 l 542 58 b 350 -26 493 6 431 -26 m 397 219 b 528 369 474 219 528 282 b 396 519 528 457 475 519 b 267 369 321 519 267 460 b 397 219 267 282 321 219 "},"ā":{"ha":822,"x_min":0,"x_max":0,"o":"m 231 888 b 138 985 178 888 138 926 b 231 1085 138 1046 178 1085 l 592 1085 b 682 985 646 1085 682 1046 b 592 888 682 925 646 888 l 231 888 m 350 -26 b 18 369 169 -26 18 151 b 351 765 18 592 168 765 b 538 681 422 765 497 740 l 540 681 l 544 688 b 657 747 561 714 593 747 b 779 622 729 747 779 689 l 779 117 b 657 -8 779 50 729 -8 b 546 56 593 -8 560 28 l 544 58 l 542 58 b 350 -26 493 6 431 -26 m 397 219 b 528 369 474 219 528 282 b 396 519 528 457 475 519 b 267 369 321 519 267 460 b 397 219 267 282 321 219 "},"ą":{"ha":822,"x_min":0,"x_max":0,"o":"m 550 -328 b 411 -203 465 -328 411 -278 b 588 8 411 -126 485 -47 b 546 56 567 22 553 40 l 544 58 l 542 58 b 350 -26 493 6 431 -26 b 18 369 169 -26 18 151 b 351 765 18 592 168 765 b 538 681 422 765 497 740 l 540 681 l 544 688 b 657 747 561 714 593 747 b 779 622 729 747 779 689 l 779 117 b 701 0 779 65 749 18 b 581 -161 628 -54 581 -115 b 624 -210 581 -192 597 -210 b 669 -200 646 -210 654 -200 b 708 -242 689 -200 708 -210 b 663 -303 708 -268 690 -287 b 550 -328 633 -318 593 -328 m 397 219 b 528 369 474 219 528 282 b 396 519 528 457 475 519 b 267 369 321 519 267 460 b 397 219 267 282 321 219 "},"å":{"ha":822,"x_min":0,"x_max":0,"o":"m 399 781 b 258 921 324 781 258 839 b 399 1061 258 1000 324 1061 b 539 921 475 1061 539 1003 b 399 781 539 844 475 781 m 399 861 b 458 921 431 861 458 885 b 396 981 458 958 428 981 b 339 921 367 981 339 958 b 399 861 339 883 367 861 m 350 -26 b 18 369 169 -26 18 151 b 351 765 18 592 168 765 b 538 681 422 765 497 740 l 540 681 l 544 688 b 657 747 561 714 593 747 b 779 622 729 747 779 689 l 779 117 b 657 -8 779 50 729 -8 b 546 56 593 -8 560 28 l 544 58 l 542 58 b 350 -26 493 6 431 -26 m 397 219 b 528 369 474 219 528 282 b 396 519 528 457 475 519 b 267 369 321 519 267 460 b 397 219 267 282 321 219 "},"ǻ":{"ha":822,"x_min":0,"x_max":0,"o":"m 351 1089 b 267 1175 299 1089 267 1122 b 310 1240 267 1206 283 1228 l 488 1317 b 536 1329 515 1329 525 1329 b 619 1247 588 1329 619 1294 b 569 1174 619 1226 615 1193 l 396 1099 b 351 1089 381 1092 365 1089 m 410 782 b 269 922 335 782 269 844 b 410 1063 269 1000 335 1063 b 550 922 485 1063 550 999 b 410 782 550 847 488 782 m 410 863 b 469 922 442 863 469 890 b 410 982 469 954 442 982 b 350 922 379 982 350 953 b 410 863 350 890 378 863 m 357 -26 b 18 369 176 -26 18 151 b 358 765 18 592 175 765 b 538 689 439 765 492 744 l 540 689 l 544 683 b 657 747 560 710 593 747 b 779 622 729 747 779 689 l 779 117 b 657 -8 779 50 729 -8 b 544 56 593 -8 560 29 l 540 50 l 538 50 b 357 -26 488 -6 438 -26 m 397 219 b 528 369 474 219 528 282 b 396 519 528 457 475 519 b 267 369 321 519 267 460 b 397 219 267 282 321 219 "},"ã":{"ha":822,"x_min":0,"x_max":0,"o":"m 189 814 b 100 918 143 814 100 849 b 267 1089 100 1008 174 1089 b 521 1015 378 1089 464 1015 b 658 1089 585 1015 599 1089 b 749 988 714 1089 749 1047 b 585 814 749 901 683 814 b 329 889 471 814 385 889 b 189 814 267 889 249 814 m 350 -26 b 18 369 169 -26 18 151 b 351 765 18 592 168 765 b 538 681 422 765 497 740 l 540 681 l 544 688 b 657 747 561 714 593 747 b 779 622 729 747 779 689 l 779 117 b 657 -8 779 50 729 -8 b 546 56 593 -8 560 28 l 544 58 l 542 58 b 350 -26 493 6 431 -26 m 397 219 b 528 369 474 219 528 282 b 396 519 528 457 475 519 b 267 369 321 519 267 460 b 397 219 267 282 321 219 "},"æ":{"ha":1311,"x_min":0,"x_max":0,"o":"m 350 -26 b 18 369 169 -26 18 151 b 351 765 18 592 168 765 b 538 681 422 765 497 740 l 540 681 l 540 685 b 656 765 540 721 585 765 b 747 731 693 765 725 754 l 751 726 l 754 726 b 928 765 807 753 871 765 b 1293 394 1139 765 1293 592 b 1182 290 1293 319 1265 290 l 804 290 b 960 208 814 243 856 208 b 1121 249 1019 208 1072 229 b 1179 264 1146 260 1164 264 b 1282 156 1239 264 1282 214 b 1218 50 1282 113 1257 76 b 926 -26 1149 0 1035 -26 b 750 11 871 -26 811 -17 l 747 11 l 743 7 b 651 -26 721 -12 690 -26 b 544 54 583 -26 544 14 l 544 58 l 542 58 b 350 -26 493 6 431 -26 m 1044 460 b 925 553 1043 510 997 553 b 806 460 854 553 806 499 m 397 219 b 528 369 474 219 528 282 b 396 519 528 457 475 519 b 267 369 321 519 267 460 b 397 219 267 282 321 219 "},"ǽ":{"ha":1311,"x_min":0,"x_max":0,"o":"m 563 819 b 461 931 497 819 461 867 b 522 1018 461 968 472 999 l 724 1108 b 794 1125 746 1119 772 1125 b 897 1017 857 1125 897 1074 b 843 929 897 981 883 947 l 658 846 b 563 819 597 819 582 819 m 350 -26 b 18 369 169 -26 18 151 b 351 765 18 592 168 765 b 538 681 422 765 497 740 l 540 681 l 540 685 b 656 765 540 721 585 765 b 747 731 693 765 725 754 l 751 726 l 754 726 b 928 765 807 753 871 765 b 1293 394 1139 765 1293 592 b 1182 290 1293 319 1265 290 l 804 290 b 960 208 814 243 856 208 b 1121 249 1019 208 1072 229 b 1179 264 1146 260 1164 264 b 1282 156 1239 264 1282 214 b 1218 50 1282 113 1257 76 b 926 -26 1149 0 1035 -26 b 750 11 871 -26 811 -17 l 747 11 l 743 7 b 651 -26 721 -12 690 -26 b 544 54 583 -26 544 14 l 544 58 l 542 58 b 350 -26 493 6 431 -26 m 1044 460 b 925 553 1043 510 997 553 b 806 460 854 553 806 499 m 397 219 b 528 369 474 219 528 282 b 396 519 528 457 475 519 b 267 369 321 519 267 460 b 397 219 267 282 321 219 "},"ć":{"ha":671,"x_min":0,"x_max":0,"o":"m 297 819 b 196 931 232 819 196 867 b 257 1018 196 968 207 999 l 458 1108 b 529 1125 481 1119 507 1125 b 632 1017 592 1125 632 1074 b 578 929 632 981 618 947 l 393 846 b 297 819 332 819 317 819 m 396 -26 b 18 371 183 -26 18 136 b 393 765 18 604 178 765 b 588 729 469 765 538 753 b 672 603 640 703 672 661 b 575 488 672 539 631 488 b 526 496 557 488 539 489 b 415 522 483 514 457 522 b 267 367 319 522 267 456 b 399 217 267 279 317 217 b 513 242 449 217 483 231 b 571 257 533 250 553 257 b 674 142 636 257 674 201 b 603 29 674 93 644 56 b 396 -26 544 -8 461 -26 "},"č":{"ha":671,"x_min":0,"x_max":0,"o":"m 381 821 b 335 833 369 821 356 824 l 168 910 b 78 1032 113 935 78 961 b 168 1131 78 1085 113 1131 b 250 1104 204 1131 236 1111 l 381 1044 l 494 1097 b 592 1131 551 1124 563 1131 b 681 1032 643 1131 681 1085 b 607 917 681 957 646 935 l 471 853 b 381 821 415 828 396 821 m 396 -26 b 18 371 183 -26 18 136 b 393 765 18 604 178 765 b 588 729 469 765 538 753 b 672 603 640 703 672 661 b 575 488 672 539 631 488 b 526 496 557 488 539 489 b 415 522 483 514 457 522 b 267 367 319 522 267 456 b 399 217 267 279 317 217 b 513 242 449 217 483 231 b 571 257 533 250 553 257 b 674 142 636 257 674 201 b 603 29 674 93 644 56 b 396 -26 544 -8 461 -26 "},"ç":{"ha":671,"x_min":0,"x_max":0,"o":"m 317 -328 b 172 -256 229 -328 172 -301 b 213 -206 172 -235 186 -206 b 288 -228 240 -206 257 -228 b 335 -183 317 -228 335 -211 b 285 -142 335 -162 321 -142 l 265 -142 b 231 -111 251 -142 231 -137 b 269 -43 231 -89 247 -69 l 294 -12 b 18 371 133 29 18 175 b 393 765 18 604 178 765 b 588 729 469 765 538 753 b 672 603 640 703 672 661 b 575 488 672 539 631 488 b 526 496 557 488 539 489 b 415 522 483 514 457 522 b 267 367 319 522 267 456 b 399 217 267 279 317 217 b 513 242 449 217 483 231 b 571 257 533 250 553 257 b 674 142 636 257 674 201 b 603 29 674 93 644 56 b 392 -26 544 -8 461 -26 l 353 -78 l 354 -79 b 388 -75 365 -76 376 -75 b 504 -181 453 -75 504 -111 b 317 -328 504 -296 386 -328 "},"ĉ":{"ha":671,"x_min":0,"x_max":0,"o":"m 168 821 b 78 921 113 821 78 867 b 168 1042 78 990 113 1017 l 335 1118 b 381 1131 356 1128 369 1131 b 471 1099 396 1131 415 1124 l 607 1035 b 681 921 646 1017 681 994 b 592 821 681 867 643 821 b 494 854 563 821 551 828 l 381 907 l 250 847 b 168 821 236 840 204 821 m 396 -26 b 18 371 183 -26 18 136 b 393 765 18 604 178 765 b 588 729 469 765 538 753 b 672 603 640 703 672 661 b 575 488 672 539 631 488 b 526 496 557 488 539 489 b 415 522 483 514 457 522 b 267 367 319 522 267 456 b 399 217 267 279 317 217 b 513 242 449 217 483 231 b 571 257 533 250 553 257 b 674 142 636 257 674 201 b 603 29 674 93 644 56 b 396 -26 544 -8 461 -26 "},"ċ":{"ha":671,"x_min":0,"x_max":0,"o":"m 372 863 b 251 982 306 863 251 917 b 372 1103 251 1049 306 1103 b 493 982 439 1103 493 1049 b 372 863 493 917 439 863 m 396 -26 b 18 371 183 -26 18 136 b 393 765 18 604 178 765 b 588 729 469 765 538 753 b 672 603 640 703 672 661 b 575 488 672 539 631 488 b 526 496 557 488 539 489 b 415 522 483 514 457 522 b 267 367 319 522 267 456 b 399 217 267 279 317 217 b 513 242 449 217 483 231 b 571 257 533 250 553 257 b 674 142 636 257 674 201 b 603 29 674 93 644 56 b 396 -26 544 -8 461 -26 "},"ð":{"ha":796,"x_min":0,"x_max":0,"o":"m 390 -26 b 18 343 183 -26 18 117 b 356 710 18 575 188 710 b 506 672 418 710 475 697 l 508 674 b 392 817 490 733 433 792 l 217 735 b 171 724 201 728 185 724 b 114 788 138 724 114 757 b 168 850 114 819 128 829 l 243 886 b 146 993 157 926 146 957 b 285 1086 146 1049 207 1086 b 500 1010 358 1086 443 1051 l 618 1068 b 665 1081 639 1078 646 1081 b 725 1015 696 1081 725 1054 b 683 960 725 990 715 975 l 607 925 b 778 421 717 806 778 651 b 390 -26 778 138 636 -26 m 397 219 b 526 342 468 219 526 267 b 396 464 526 418 468 464 b 267 342 329 464 267 417 b 397 219 267 267 328 219 "},"ď":{"ha":822,"x_min":0,"x_max":0,"o":"m 928 810 b 828 890 863 810 828 844 b 839 965 828 925 836 956 l 864 1056 b 956 1129 881 1117 925 1129 b 1067 1036 1021 1129 1067 1094 b 1056 988 1067 1024 1064 1011 l 1008 865 b 928 810 1003 851 985 810 m 350 -26 b 18 369 167 -26 18 151 b 353 765 18 586 161 765 b 525 718 422 765 478 750 l 528 718 l 528 943 b 654 1068 528 1011 578 1068 b 779 943 725 1068 779 1011 l 779 117 b 657 -8 779 50 729 -8 b 547 53 593 -8 563 26 l 544 58 l 542 58 b 350 -26 492 4 428 -26 m 397 219 b 528 369 474 219 528 281 b 400 519 528 458 471 519 b 267 369 318 519 267 458 b 397 219 267 282 321 219 "},"đ":{"ha":822,"x_min":0,"x_max":0,"o":"m 350 -26 b 18 369 167 -26 18 151 b 353 765 18 586 161 765 b 525 718 422 765 478 750 l 528 718 l 528 790 l 421 790 b 358 860 388 790 358 819 b 421 932 358 906 388 932 l 528 932 l 528 943 b 654 1068 528 1007 582 1068 b 779 943 725 1068 779 1007 l 779 932 l 838 932 b 896 860 868 932 896 903 b 832 790 896 819 871 790 l 779 790 l 779 117 b 657 -8 779 50 729 -8 b 546 56 593 -8 560 28 l 544 58 l 542 58 b 350 -26 492 3 424 -26 m 397 219 b 528 369 474 219 528 281 b 400 519 528 458 471 519 b 267 369 318 519 267 458 b 397 219 267 282 321 219 "},"é":{"ha":796,"x_min":0,"x_max":0,"o":"m 329 819 b 228 931 264 819 228 867 b 289 1018 228 968 239 999 l 490 1108 b 561 1125 513 1119 539 1125 b 664 1017 624 1125 664 1074 b 610 929 664 981 650 947 l 425 846 b 329 819 364 819 349 819 m 410 -26 b 18 369 174 -26 18 149 b 411 765 18 586 186 765 b 778 394 622 765 778 592 b 665 290 778 319 750 290 l 288 290 b 443 208 297 243 340 208 b 604 247 503 208 556 229 b 663 264 629 260 647 264 b 767 156 724 264 767 214 b 703 50 767 113 742 76 b 410 -26 633 0 518 -26 m 528 460 b 410 553 526 510 481 553 b 289 460 339 553 289 499 "},"ĕ":{"ha":796,"x_min":0,"x_max":0,"o":"m 413 801 b 138 1042 263 801 138 906 b 229 1144 138 1099 165 1144 b 319 1054 272 1144 297 1113 b 413 969 338 1003 358 969 b 506 1054 465 969 488 1003 b 596 1144 528 1114 553 1144 b 686 1042 658 1144 686 1099 b 413 801 686 906 561 801 m 410 -26 b 18 369 174 -26 18 149 b 411 765 18 586 186 765 b 778 394 622 765 778 592 b 665 290 778 319 750 290 l 288 290 b 443 208 297 243 340 208 b 604 247 503 208 556 229 b 663 264 629 260 647 264 b 767 156 724 264 767 214 b 703 50 767 113 742 76 b 410 -26 633 0 518 -26 m 528 460 b 410 553 526 510 481 553 b 289 460 339 553 289 499 "},"ě":{"ha":796,"x_min":0,"x_max":0,"o":"m 413 821 b 367 833 401 821 388 824 l 200 910 b 110 1032 144 935 110 961 b 200 1131 110 1085 144 1131 b 282 1104 236 1131 268 1111 l 413 1044 l 526 1097 b 624 1131 583 1124 594 1131 b 713 1032 675 1131 713 1085 b 639 917 713 957 678 935 l 503 853 b 413 821 447 828 428 821 m 410 -26 b 18 369 174 -26 18 149 b 411 765 18 586 186 765 b 778 394 622 765 778 592 b 665 290 778 319 750 290 l 288 290 b 443 208 297 243 340 208 b 604 247 503 208 556 229 b 663 264 629 260 647 264 b 767 156 724 264 767 214 b 703 50 767 113 742 76 b 410 -26 633 0 518 -26 m 528 460 b 410 553 526 510 481 553 b 289 460 339 553 289 499 "},"ê":{"ha":796,"x_min":0,"x_max":0,"o":"m 196 821 b 106 921 140 821 106 867 b 196 1042 106 990 140 1017 l 363 1118 b 408 1131 383 1128 397 1131 b 499 1099 424 1131 443 1124 l 635 1035 b 708 921 674 1017 708 994 b 619 821 708 867 671 821 b 522 854 590 821 579 828 l 408 907 l 278 847 b 196 821 264 840 232 821 m 410 -26 b 18 369 174 -26 18 149 b 411 765 18 586 186 765 b 778 394 622 765 778 592 b 665 290 778 319 750 290 l 288 290 b 443 208 297 243 340 208 b 604 247 503 208 556 229 b 663 264 629 260 647 264 b 767 156 724 264 767 214 b 703 50 767 113 742 76 b 410 -26 633 0 518 -26 m 528 460 b 410 553 526 510 481 553 b 289 460 339 553 289 499 "},"ë":{"ha":796,"x_min":0,"x_max":0,"o":"m 238 863 b 118 982 171 863 118 917 b 238 1103 118 1049 171 1103 b 358 982 304 1103 358 1049 b 238 863 358 917 304 863 m 583 863 b 463 982 517 863 463 917 b 583 1103 463 1049 517 1103 b 703 982 649 1103 703 1049 b 583 863 703 917 649 863 m 410 -26 b 18 369 174 -26 18 149 b 411 765 18 586 186 765 b 778 394 622 765 778 592 b 665 290 778 319 750 290 l 288 290 b 443 208 297 243 340 208 b 604 247 503 208 556 229 b 663 264 629 260 647 264 b 767 156 724 264 767 214 b 703 50 767 113 742 76 b 410 -26 633 0 518 -26 m 528 460 b 410 553 526 510 481 553 b 289 460 339 553 289 499 "},"ė":{"ha":796,"x_min":0,"x_max":0,"o":"m 410 863 b 289 982 343 863 289 917 b 410 1103 289 1049 343 1103 b 531 982 476 1103 531 1049 b 410 863 531 917 476 863 m 410 -26 b 18 369 174 -26 18 149 b 411 765 18 586 186 765 b 778 394 622 765 778 592 b 665 290 778 319 750 290 l 288 290 b 443 208 297 243 340 208 b 604 247 503 208 556 229 b 663 264 629 260 647 264 b 767 156 724 264 767 214 b 703 50 767 113 742 76 b 410 -26 633 0 518 -26 m 528 460 b 410 553 526 510 481 553 b 289 460 339 553 289 499 "},"è":{"ha":796,"x_min":0,"x_max":0,"o":"m 476 819 b 382 846 446 819 433 824 l 196 929 b 139 1019 157 947 139 983 b 244 1125 139 1076 183 1125 b 315 1108 267 1125 293 1118 l 517 1018 b 582 928 567 996 582 965 b 476 819 582 864 538 819 m 410 -26 b 18 369 174 -26 18 149 b 411 765 18 586 186 765 b 778 394 622 765 778 592 b 665 290 778 319 750 290 l 288 290 b 443 208 297 243 340 208 b 604 247 503 208 556 229 b 663 264 629 260 647 264 b 767 156 724 264 767 214 b 703 50 767 113 742 76 b 410 -26 633 0 518 -26 m 528 460 b 410 553 526 510 481 553 b 289 460 339 553 289 499 "},"ē":{"ha":796,"x_min":0,"x_max":0,"o":"m 231 888 b 138 985 178 888 138 926 b 231 1085 138 1046 178 1085 l 592 1085 b 682 985 646 1085 682 1046 b 592 888 682 925 646 888 l 231 888 m 410 -26 b 18 369 174 -26 18 149 b 411 765 18 586 186 765 b 778 394 622 765 778 592 b 665 290 778 319 750 290 l 288 290 b 443 208 297 243 340 208 b 604 247 503 208 556 229 b 663 264 629 260 647 264 b 767 156 724 264 767 214 b 703 50 767 113 742 76 b 410 -26 633 0 518 -26 m 528 460 b 410 553 526 510 481 553 b 289 460 339 553 289 499 "},"ę":{"ha":796,"x_min":0,"x_max":0,"o":"m 379 -328 b 240 -203 294 -328 240 -278 b 364 -24 240 -140 289 -76 b 18 369 154 -3 18 163 b 411 765 18 586 186 765 b 778 394 622 765 778 592 b 665 290 778 319 750 290 l 288 290 b 443 208 297 243 340 208 b 604 247 503 208 556 229 b 663 264 629 260 647 264 b 767 156 724 264 767 214 b 703 50 767 113 742 76 b 506 -19 654 14 582 -8 b 410 -161 446 -68 410 -121 b 453 -210 410 -192 426 -210 b 499 -200 475 -210 483 -200 b 538 -242 518 -200 538 -210 b 492 -304 538 -268 519 -289 b 379 -328 463 -319 422 -328 m 528 460 b 410 553 526 510 481 553 b 289 460 339 553 289 499 "},"ə":{"ha":794,"x_min":0,"x_max":0,"o":"m 385 -26 b 18 344 174 -26 18 147 b 131 449 18 419 46 449 l 507 449 b 353 531 497 493 450 531 b 192 493 293 531 240 511 b 126 475 167 481 142 475 b 29 583 65 475 29 525 b 93 689 29 626 54 663 b 379 765 163 739 272 765 b 776 369 628 765 776 590 b 385 -26 776 153 610 -26 m 386 186 b 506 279 457 186 506 240 l 267 279 b 386 186 268 229 315 186 "},"ğ":{"ha":822,"x_min":0,"x_max":0,"o":"m 436 801 b 161 1042 286 801 161 906 b 253 1144 161 1099 189 1144 b 343 1054 296 1144 321 1113 b 436 969 361 1003 382 969 b 529 1054 489 969 511 1003 b 619 1144 551 1114 576 1144 b 710 1042 682 1144 710 1099 b 436 801 710 906 585 801 m 365 -311 b 126 -265 288 -311 194 -297 b 29 -142 69 -239 29 -199 b 124 -33 29 -90 69 -33 b 214 -58 158 -33 185 -46 b 363 -89 246 -72 292 -89 b 528 69 464 -89 528 -43 l 528 74 l 525 74 b 324 -8 481 18 417 -8 b 18 369 135 -8 18 158 b 351 765 18 588 163 765 b 538 681 429 765 496 740 l 540 681 l 544 688 b 657 747 561 714 593 747 b 779 622 729 747 779 689 l 779 76 b 365 -311 779 -165 633 -311 m 397 215 b 528 369 474 215 528 276 b 396 519 528 457 475 519 b 267 369 322 519 267 460 b 397 215 267 276 321 215 "},"ĝ":{"ha":822,"x_min":0,"x_max":0,"o":"m 224 821 b 133 921 168 821 133 867 b 224 1042 133 990 168 1017 l 390 1118 b 436 1131 411 1128 425 1131 b 526 1099 451 1131 471 1124 l 663 1035 b 736 921 701 1017 736 994 b 647 821 736 867 699 821 b 550 854 618 821 607 828 l 436 907 l 306 847 b 224 821 292 840 260 821 m 365 -311 b 126 -265 288 -311 194 -297 b 29 -142 69 -239 29 -199 b 124 -33 29 -90 69 -33 b 214 -58 158 -33 185 -46 b 363 -89 246 -72 292 -89 b 528 69 464 -89 528 -43 l 528 74 l 525 74 b 324 -8 481 18 417 -8 b 18 369 135 -8 18 158 b 351 765 18 588 163 765 b 538 681 429 765 496 740 l 540 681 l 544 688 b 657 747 561 714 593 747 b 779 622 729 747 779 689 l 779 76 b 365 -311 779 -165 633 -311 m 397 215 b 528 369 474 215 528 276 b 396 519 528 457 475 519 b 267 369 322 519 267 460 b 397 215 267 276 321 215 "},"ģ":{"ha":822,"x_min":0,"x_max":0,"o":"m 443 808 b 338 899 378 808 338 842 b 351 974 338 913 340 940 l 381 1068 b 479 1142 394 1114 421 1142 b 567 1058 544 1142 567 1104 b 563 1008 567 1043 564 1022 l 544 893 b 443 808 535 829 493 808 m 365 -311 b 126 -265 288 -311 194 -297 b 29 -142 69 -239 29 -199 b 124 -33 29 -90 69 -33 b 214 -58 158 -33 185 -46 b 363 -89 246 -72 292 -89 b 528 69 464 -89 528 -43 l 528 74 l 525 74 b 324 -8 481 18 417 -8 b 18 369 135 -8 18 158 b 351 765 18 588 163 765 b 538 681 429 765 496 740 l 540 681 l 544 688 b 657 747 561 714 593 747 b 779 622 729 747 779 689 l 779 76 b 365 -311 779 -165 633 -311 m 397 215 b 528 369 474 215 528 276 b 396 519 528 457 475 519 b 267 369 322 519 267 460 b 397 215 267 276 321 215 "},"ġ":{"ha":822,"x_min":0,"x_max":0,"o":"m 428 863 b 307 982 361 863 307 917 b 428 1103 307 1049 361 1103 b 549 982 494 1103 549 1049 b 428 863 549 917 494 863 m 365 -311 b 126 -265 288 -311 194 -297 b 29 -142 69 -239 29 -199 b 124 -33 29 -90 69 -33 b 214 -58 158 -33 185 -46 b 363 -89 246 -72 292 -89 b 528 69 464 -89 528 -43 l 528 74 l 525 74 b 324 -8 481 18 417 -8 b 18 369 135 -8 18 158 b 351 765 18 588 163 765 b 538 681 429 765 496 740 l 540 681 l 544 688 b 657 747 561 714 593 747 b 779 622 729 747 779 689 l 779 76 b 365 -311 779 -165 633 -311 m 397 215 b 528 369 474 215 528 276 b 396 519 528 457 475 519 b 267 369 322 519 267 460 b 397 215 267 276 321 215 "},"ħ":{"ha":806,"x_min":0,"x_max":0,"o":"m 179 -8 b 53 117 107 -8 53 50 l 53 790 l 0 790 b -62 860 -37 790 -62 819 b -1 932 -62 906 -36 932 l 53 932 l 53 943 b 179 1068 53 1011 107 1068 b 304 943 250 1068 304 1011 l 304 932 l 418 932 b 481 860 451 932 481 906 b 418 790 481 819 451 790 l 304 790 l 304 711 l 307 711 b 488 765 374 753 425 765 b 758 518 646 765 758 669 l 758 117 b 632 -8 758 49 704 -8 b 506 117 561 -8 506 50 l 506 447 b 406 556 506 507 471 556 b 304 447 342 556 304 506 l 304 117 b 179 -8 304 50 250 -8 "},"ĥ":{"ha":800,"x_min":0,"x_max":0,"o":"m 133 1154 b 50 1251 92 1154 50 1196 b 135 1372 50 1321 79 1346 l 307 1451 b 353 1464 328 1460 349 1464 b 443 1432 368 1464 388 1457 l 585 1365 b 653 1251 622 1347 653 1324 b 571 1154 653 1196 614 1154 b 467 1188 542 1154 524 1161 l 353 1240 l 222 1181 b 133 1154 208 1174 169 1154 m 174 -8 b 47 117 101 -8 47 50 l 47 943 b 174 1068 47 1011 101 1068 b 299 943 244 1068 299 1011 l 299 711 l 301 711 b 478 765 364 749 415 765 b 753 518 644 765 753 669 l 753 117 b 626 -8 753 49 699 -8 b 500 117 556 -8 500 50 l 500 444 b 400 556 500 510 465 556 b 299 447 336 556 299 506 l 299 117 b 174 -8 299 50 244 -8 "},"ı":{"ha":338,"x_min":0,"x_max":0,"o":"m 169 -8 b 43 117 97 -8 43 50 l 43 622 b 169 747 43 689 97 747 b 294 622 244 747 294 689 l 294 117 b 169 -8 294 50 240 -8 "},"í":{"ha":338,"x_min":0,"x_max":0,"o":"m 94 819 b -7 931 29 819 -7 867 b 54 1018 -7 968 4 999 l 256 1108 b 326 1125 278 1119 304 1125 b 429 1017 389 1125 429 1074 b 375 929 429 981 415 947 l 190 846 b 94 819 129 819 114 819 m 169 -8 b 43 117 97 -8 43 50 l 43 622 b 169 747 43 689 97 747 b 294 622 244 747 294 689 l 294 117 b 169 -8 294 50 240 -8 "},"ĭ":{"ha":338,"x_min":0,"x_max":0,"o":"m 169 801 b -106 1042 19 801 -106 906 b -14 1144 -106 1099 -78 1144 b 76 1054 29 1144 54 1113 b 169 969 94 1003 115 969 b 263 1054 222 969 244 1003 b 353 1144 285 1114 310 1144 b 443 1042 415 1144 443 1099 b 169 801 443 906 318 801 m 169 -8 b 43 117 97 -8 43 50 l 43 622 b 169 747 43 689 97 747 b 294 622 244 747 294 689 l 294 117 b 169 -8 294 50 240 -8 "},"î":{"ha":338,"x_min":0,"x_max":0,"o":"m -40 821 b -131 921 -96 821 -131 867 b -40 1042 -131 990 -96 1017 l 126 1118 b 172 1131 147 1128 161 1131 b 263 1099 188 1131 207 1124 l 399 1035 b 472 921 438 1017 472 994 b 383 821 472 867 435 821 b 286 854 354 821 343 828 l 172 907 l 42 847 b -40 821 28 840 -4 821 m 169 -8 b 43 117 97 -8 43 50 l 43 622 b 169 747 43 689 97 747 b 294 622 244 747 294 689 l 294 117 b 169 -8 294 50 240 -8 "},"ï":{"ha":338,"x_min":0,"x_max":0,"o":"m -4 863 b -124 982 -71 863 -124 917 b -4 1103 -124 1049 -71 1103 b 117 982 63 1103 117 1049 b -4 863 117 917 63 863 m 342 863 b 221 982 275 863 221 917 b 342 1103 221 1049 275 1103 b 461 982 407 1103 461 1049 b 342 863 461 917 407 863 m 169 -8 b 43 117 97 -8 43 50 l 43 622 b 169 747 43 689 97 747 b 294 622 244 747 294 689 l 294 117 b 169 -8 294 50 240 -8 "},"ì":{"ha":338,"x_min":0,"x_max":0,"o":"m 240 819 b 146 846 210 819 197 824 l -40 929 b -97 1019 -79 947 -97 983 b 8 1125 -97 1076 -53 1125 b 79 1108 31 1125 57 1118 l 281 1018 b 346 928 331 996 346 965 b 240 819 346 864 301 819 m 169 -8 b 43 117 97 -8 43 50 l 43 622 b 169 747 43 689 97 747 b 294 622 244 747 294 689 l 294 117 b 169 -8 294 50 240 -8 "},"ĳ":{"ha":678,"x_min":0,"x_max":0,"o":"m 174 796 b 25 943 96 796 25 860 b 174 1090 25 1025 92 1090 b 319 943 258 1090 319 1026 b 174 796 319 861 257 796 m 510 796 b 361 943 432 796 361 861 b 510 1090 361 1025 428 1090 b 656 943 594 1090 656 1026 b 510 796 656 861 592 796 m 174 -8 b 47 117 101 -8 47 50 l 47 622 b 174 747 47 689 101 747 b 299 622 249 747 299 689 l 299 117 b 174 -8 299 50 244 -8 m 510 -311 b 383 -187 438 -311 383 -251 l 383 624 b 510 747 383 689 438 747 b 635 624 585 747 635 689 l 635 -187 b 510 -311 635 -251 581 -311 "},"ī":{"ha":338,"x_min":0,"x_max":0,"o":"m -10 888 b -103 985 -62 888 -103 926 b -10 1085 -103 1046 -62 1085 l 351 1085 b 442 985 406 1085 442 1046 b 351 888 442 925 406 888 l -10 888 m 169 -8 b 43 117 97 -8 43 50 l 43 622 b 169 747 43 689 97 747 b 294 622 244 747 294 689 l 294 117 b 169 -8 294 50 240 -8 "},"į":{"ha":342,"x_min":0,"x_max":0,"o":"m 174 796 b 25 943 96 796 25 860 b 174 1090 25 1025 92 1090 b 319 943 257 1090 319 1026 b 174 796 319 861 257 796 m 64 -328 b -75 -203 -21 -328 -75 -278 b 106 11 -75 -125 1 -46 b 47 117 69 33 47 74 l 47 622 b 174 747 47 689 101 747 b 299 622 249 747 299 689 l 299 117 b 214 -1 299 63 264 15 b 94 -161 140 -56 94 -115 b 138 -210 94 -192 111 -210 b 183 -200 160 -210 168 -200 b 222 -242 203 -200 222 -210 b 176 -303 222 -268 204 -287 b 64 -328 147 -318 107 -328 "},"ĩ":{"ha":338,"x_min":0,"x_max":0,"o":"m -65 814 b -154 918 -111 814 -154 849 b 13 1089 -154 1008 -81 1089 b 267 1015 124 1089 210 1015 b 404 1089 331 1015 344 1089 b 494 988 460 1089 494 1047 b 331 814 494 901 429 814 b 75 889 217 814 131 889 b -65 814 13 889 -6 814 m 169 -8 b 43 117 97 -8 43 50 l 43 622 b 169 747 43 689 97 747 b 294 622 244 747 294 689 l 294 117 b 169 -8 294 50 240 -8 "},"ȷ":{"ha":338,"x_min":0,"x_max":0,"o":"m 169 -311 b 43 -187 97 -311 43 -251 l 43 622 b 169 747 43 689 97 747 b 294 622 244 747 294 689 l 294 -187 b 169 -311 294 -251 240 -311 "},"ĵ":{"ha":339,"x_min":0,"x_max":0,"o":"m -40 821 b -131 921 -96 821 -131 867 b -40 1042 -131 990 -96 1017 l 126 1118 b 172 1131 147 1128 161 1131 b 263 1099 188 1131 207 1124 l 399 1035 b 472 921 438 1017 472 994 b 383 821 472 867 435 821 b 286 854 354 821 343 828 l 172 907 l 42 847 b -40 821 28 840 -4 821 m 169 -311 b 43 -187 97 -311 43 -251 l 43 622 b 169 747 43 689 97 747 b 294 622 244 747 294 689 l 294 -187 b 169 -311 294 -251 240 -311 "},"ķ":{"ha":719,"x_min":0,"x_max":0,"o":"m 174 -8 b 47 117 101 -8 47 50 l 47 943 b 174 1068 47 1011 101 1068 b 299 943 244 1068 299 1011 l 299 499 l 481 693 b 576 747 499 713 535 747 b 694 633 646 747 694 694 b 606 489 694 588 672 556 l 532 417 l 690 206 b 739 108 717 171 739 140 b 622 -8 739 42 689 -8 b 494 82 567 -8 542 15 l 299 351 l 299 117 b 174 -8 299 50 244 -8 m 294 -328 b 211 -261 242 -328 211 -306 b 224 -208 211 -250 214 -228 l 276 -104 b 375 -37 293 -71 319 -37 b 485 -126 444 -37 485 -75 b 471 -174 485 -146 481 -158 l 404 -272 b 294 -328 372 -318 340 -328 "},"ĸ":{"ha":719,"x_min":0,"x_max":0,"o":"m 174 -8 b 47 117 101 -8 47 50 l 47 622 b 174 747 47 690 101 747 b 299 622 244 747 299 690 l 299 499 l 481 693 b 576 747 499 713 535 747 b 694 633 646 747 694 694 b 606 489 694 588 672 556 l 532 417 l 690 206 b 739 108 717 171 739 140 b 622 -8 739 42 689 -8 b 494 82 567 -8 542 15 l 299 351 l 299 117 b 174 -8 299 50 244 -8 "},"ĺ":{"ha":338,"x_min":0,"x_max":0,"o":"m 76 1099 b -25 1210 11 1099 -25 1146 b 36 1297 -25 1247 -14 1276 l 238 1388 b 308 1404 260 1399 286 1404 b 411 1296 371 1404 411 1353 b 357 1208 411 1260 397 1226 l 172 1125 b 76 1099 111 1099 96 1099 m 169 -8 b 43 117 97 -8 43 50 l 43 943 b 169 1068 43 1011 97 1068 b 294 943 244 1068 294 1011 l 294 117 b 169 -8 294 50 240 -8 "},"ľ":{"ha":328,"x_min":0,"x_max":0,"o":"m 433 810 b 333 890 368 810 333 844 b 344 965 333 925 342 956 l 369 1056 b 461 1129 386 1117 431 1129 b 572 1036 526 1129 572 1094 b 561 988 572 1024 569 1011 l 514 865 b 433 810 508 851 490 810 m 169 -8 b 43 117 97 -8 43 50 l 43 943 b 169 1068 43 1011 97 1068 b 294 943 244 1068 294 1011 l 294 117 b 169 -8 294 50 240 -8 "},"ļ":{"ha":338,"x_min":0,"x_max":0,"o":"m 169 -8 b 43 117 97 -8 43 50 l 43 943 b 169 1068 43 1011 97 1068 b 294 943 244 1068 294 1011 l 294 117 b 169 -8 294 50 240 -8 m 78 -328 b -6 -261 25 -328 -6 -306 b 7 -208 -6 -250 -3 -228 l 60 -104 b 158 -37 76 -71 103 -37 b 268 -126 228 -37 268 -75 b 254 -174 268 -146 264 -158 l 188 -272 b 78 -328 156 -318 124 -328 "},"ŀ":{"ha":553,"x_min":0,"x_max":0,"o":"m 169 -8 b 43 117 97 -8 43 50 l 43 943 b 169 1068 43 1011 97 1068 b 294 943 244 1068 294 1011 l 294 117 b 169 -8 294 50 240 -8 m 449 413 b 328 532 382 413 328 467 b 449 653 328 599 382 653 b 569 532 515 653 569 599 b 449 413 569 467 515 413 "},"ł":{"ha":497,"x_min":0,"x_max":0,"o":"m 250 -8 b 124 117 178 -8 124 50 l 124 353 b 57 314 101 326 82 314 b -14 393 24 314 -14 349 b 31 472 -14 421 0 440 l 124 569 l 124 943 b 250 1068 124 1011 178 1068 b 375 943 325 1068 375 1011 l 375 746 b 442 785 397 771 417 785 b 511 706 475 785 511 750 b 469 626 511 676 499 657 l 375 529 l 375 117 b 250 -8 375 50 321 -8 "},"ń":{"ha":800,"x_min":0,"x_max":0,"o":"m 324 819 b 222 931 258 819 222 867 b 283 1018 222 968 233 999 l 485 1108 b 556 1125 507 1119 533 1125 b 658 1017 618 1125 658 1074 b 604 929 658 981 644 947 l 419 846 b 324 819 358 819 343 819 m 174 -8 b 47 117 101 -8 47 50 l 47 622 b 174 747 47 689 101 747 b 292 686 242 747 274 711 l 296 681 l 299 681 b 486 765 332 733 393 765 b 753 518 656 765 753 669 l 753 117 b 626 -8 753 54 699 -8 b 500 117 556 -8 500 54 l 500 447 b 400 556 500 514 463 556 b 299 447 336 556 299 506 l 299 117 b 174 -8 299 50 244 -8 "},"ŉ":{"ha":800,"x_min":0,"x_max":0,"o":"m 17 810 b -83 890 -49 810 -83 844 b -72 965 -83 925 -75 956 l -47 1056 b 44 1129 -31 1117 14 1129 b 156 1036 110 1129 156 1094 b 144 988 156 1024 153 1011 l 97 865 b 17 810 92 851 74 810 m 174 -8 b 47 117 101 -8 47 50 l 47 622 b 174 747 47 689 101 747 b 292 686 242 747 274 711 l 296 681 l 299 681 b 486 765 332 733 393 765 b 753 518 656 765 753 669 l 753 117 b 626 -8 753 54 699 -8 b 500 117 556 -8 500 54 l 500 447 b 400 556 500 514 463 556 b 299 447 336 556 299 506 l 299 117 b 174 -8 299 50 244 -8 "},"ň":{"ha":800,"x_min":0,"x_max":0,"o":"m 390 821 b 344 833 379 821 365 824 l 178 910 b 88 1032 122 935 88 961 b 178 1131 88 1085 122 1131 b 260 1104 214 1131 246 1111 l 390 1044 l 504 1097 b 601 1131 561 1124 572 1131 b 690 1032 653 1131 690 1085 b 617 917 690 957 656 935 l 481 853 b 390 821 425 828 406 821 m 174 -8 b 47 117 101 -8 47 50 l 47 622 b 174 747 47 689 101 747 b 292 686 242 747 274 711 l 296 681 l 299 681 b 486 765 332 733 393 765 b 753 518 656 765 753 669 l 753 117 b 626 -8 753 54 699 -8 b 500 117 556 -8 500 54 l 500 447 b 400 556 500 514 463 556 b 299 447 336 556 299 506 l 299 117 b 174 -8 299 50 244 -8 "},"ņ":{"ha":800,"x_min":0,"x_max":0,"o":"m 174 -8 b 47 117 101 -8 47 50 l 47 622 b 174 747 47 689 101 747 b 292 686 242 747 274 711 l 296 681 l 299 681 b 486 765 332 733 393 765 b 753 518 656 765 753 669 l 753 117 b 626 -8 753 54 699 -8 b 500 117 556 -8 500 54 l 500 447 b 400 556 500 514 463 556 b 299 447 336 556 299 506 l 299 117 b 174 -8 299 50 244 -8 m 317 -328 b 233 -261 264 -328 233 -306 b 246 -208 233 -250 236 -228 l 299 -104 b 397 -37 315 -71 342 -37 b 507 -126 467 -37 507 -75 b 493 -174 507 -146 503 -158 l 426 -272 b 317 -328 394 -318 363 -328 "},"ŋ":{"ha":800,"x_min":0,"x_max":0,"o":"m 458 -304 b 194 -132 326 -304 194 -249 b 293 -15 194 -82 231 -15 b 438 -58 351 -15 382 -58 b 500 29 485 -58 500 -24 l 500 451 b 401 556 500 511 464 556 b 299 447 338 556 299 506 l 299 117 b 174 -8 299 50 244 -8 b 47 117 101 -8 47 50 l 47 622 b 174 747 47 689 101 747 b 292 686 242 747 274 711 l 296 681 l 299 681 b 482 765 329 726 385 765 b 753 518 654 765 753 671 l 753 22 b 458 -304 753 -212 631 -304 "},"ñ":{"ha":800,"x_min":0,"x_max":0,"o":"m 176 814 b 88 918 131 814 88 849 b 254 1089 88 1008 161 1089 b 508 1015 365 1089 451 1015 b 646 1089 572 1015 586 1089 b 736 988 701 1089 736 1047 b 572 814 736 901 671 814 b 317 889 458 814 372 889 b 176 814 254 889 236 814 m 174 -8 b 47 117 101 -8 47 50 l 47 622 b 174 747 47 689 101 747 b 292 686 242 747 274 711 l 296 681 l 299 681 b 486 765 332 733 393 765 b 753 518 656 765 753 669 l 753 117 b 626 -8 753 54 699 -8 b 500 117 556 -8 500 54 l 500 447 b 400 556 500 514 463 556 b 299 447 336 556 299 506 l 299 117 b 174 -8 299 50 244 -8 "},"ó":{"ha":796,"x_min":0,"x_max":0,"o":"m 326 819 b 225 931 261 819 225 867 b 286 1018 225 968 236 999 l 488 1108 b 558 1125 510 1119 536 1125 b 661 1017 621 1125 661 1074 b 607 929 661 981 647 947 l 422 846 b 326 819 361 819 346 819 m 397 -26 b 18 369 178 -26 18 149 b 397 765 18 600 179 765 b 778 369 608 765 778 606 b 397 -26 778 149 617 -26 m 397 219 b 526 369 474 219 526 282 b 396 519 526 457 475 519 b 267 369 319 519 267 457 b 397 219 267 281 321 219 "},"ŏ":{"ha":796,"x_min":0,"x_max":0,"o":"m 401 801 b 126 1042 251 801 126 906 b 218 1144 126 1099 154 1144 b 308 1054 261 1144 286 1113 b 401 969 326 1003 347 969 b 494 1054 454 969 476 1003 b 585 1144 517 1114 542 1144 b 675 1042 647 1144 675 1099 b 401 801 675 906 550 801 m 397 -26 b 18 369 178 -26 18 149 b 397 765 18 600 179 765 b 778 369 608 765 778 606 b 397 -26 778 149 617 -26 m 397 219 b 526 369 474 219 526 282 b 396 519 526 457 475 519 b 267 369 319 519 267 457 b 397 219 267 281 321 219 "},"ô":{"ha":796,"x_min":0,"x_max":0,"o":"m 192 821 b 101 921 136 821 101 867 b 192 1042 101 990 136 1017 l 358 1118 b 404 1131 379 1128 393 1131 b 494 1099 419 1131 439 1124 l 631 1035 b 704 921 669 1017 704 994 b 615 821 704 867 667 821 b 518 854 586 821 575 828 l 404 907 l 274 847 b 192 821 260 840 228 821 m 397 -26 b 18 369 178 -26 18 149 b 397 765 18 600 179 765 b 778 369 608 765 778 606 b 397 -26 778 149 617 -26 m 397 219 b 526 369 474 219 526 282 b 396 519 526 457 475 519 b 267 369 319 519 267 457 b 397 219 267 281 321 219 "},"ö":{"ha":796,"x_min":0,"x_max":0,"o":"m 233 863 b 114 982 167 863 114 917 b 233 1103 114 1049 167 1103 b 354 982 300 1103 354 1049 b 233 863 354 917 300 863 m 579 863 b 458 982 513 863 458 917 b 579 1103 458 1049 513 1103 b 699 982 644 1103 699 1049 b 579 863 699 917 644 863 m 397 -26 b 18 369 178 -26 18 149 b 397 765 18 600 179 765 b 778 369 608 765 778 606 b 397 -26 778 149 617 -26 m 397 219 b 526 369 474 219 526 282 b 396 519 526 457 475 519 b 267 369 319 519 267 457 b 397 219 267 281 321 219 "},"ò":{"ha":796,"x_min":0,"x_max":0,"o":"m 472 819 b 378 846 442 819 429 824 l 192 929 b 135 1019 153 947 135 983 b 240 1125 135 1076 179 1125 b 311 1108 263 1125 289 1118 l 513 1018 b 578 928 563 996 578 965 b 472 819 578 864 533 819 m 397 -26 b 18 369 178 -26 18 149 b 397 765 18 600 179 765 b 778 369 608 765 778 606 b 397 -26 778 149 617 -26 m 397 219 b 526 369 474 219 526 282 b 396 519 526 457 475 519 b 267 369 319 519 267 457 b 397 219 267 281 321 219 "},"ő":{"ha":796,"x_min":0,"x_max":0,"o":"m 156 819 b 54 931 90 819 54 867 b 115 1018 54 968 65 999 l 317 1108 b 386 1125 339 1119 365 1125 b 490 1017 450 1125 490 1074 b 436 929 490 981 476 947 l 251 846 b 156 819 192 819 174 819 m 636 819 b 535 931 571 819 535 867 b 596 1018 535 968 547 999 l 797 1108 b 868 1125 819 1119 846 1125 b 972 1017 932 1125 972 1074 b 918 929 972 981 958 947 l 732 846 b 636 819 672 819 656 819 m 397 -26 b 18 369 178 -26 18 149 b 397 765 18 600 179 765 b 778 369 608 765 778 606 b 397 -26 778 149 617 -26 m 397 219 b 526 369 474 219 526 282 b 396 519 526 457 475 519 b 267 369 319 519 267 457 b 397 219 267 281 321 219 "},"ō":{"ha":796,"x_min":0,"x_max":0,"o":"m 219 888 b 126 985 167 888 126 926 b 219 1085 126 1046 167 1085 l 581 1085 b 671 985 635 1085 671 1046 b 581 888 671 925 635 888 l 219 888 m 397 -26 b 18 369 178 -26 18 149 b 397 765 18 600 179 765 b 778 369 608 765 778 606 b 397 -26 778 149 617 -26 m 397 219 b 526 369 474 219 526 282 b 396 519 526 457 475 519 b 267 369 319 519 267 457 b 397 219 267 281 321 219 "},"ø":{"ha":794,"x_min":0,"x_max":0,"o":"m 32 -42 b -19 14 1 -42 -19 -18 b 10 71 -19 39 -14 47 l 85 144 b 18 374 42 211 18 288 b 399 769 18 606 186 769 b 633 689 489 769 568 740 l 718 772 b 758 788 729 781 743 788 b 813 732 789 788 813 764 b 792 683 813 717 813 703 l 711 603 b 778 374 756 538 778 460 b 397 -22 778 153 617 -22 b 161 58 304 -22 225 7 l 104 3 b 32 -42 72 -29 54 -42 m 458 510 b 396 524 439 519 421 524 b 267 374 319 524 267 460 b 271 331 267 358 268 343 m 397 224 b 526 374 474 224 526 285 b 524 413 526 388 526 401 l 336 235 b 397 224 356 226 374 224 "},"ǿ":{"ha":794,"x_min":0,"x_max":0,"o":"m 339 819 b 238 931 274 819 238 867 b 299 1018 238 968 249 999 l 500 1108 b 571 1125 522 1119 549 1125 b 674 1017 633 1125 674 1074 b 619 929 674 981 660 947 l 435 846 b 339 819 374 819 358 819 m 32 -42 b -19 14 1 -42 -19 -18 b 10 71 -19 39 -14 47 l 85 144 b 18 374 42 211 18 288 b 399 769 18 606 186 769 b 633 689 489 769 568 740 l 718 772 b 758 788 729 781 743 788 b 813 732 789 788 813 764 b 792 683 813 717 813 703 l 711 603 b 778 374 756 538 778 460 b 397 -22 778 153 617 -22 b 161 58 304 -22 225 7 l 104 3 b 32 -42 72 -29 54 -42 m 458 510 b 396 524 439 519 421 524 b 267 374 319 524 267 460 b 271 331 267 358 268 343 m 397 224 b 526 374 474 224 526 285 b 524 413 526 388 526 401 l 336 235 b 397 224 356 226 374 224 "},"õ":{"ha":796,"x_min":0,"x_max":0,"o":"m 176 814 b 88 918 131 814 88 849 b 254 1089 88 1008 161 1089 b 508 1015 365 1089 451 1015 b 646 1089 572 1015 586 1089 b 736 988 701 1089 736 1047 b 572 814 736 901 671 814 b 317 889 458 814 372 889 b 176 814 254 889 236 814 m 397 -26 b 18 369 178 -26 18 149 b 397 765 18 600 179 765 b 778 369 608 765 778 606 b 397 -26 778 149 617 -26 m 397 219 b 526 369 474 219 526 282 b 396 519 526 457 475 519 b 267 369 319 519 267 457 b 397 219 267 281 321 219 "},"œ":{"ha":1311,"x_min":0,"x_max":0,"o":"m 397 -26 b 18 369 178 -26 18 149 b 397 765 18 600 179 765 b 660 661 500 765 592 728 b 928 765 729 725 822 765 b 1293 394 1139 765 1293 592 b 1182 290 1293 319 1267 290 l 804 290 b 960 208 814 243 856 208 b 1121 249 1019 208 1072 229 b 1179 264 1146 260 1164 264 b 1282 156 1239 264 1282 214 b 1218 50 1282 113 1257 76 b 926 -26 1150 0 1035 -26 b 656 75 815 -26 724 11 b 397 -26 589 11 500 -26 m 1044 460 b 925 553 1043 510 997 553 b 806 460 854 553 806 499 m 397 219 b 526 369 474 219 526 282 b 396 519 526 457 475 519 b 267 369 319 519 267 457 b 397 219 267 281 321 219 "},"þ":{"ha":824,"x_min":0,"x_max":0,"o":"m 169 -311 b 43 -190 97 -311 43 -251 l 43 940 b 169 1068 43 1014 97 1068 b 294 942 243 1068 294 1011 l 294 715 l 297 715 b 465 765 339 744 383 765 b 806 369 664 765 806 589 b 463 -26 806 142 644 -26 b 294 17 381 -26 335 -7 l 293 17 l 294 -190 b 169 -311 294 -251 240 -311 m 425 219 b 556 369 501 219 556 281 b 424 519 556 457 503 519 b 294 369 350 519 294 458 b 425 219 294 282 349 219 "},"ŕ":{"ha":540,"x_min":0,"x_max":0,"o":"m 190 819 b 89 931 125 819 89 867 b 150 1018 89 968 100 999 l 351 1108 b 422 1125 374 1119 400 1125 b 525 1017 485 1125 525 1074 b 471 929 525 981 511 947 l 286 846 b 190 819 225 819 210 819 m 174 -8 b 47 117 101 -8 47 50 l 47 622 b 171 747 47 689 101 747 b 289 686 242 747 271 711 l 293 681 l 296 681 b 444 765 344 731 392 765 b 568 640 510 765 568 714 b 404 497 568 589 550 542 b 299 361 310 468 299 444 l 299 117 b 174 -8 299 50 244 -8 "},"ř":{"ha":540,"x_min":0,"x_max":0,"o":"m 278 821 b 232 833 267 821 253 824 l 65 910 b -25 1032 10 935 -25 961 b 65 1131 -25 1085 10 1131 b 147 1104 101 1131 133 1111 l 278 1044 l 392 1097 b 489 1131 449 1124 460 1131 b 578 1032 540 1131 578 1085 b 504 917 578 957 543 935 l 368 853 b 278 821 313 828 293 821 m 174 -8 b 47 117 101 -8 47 50 l 47 622 b 171 747 47 689 101 747 b 289 686 242 747 271 711 l 293 681 l 296 681 b 444 765 344 731 392 765 b 568 640 510 765 568 714 b 404 497 568 589 550 542 b 299 361 310 468 299 444 l 299 117 b 174 -8 299 50 244 -8 "},"ŗ":{"ha":540,"x_min":0,"x_max":0,"o":"m 174 -8 b 47 117 101 -8 47 50 l 47 622 b 171 747 47 689 101 747 b 289 686 242 747 271 711 l 293 681 l 296 681 b 444 765 344 731 392 765 b 568 640 510 765 568 714 b 404 497 568 589 550 542 b 299 361 310 468 299 444 l 299 117 b 174 -8 299 50 244 -8 m 81 -328 b -3 -261 28 -328 -3 -306 b 10 -208 -3 -250 0 -228 l 63 -104 b 161 -37 79 -71 106 -37 b 271 -126 231 -37 271 -75 b 257 -174 271 -146 267 -158 l 190 -272 b 81 -328 158 -318 126 -328 "},"ś":{"ha":608,"x_min":0,"x_max":0,"o":"m 219 819 b 118 931 154 819 118 867 b 179 1018 118 968 129 999 l 381 1108 b 451 1125 403 1119 429 1125 b 554 1017 514 1125 554 1074 b 500 929 554 981 540 947 l 315 846 b 219 819 254 819 239 819 m 306 -26 b 92 19 225 -26 147 -11 b 17 128 46 44 17 81 b 118 243 17 201 63 243 b 174 231 140 243 157 238 b 313 189 215 215 257 189 b 354 219 343 189 354 207 b 33 513 354 301 33 260 b 321 765 33 647 140 765 b 496 719 378 765 444 750 b 575 599 542 693 575 653 b 471 503 575 535 526 503 b 403 522 447 503 428 511 b 307 551 369 538 333 551 b 272 517 283 551 272 539 b 592 225 272 450 592 457 b 306 -26 592 60 463 -26 "},"š":{"ha":608,"x_min":0,"x_max":0,"o":"m 313 821 b 267 833 301 821 288 824 l 100 910 b 10 1032 44 935 10 961 b 100 1131 10 1085 44 1131 b 182 1104 136 1131 168 1111 l 313 1044 l 426 1097 b 524 1131 483 1124 494 1131 b 613 1032 575 1131 613 1085 b 539 917 613 957 578 935 l 403 853 b 313 821 347 828 328 821 m 306 -26 b 92 19 225 -26 147 -11 b 17 128 46 44 17 81 b 118 243 17 201 63 243 b 174 231 140 243 157 238 b 313 189 215 215 257 189 b 354 219 343 189 354 207 b 33 513 354 301 33 260 b 321 765 33 647 140 765 b 496 719 378 765 444 750 b 575 599 542 693 575 653 b 471 503 575 535 526 503 b 403 522 447 503 428 511 b 307 551 369 538 333 551 b 272 517 283 551 272 539 b 592 225 272 450 592 457 b 306 -26 592 60 463 -26 "},"ş":{"ha":608,"x_min":0,"x_max":0,"o":"m 290 -328 b 144 -256 203 -328 144 -301 b 186 -206 144 -235 158 -206 b 260 -228 214 -206 229 -228 b 307 -183 290 -228 307 -211 b 258 -142 307 -162 293 -142 l 239 -142 b 203 -111 225 -142 203 -137 b 243 -43 203 -89 221 -69 l 260 -25 b 92 19 196 -19 136 -6 b 17 128 46 44 17 81 b 118 243 17 201 63 243 b 174 231 140 243 157 238 b 313 189 215 215 257 189 b 354 219 343 189 354 207 b 33 513 354 301 33 260 b 321 765 33 647 140 765 b 496 719 378 765 444 750 b 575 599 542 693 575 653 b 471 503 575 535 526 503 b 403 522 447 503 428 511 b 307 551 369 538 333 551 b 272 517 283 551 272 539 b 592 225 272 450 592 457 b 369 -21 592 83 496 0 l 326 -78 l 328 -79 b 361 -75 339 -76 350 -75 b 476 -181 426 -75 476 -111 b 290 -328 476 -296 358 -328 "},"ŝ":{"ha":608,"x_min":0,"x_max":0,"o":"m 103 821 b 13 921 47 821 13 867 b 103 1042 13 990 47 1017 l 269 1118 b 315 1131 290 1128 304 1131 b 406 1099 331 1131 350 1124 l 542 1035 b 615 921 581 1017 615 994 b 526 821 615 867 578 821 b 429 854 497 821 486 828 l 315 907 l 185 847 b 103 821 171 840 139 821 m 306 -26 b 92 19 225 -26 147 -11 b 17 128 46 44 17 81 b 118 243 17 201 63 243 b 174 231 140 243 157 238 b 313 189 215 215 257 189 b 354 219 343 189 354 207 b 33 513 354 301 33 260 b 321 765 33 647 140 765 b 496 719 378 765 444 750 b 575 599 542 693 575 653 b 471 503 575 535 526 503 b 403 522 447 503 428 511 b 307 551 369 538 333 551 b 272 517 283 551 272 539 b 592 225 272 450 592 457 b 306 -26 592 60 463 -26 "},"ș":{"ha":608,"x_min":0,"x_max":0,"o":"m 306 -26 b 92 19 225 -26 147 -11 b 17 128 46 44 17 81 b 118 243 17 201 63 243 b 174 231 140 243 157 238 b 313 189 215 215 257 189 b 354 219 343 189 354 207 b 33 513 354 301 33 260 b 321 765 33 647 140 765 b 496 719 378 765 444 750 b 575 599 542 693 575 653 b 471 503 575 535 526 503 b 403 522 447 503 428 511 b 307 551 369 538 333 551 b 272 517 283 551 272 539 b 592 225 272 450 592 457 b 306 -26 592 60 463 -26 m 208 -328 b 125 -261 156 -328 125 -306 b 138 -208 125 -250 128 -228 l 190 -104 b 289 -37 207 -71 233 -37 b 399 -126 358 -37 399 -75 b 385 -174 399 -146 394 -158 l 318 -272 b 208 -328 286 -318 254 -328 "},"ß":{"ha":825,"x_min":0,"x_max":0,"o":"m 174 -8 b 47 117 101 -8 47 50 l 47 732 b 392 1068 47 915 178 1068 b 726 781 597 1068 726 957 b 632 588 726 694 685 625 b 801 321 743 539 801 463 b 460 -26 801 92 622 -26 b 321 90 376 -26 321 11 b 435 214 321 163 357 192 b 542 339 494 232 542 268 b 438 458 542 404 507 446 b 318 572 356 474 318 499 b 403 675 318 632 349 656 b 475 757 446 690 475 717 b 396 825 475 794 449 825 b 299 681 333 825 299 779 l 299 117 b 174 -8 299 50 244 -8 "},"ſ":{"ha":368,"x_min":0,"x_max":0,"o":"m 168 -8 b 43 117 96 -8 43 50 l 43 804 b 285 1068 43 939 126 1068 l 297 1068 b 449 951 390 1068 449 1025 b 336 836 449 868 397 836 l 332 836 b 294 783 301 836 294 811 l 294 117 b 168 -8 294 50 239 -8 "},"ŧ":{"ha":536,"x_min":0,"x_max":0,"o":"m 246 -8 b 121 117 175 -8 121 50 l 121 263 l 69 263 b -28 364 13 263 -28 300 b 71 465 -28 428 13 465 l 121 465 l 121 504 l 111 504 b -28 621 19 504 -28 540 b 111 739 -28 703 22 739 l 121 739 l 121 876 b 246 1001 121 943 175 1001 b 372 876 317 1001 372 943 l 372 739 l 435 739 b 564 621 508 739 564 708 b 435 504 564 535 508 504 l 372 504 l 372 465 l 468 465 b 564 364 524 465 564 428 b 468 263 564 299 524 263 l 372 263 l 372 117 b 246 -8 372 50 317 -8 "},"ť":{"ha":564,"x_min":0,"x_max":0,"o":"m 522 810 b 422 890 457 810 422 844 b 433 965 422 925 431 956 l 458 1056 b 550 1129 475 1117 519 1129 b 661 1036 615 1129 661 1094 b 650 988 661 1024 658 1011 l 603 865 b 522 810 597 851 579 810 m 260 -8 b 135 117 189 -8 135 50 l 135 504 b -14 621 31 504 -14 540 b 131 739 -14 703 31 739 l 135 739 l 135 876 b 260 1001 135 943 189 1001 b 386 876 331 1001 386 943 l 386 739 l 449 739 b 578 621 522 739 578 708 b 449 504 578 535 522 504 l 386 504 l 386 117 b 260 -8 386 50 331 -8 "},"ţ":{"ha":564,"x_min":0,"x_max":0,"o":"m 260 -8 b 135 117 189 -8 135 50 l 135 504 b -14 621 31 504 -14 540 b 131 739 -14 703 31 739 l 135 739 l 135 876 b 260 1001 135 943 189 1001 b 386 876 331 1001 386 943 l 386 739 l 449 739 b 578 621 522 739 578 708 b 449 504 578 535 522 504 l 386 504 l 386 117 b 260 -8 386 50 331 -8 m 161 -328 b 78 -261 108 -328 78 -306 b 90 -208 78 -250 81 -228 l 143 -104 b 242 -37 160 -71 186 -37 b 351 -126 311 -37 351 -75 b 338 -174 351 -146 347 -158 l 271 -272 b 161 -328 239 -318 207 -328 "},"ț":{"ha":564,"x_min":0,"x_max":0,"o":"m 260 -8 b 135 117 189 -8 135 50 l 135 504 b -14 621 31 504 -14 540 b 131 739 -14 703 31 739 l 135 739 l 135 876 b 260 1001 135 943 189 1001 b 386 876 331 1001 386 943 l 386 739 l 449 739 b 578 621 522 739 578 708 b 449 504 578 535 522 504 l 386 504 l 386 117 b 260 -8 386 50 331 -8 m 161 -328 b 78 -261 108 -328 78 -306 b 90 -208 78 -250 81 -228 l 143 -104 b 242 -37 160 -71 186 -37 b 351 -126 311 -37 351 -75 b 338 -174 351 -146 347 -158 l 271 -272 b 161 -328 239 -318 207 -328 "},"ú":{"ha":800,"x_min":0,"x_max":0,"o":"m 326 819 b 225 931 261 819 225 867 b 286 1018 225 968 236 999 l 488 1108 b 558 1125 510 1119 536 1125 b 661 1017 621 1125 661 1074 b 607 929 661 981 647 947 l 422 846 b 326 819 361 819 346 819 m 400 -26 b 47 268 186 -26 47 81 l 47 622 b 174 747 47 689 101 747 b 299 622 244 747 299 689 l 299 303 b 400 208 299 250 347 208 b 500 303 451 208 500 249 l 500 622 b 626 747 500 686 556 747 b 753 622 699 747 753 686 l 753 267 b 400 -26 753 92 619 -26 "},"ŭ":{"ha":800,"x_min":0,"x_max":0,"o":"m 403 801 b 128 1042 253 801 128 906 b 219 1144 128 1099 156 1144 b 310 1054 263 1144 288 1113 b 403 969 328 1003 349 969 b 496 1054 456 969 478 1003 b 586 1144 518 1114 543 1144 b 676 1042 649 1144 676 1099 b 403 801 676 906 551 801 m 400 -26 b 47 268 186 -26 47 81 l 47 622 b 174 747 47 689 101 747 b 299 622 244 747 299 689 l 299 303 b 400 208 299 250 347 208 b 500 303 451 208 500 249 l 500 622 b 626 747 500 686 556 747 b 753 622 699 747 753 686 l 753 267 b 400 -26 753 92 619 -26 "},"û":{"ha":800,"x_min":0,"x_max":0,"o":"m 192 821 b 101 921 136 821 101 867 b 192 1042 101 990 136 1017 l 358 1118 b 404 1131 379 1128 393 1131 b 494 1099 419 1131 439 1124 l 631 1035 b 704 921 669 1017 704 994 b 615 821 704 867 667 821 b 518 854 586 821 575 828 l 404 907 l 274 847 b 192 821 260 840 228 821 m 400 -26 b 47 268 186 -26 47 81 l 47 622 b 174 747 47 689 101 747 b 299 622 244 747 299 689 l 299 303 b 400 208 299 250 347 208 b 500 303 451 208 500 249 l 500 622 b 626 747 500 686 556 747 b 753 622 699 747 753 686 l 753 267 b 400 -26 753 92 619 -26 "},"ü":{"ha":800,"x_min":0,"x_max":0,"o":"m 226 863 b 107 982 160 863 107 917 b 226 1103 107 1049 160 1103 b 347 982 293 1103 347 1049 b 226 863 347 917 293 863 m 572 863 b 451 982 506 863 451 917 b 572 1103 451 1049 506 1103 b 692 982 638 1103 692 1049 b 572 863 692 917 638 863 m 400 -26 b 47 268 186 -26 47 81 l 47 622 b 174 747 47 689 101 747 b 299 622 244 747 299 689 l 299 303 b 400 208 299 250 347 208 b 500 303 451 208 500 249 l 500 622 b 626 747 500 686 556 747 b 753 622 699 747 753 686 l 753 267 b 400 -26 753 92 619 -26 "},"ù":{"ha":800,"x_min":0,"x_max":0,"o":"m 472 819 b 378 846 442 819 429 824 l 192 929 b 135 1019 153 947 135 983 b 240 1125 135 1076 179 1125 b 311 1108 263 1125 289 1118 l 513 1018 b 578 928 563 996 578 965 b 472 819 578 864 533 819 m 400 -26 b 47 268 186 -26 47 81 l 47 622 b 174 747 47 689 101 747 b 299 622 244 747 299 689 l 299 303 b 400 208 299 250 347 208 b 500 303 451 208 500 249 l 500 622 b 626 747 500 686 556 747 b 753 622 699 747 753 686 l 753 267 b 400 -26 753 92 619 -26 "},"ű":{"ha":800,"x_min":0,"x_max":0,"o":"m 150 819 b 49 931 85 819 49 867 b 110 1018 49 968 60 999 l 311 1108 b 381 1125 333 1119 360 1125 b 485 1017 444 1125 485 1074 b 431 929 485 981 471 947 l 246 846 b 150 819 186 819 168 819 m 631 819 b 529 931 565 819 529 867 b 590 1018 529 968 542 999 l 792 1108 b 863 1125 814 1119 840 1125 b 967 1017 926 1125 967 1074 b 913 929 967 981 953 947 l 726 846 b 631 819 667 819 650 819 m 400 -26 b 47 268 186 -26 47 81 l 47 622 b 174 747 47 689 101 747 b 299 622 244 747 299 689 l 299 303 b 400 208 299 250 347 208 b 500 303 451 208 500 249 l 500 622 b 626 747 500 686 556 747 b 753 622 699 747 753 686 l 753 267 b 400 -26 753 92 619 -26 "},"ū":{"ha":800,"x_min":0,"x_max":0,"o":"m 219 888 b 126 985 167 888 126 926 b 219 1085 126 1046 167 1085 l 581 1085 b 671 985 635 1085 671 1046 b 581 888 671 925 635 888 l 219 888 m 400 -26 b 47 268 186 -26 47 81 l 47 622 b 174 747 47 689 101 747 b 299 622 244 747 299 689 l 299 303 b 400 208 299 250 347 208 b 500 303 451 208 500 249 l 500 622 b 626 747 500 686 556 747 b 753 622 699 747 753 686 l 753 267 b 400 -26 753 92 619 -26 "},"ų":{"ha":800,"x_min":0,"x_max":0,"o":"m 369 -328 b 231 -203 285 -328 231 -278 b 353 -24 231 -140 279 -76 b 47 268 167 -10 47 94 l 47 622 b 174 747 47 689 101 747 b 299 622 244 747 299 689 l 299 303 b 400 208 299 250 347 208 b 500 303 451 208 500 249 l 500 622 b 626 747 500 686 556 747 b 753 622 699 747 753 686 l 753 267 b 499 -17 753 119 657 13 b 400 -161 438 -67 400 -119 b 443 -210 400 -192 417 -210 b 489 -200 465 -210 474 -200 b 528 -242 508 -200 528 -210 b 482 -303 528 -268 510 -289 b 369 -328 453 -319 413 -328 "},"ů":{"ha":800,"x_min":0,"x_max":0,"o":"m 400 781 b 260 921 325 781 260 839 b 400 1061 260 1000 325 1061 b 540 921 476 1061 540 1003 b 400 781 540 844 476 781 m 400 861 b 460 921 432 861 460 885 b 397 981 460 958 429 981 b 340 921 368 981 340 958 b 400 861 340 883 368 861 m 400 -26 b 47 268 186 -26 47 81 l 47 622 b 174 747 47 689 101 747 b 299 622 244 747 299 689 l 299 303 b 400 208 299 250 347 208 b 500 303 451 208 500 249 l 500 622 b 626 747 500 686 556 747 b 753 622 699 747 753 686 l 753 267 b 400 -26 753 92 619 -26 "},"ũ":{"ha":800,"x_min":0,"x_max":0,"o":"m 169 814 b 81 918 124 814 81 849 b 247 1089 81 1008 154 1089 b 501 1015 358 1089 444 1015 b 639 1089 565 1015 579 1089 b 729 988 694 1089 729 1047 b 565 814 729 901 664 814 b 310 889 451 814 365 889 b 169 814 247 889 229 814 m 400 -26 b 47 268 186 -26 47 81 l 47 622 b 174 747 47 689 101 747 b 299 622 244 747 299 689 l 299 303 b 400 208 299 250 347 208 b 500 303 451 208 500 249 l 500 622 b 626 747 500 686 556 747 b 753 622 699 747 753 686 l 753 267 b 400 -26 753 92 619 -26 "},"ẃ":{"ha":1068,"x_min":0,"x_max":0,"o":"m 461 819 b 360 931 396 819 360 867 b 421 1018 360 968 371 999 l 622 1108 b 693 1125 644 1119 671 1125 b 796 1017 756 1125 796 1074 b 742 929 796 981 782 947 l 557 846 b 461 819 496 819 481 819 m 321 -8 b 168 107 228 -8 190 43 l 31 481 b -10 626 -6 579 -10 597 b 115 747 -10 694 33 747 b 224 674 169 747 210 718 l 321 350 l 324 350 l 415 649 b 533 747 433 706 471 747 b 665 608 585 747 629 731 l 743 350 l 746 350 l 839 661 b 953 747 856 715 894 747 b 1078 626 1035 747 1078 694 b 1004 390 1078 578 1028 451 l 911 140 b 750 -8 876 44 854 -8 b 604 118 674 -8 636 21 l 535 332 l 532 332 l 465 121 b 321 -8 440 44 415 -8 "},"ŵ":{"ha":1068,"x_min":0,"x_max":0,"o":"m 328 821 b 238 921 272 821 238 867 b 328 1042 238 990 272 1017 l 494 1118 b 540 1131 515 1128 529 1131 b 631 1099 556 1131 575 1124 l 767 1035 b 840 921 806 1017 840 994 b 751 821 840 867 803 821 b 654 854 722 821 711 828 l 540 907 l 410 847 b 328 821 396 840 364 821 m 321 -8 b 168 107 228 -8 190 43 l 31 481 b -10 626 -6 579 -10 597 b 115 747 -10 694 33 747 b 224 674 169 747 210 718 l 321 350 l 324 350 l 415 649 b 533 747 433 706 471 747 b 665 608 585 747 629 731 l 743 350 l 746 350 l 839 661 b 953 747 856 715 894 747 b 1078 626 1035 747 1078 694 b 1004 390 1078 578 1028 451 l 911 140 b 750 -8 876 44 854 -8 b 604 118 674 -8 636 21 l 535 332 l 532 332 l 465 121 b 321 -8 440 44 415 -8 "},"ẅ":{"ha":1068,"x_min":0,"x_max":0,"o":"m 361 863 b 242 982 294 863 242 917 b 361 1103 242 1049 294 1103 b 482 982 428 1103 482 1049 b 361 863 482 917 428 863 m 707 863 b 586 982 640 863 586 917 b 707 1103 586 1049 640 1103 b 826 982 772 1103 826 1049 b 707 863 826 917 772 863 m 321 -8 b 168 107 228 -8 190 43 l 31 481 b -10 626 -6 579 -10 597 b 115 747 -10 694 33 747 b 224 674 169 747 210 718 l 321 350 l 324 350 l 415 649 b 533 747 433 706 471 747 b 665 608 585 747 629 731 l 743 350 l 746 350 l 839 661 b 953 747 856 715 894 747 b 1078 626 1035 747 1078 694 b 1004 390 1078 578 1028 451 l 911 140 b 750 -8 876 44 854 -8 b 604 118 674 -8 636 21 l 535 332 l 532 332 l 465 121 b 321 -8 440 44 415 -8 "},"ẁ":{"ha":1068,"x_min":0,"x_max":0,"o":"m 618 819 b 524 846 588 819 575 824 l 338 929 b 281 1019 299 947 281 983 b 386 1125 281 1076 325 1125 b 457 1108 408 1125 435 1118 l 658 1018 b 724 928 708 996 724 965 b 618 819 724 864 679 819 m 321 -8 b 168 107 228 -8 190 43 l 31 481 b -10 626 -6 579 -10 597 b 115 747 -10 694 33 747 b 224 674 169 747 210 718 l 321 350 l 324 350 l 415 649 b 533 747 433 706 471 747 b 665 608 585 747 629 731 l 743 350 l 746 350 l 839 661 b 953 747 856 715 894 747 b 1078 626 1035 747 1078 694 b 1004 390 1078 578 1028 451 l 911 140 b 750 -8 876 44 854 -8 b 604 118 674 -8 636 21 l 535 332 l 532 332 l 465 121 b 321 -8 440 44 415 -8 "},"ý":{"ha":731,"x_min":0,"x_max":0,"o":"m 300 819 b 199 931 235 819 199 867 b 260 1018 199 968 210 999 l 461 1108 b 532 1125 483 1119 510 1125 b 635 1017 594 1125 635 1074 b 581 929 635 981 621 947 l 396 846 b 300 819 335 819 319 819 m 235 -311 b 117 -194 160 -311 117 -256 b 160 -57 117 -151 139 -103 l 228 85 l 56 456 b -3 629 38 496 -3 590 b 122 747 -3 700 51 747 b 249 654 163 747 217 736 l 361 390 l 364 390 l 467 615 b 608 747 503 704 554 747 b 733 619 688 747 733 697 b 682 463 733 588 717 539 l 392 -167 b 235 -311 340 -276 308 -311 "},"ŷ":{"ha":731,"x_min":0,"x_max":0,"o":"m 164 821 b 74 921 108 821 74 867 b 164 1042 74 990 108 1017 l 331 1118 b 376 1131 351 1128 365 1131 b 467 1099 392 1131 411 1124 l 603 1035 b 676 921 642 1017 676 994 b 588 821 676 867 639 821 b 490 854 558 821 547 828 l 376 907 l 246 847 b 164 821 232 840 200 821 m 235 -311 b 117 -194 160 -311 117 -256 b 160 -57 117 -151 139 -103 l 228 85 l 56 456 b -3 629 38 496 -3 590 b 122 747 -3 700 51 747 b 249 654 163 747 217 736 l 361 390 l 364 390 l 467 615 b 608 747 503 704 554 747 b 733 619 688 747 733 697 b 682 463 733 588 717 539 l 392 -167 b 235 -311 340 -276 308 -311 "},"ÿ":{"ha":731,"x_min":0,"x_max":0,"o":"m 201 863 b 82 982 135 863 82 917 b 201 1103 82 1049 135 1103 b 322 982 268 1103 322 1049 b 201 863 322 917 268 863 m 547 863 b 426 982 481 863 426 917 b 547 1103 426 1049 481 1103 b 667 982 613 1103 667 1049 b 547 863 667 917 613 863 m 235 -311 b 117 -194 160 -311 117 -256 b 160 -57 117 -151 139 -103 l 228 85 l 56 456 b -3 629 38 496 -3 590 b 122 747 -3 700 51 747 b 249 654 163 747 217 736 l 361 390 l 364 390 l 467 615 b 608 747 503 704 554 747 b 733 619 688 747 733 697 b 682 463 733 588 717 539 l 392 -167 b 235 -311 340 -276 308 -311 "},"ỳ":{"ha":731,"x_min":0,"x_max":0,"o":"m 421 815 b 326 842 390 815 378 819 l 140 925 b 83 1015 101 943 83 979 b 189 1121 83 1072 128 1121 b 260 1104 211 1121 238 1114 l 461 1014 b 526 924 511 992 526 961 b 421 815 526 860 482 815 m 235 -311 b 117 -194 160 -311 117 -256 b 160 -57 117 -151 139 -103 l 228 85 l 56 456 b -3 629 38 496 -3 590 b 122 747 -3 700 51 747 b 249 654 163 747 217 736 l 361 390 l 364 390 l 467 615 b 608 747 503 704 554 747 b 733 619 688 747 733 697 b 682 463 733 588 717 539 l 392 -167 b 235 -311 340 -276 308 -311 "},"ź":{"ha":692,"x_min":0,"x_max":0,"o":"m 235 819 b 133 931 169 819 133 867 b 194 1018 133 968 144 999 l 396 1108 b 467 1125 418 1119 444 1125 b 569 1017 529 1125 569 1074 b 515 929 569 981 556 947 l 331 846 b 235 819 269 819 254 819 m 110 0 b 0 85 33 0 0 35 b 25 156 0 111 14 143 l 286 507 l 136 507 b 4 622 64 507 4 538 b 136 739 4 708 64 739 l 564 739 b 674 657 639 739 674 710 b 646 590 674 635 658 607 l 369 232 l 560 232 b 692 117 632 232 692 201 b 560 0 692 31 632 0 l 110 0 "},"ž":{"ha":692,"x_min":0,"x_max":0,"o":"m 350 821 b 304 833 339 821 325 824 l 138 910 b 47 1032 82 935 47 961 b 138 1131 47 1085 82 1131 b 219 1104 174 1131 206 1111 l 350 1044 l 464 1097 b 561 1131 521 1124 532 1131 b 650 1032 613 1131 650 1085 b 576 917 650 957 615 935 l 440 853 b 350 821 385 828 365 821 m 110 0 b 0 85 33 0 0 35 b 25 156 0 111 14 143 l 286 507 l 136 507 b 4 622 64 507 4 538 b 136 739 4 708 64 739 l 564 739 b 674 657 639 739 674 710 b 646 590 674 635 658 607 l 369 232 l 560 232 b 692 117 632 232 692 201 b 560 0 692 31 632 0 l 110 0 "},"ż":{"ha":692,"x_min":0,"x_max":0,"o":"m 349 863 b 228 982 282 863 228 917 b 349 1103 228 1049 282 1103 b 469 982 415 1103 469 1049 b 349 863 469 917 415 863 m 110 0 b 0 85 33 0 0 35 b 25 156 0 111 14 143 l 286 507 l 136 507 b 4 622 64 507 4 538 b 136 739 4 708 64 739 l 564 739 b 674 657 639 739 674 710 b 646 590 674 635 658 607 l 369 232 l 560 232 b 692 117 632 232 692 201 b 560 0 692 31 632 0 l 110 0 "},"ﬀ":{"ha":940,"x_min":0,"x_max":0,"o":"m 239 -8 b 113 117 167 -8 111 50 l 113 504 l 100 504 b -36 621 4 504 -36 540 b 104 739 -36 703 11 739 l 113 739 l 113 804 b 356 1068 113 939 196 1068 l 367 1068 b 517 951 460 1068 517 1025 b 406 836 517 868 468 836 l 401 836 b 364 783 371 836 364 811 l 364 739 l 539 739 l 539 804 b 782 1068 539 939 622 1068 l 794 1068 b 943 951 888 1068 943 1025 b 833 836 943 868 894 836 l 829 836 b 790 783 799 836 790 811 l 790 739 l 846 739 b 976 621 919 739 976 708 b 846 504 976 535 919 504 l 790 504 l 790 117 b 665 -8 790 50 736 -8 b 539 117 593 -8 538 50 l 539 504 l 364 504 l 364 117 b 239 -8 364 50 308 -8 "},"ﬃ":{"ha":1300,"x_min":0,"x_max":0,"o":"m 1135 796 b 986 943 1057 796 986 860 b 1135 1090 986 1025 1053 1090 b 1281 943 1219 1090 1281 1026 b 1135 796 1281 861 1218 796 m 239 -8 b 113 117 167 -8 111 50 l 113 504 l 100 504 b -36 621 4 504 -36 540 b 104 739 -36 703 11 739 l 113 739 l 113 804 b 356 1068 113 939 196 1068 l 367 1068 b 517 951 460 1068 517 1025 b 406 836 517 868 468 836 l 401 836 b 364 783 371 836 364 811 l 364 739 l 539 739 l 539 804 b 782 1068 539 939 622 1068 l 794 1068 b 943 951 888 1068 943 1025 b 833 836 943 868 894 836 l 829 836 b 790 783 799 836 790 811 l 790 739 l 846 739 b 976 621 919 739 976 708 b 846 504 976 535 919 504 l 790 504 l 790 117 b 665 -8 790 50 736 -8 b 539 117 593 -8 538 50 l 539 504 l 364 504 l 364 117 b 239 -8 364 50 308 -8 m 1135 -8 b 1008 117 1063 -8 1008 50 l 1008 622 b 1135 747 1008 689 1063 747 b 1260 622 1210 747 1260 689 l 1260 117 b 1135 -8 1260 50 1206 -8 "},"ﬄ":{"ha":1299,"x_min":0,"x_max":0,"o":"m 239 -8 b 113 117 167 -8 111 50 l 113 504 l 100 504 b -36 621 4 504 -36 540 b 104 739 -36 703 11 739 l 113 739 l 113 804 b 356 1068 113 939 196 1068 l 367 1068 b 517 951 460 1068 517 1025 b 406 836 517 868 468 836 l 401 836 b 364 783 371 836 364 811 l 364 739 l 539 739 l 539 804 b 782 1068 539 939 622 1068 l 794 1068 b 943 951 888 1068 943 1025 b 833 836 943 868 894 836 l 829 836 b 790 783 799 836 790 811 l 790 739 l 846 739 b 976 621 919 739 976 708 b 846 504 976 535 919 504 l 790 504 l 790 117 b 665 -8 790 50 736 -8 b 539 117 593 -8 538 50 l 539 504 l 364 504 l 364 117 b 239 -8 364 50 308 -8 m 1131 -8 b 1004 117 1058 -8 1004 50 l 1004 943 b 1131 1068 1004 1011 1058 1068 b 1256 943 1206 1068 1256 1011 l 1256 117 b 1131 -8 1256 50 1201 -8 "},"ﬁ":{"ha":853,"x_min":0,"x_max":0,"o":"m 688 796 b 539 943 610 796 539 860 b 688 1090 539 1025 606 1090 b 833 943 772 1090 833 1026 b 688 796 833 861 771 796 m 688 747 b 813 622 763 747 813 689 l 813 117 b 688 -8 813 50 758 -8 b 561 117 615 -8 561 50 l 561 590 b 432 504 549 528 497 504 l 378 504 l 378 117 b 253 -8 378 50 322 -8 b 126 117 181 -8 125 50 l 126 504 l 114 504 b -22 621 18 504 -22 540 b 118 739 -22 703 25 739 l 126 739 l 126 804 b 369 1068 126 939 210 1068 l 381 1068 b 531 951 474 1068 531 1025 b 419 836 531 868 482 836 l 415 836 b 378 783 385 836 378 811 l 378 739 l 432 739 b 563 642 500 739 554 714 b 688 747 572 700 622 747 "},"ﬂ":{"ha":851,"x_min":0,"x_max":0,"o":"m 683 1068 b 808 943 758 1068 808 1011 l 808 117 b 683 -8 808 50 754 -8 b 557 117 611 -8 557 50 l 557 575 b 432 504 540 524 492 504 l 378 504 l 378 117 b 253 -8 378 50 322 -8 b 126 117 181 -8 125 50 l 126 504 l 114 504 b -22 621 18 504 -22 540 b 118 739 -22 703 25 739 l 126 739 l 126 804 b 369 1068 126 939 210 1068 l 381 1068 b 531 951 474 1068 531 1025 b 419 836 531 868 482 836 l 415 836 b 378 783 385 836 378 811 l 378 739 l 432 739 b 557 668 492 739 540 719 l 557 943 b 683 1068 557 1011 611 1068 "},"ª":{"ha":532,"x_min":0,"x_max":0,"o":"m 243 543 b 13 782 110 543 13 646 b 243 1015 13 917 115 1015 b 361 967 297 1015 335 1000 l 364 967 l 365 971 b 440 1015 372 993 394 1015 b 519 951 490 1015 519 989 l 519 610 b 440 543 519 574 497 543 b 367 585 394 543 374 565 l 365 589 l 363 589 b 243 543 333 560 297 543 m 265 696 b 349 781 313 696 349 733 b 267 861 349 828 313 861 b 181 781 217 861 181 831 b 265 696 181 729 215 696 "},"º":{"ha":514,"x_min":0,"x_max":0,"o":"m 257 543 b 6 782 107 543 6 644 b 257 1015 6 914 107 1015 b 508 782 403 1015 508 914 b 257 543 508 646 399 543 m 257 696 b 340 779 306 696 340 733 b 257 861 340 824 304 861 b 174 778 208 861 174 824 b 257 696 174 733 210 696 "},"ⁿ":{"ha":518,"x_min":0,"x_max":0,"o":"m 107 550 b 29 621 60 550 29 586 l 29 935 b 106 1004 29 969 60 1004 b 183 963 143 1004 171 982 l 186 958 b 319 1015 207 990 251 1015 b 493 864 431 1015 493 951 l 493 621 b 413 551 493 586 461 551 b 333 621 368 551 333 586 l 333 810 b 260 885 333 867 303 885 b 186 814 208 885 186 851 l 186 622 b 107 550 186 578 147 550 "},"А":{"ha":883,"x_min":0,"x_max":0,"o":"m 121 -8 b -4 101 44 -8 -4 33 b 29 247 -4 151 14 207 l 257 854 b 447 1015 293 953 349 1015 b 635 854 540 1015 597 953 l 857 263 b 894 101 876 207 894 154 b 771 -8 894 33 847 -8 b 633 118 692 -8 656 40 l 613 182 l 276 182 l 261 124 b 121 -8 229 21 189 -8 m 538 426 l 453 729 l 450 729 l 354 426 "},"Б":{"ha":878,"x_min":0,"x_max":0,"o":"m 176 0 b 51 128 111 0 51 56 l 51 861 b 183 989 51 933 110 989 l 582 989 b 713 867 663 989 713 944 b 582 746 713 790 663 746 l 314 746 l 314 642 l 525 642 b 851 332 721 642 851 506 b 506 0 851 128 719 0 l 176 0 m 474 232 b 578 315 533 232 578 264 b 472 399 578 379 529 399 l 314 399 l 314 232 "},"В":{"ha":857,"x_min":0,"x_max":0,"o":"m 176 0 b 51 128 111 0 51 56 l 51 861 b 176 989 51 932 111 989 l 476 989 b 746 733 624 989 746 897 b 626 547 746 649 699 578 l 626 543 b 826 300 743 515 826 432 b 481 0 826 117 693 0 l 176 0 m 404 614 b 483 683 447 614 483 639 b 401 757 483 733 449 757 l 314 757 l 314 614 m 451 232 b 554 308 513 232 554 260 b 450 379 554 360 506 379 l 314 379 l 314 232 "},"Г":{"ha":608,"x_min":0,"x_max":0,"o":"m 183 -8 b 51 124 106 -8 51 40 l 51 858 b 183 989 51 936 110 989 l 511 989 b 639 867 588 989 639 940 b 513 746 639 789 586 746 l 314 746 l 314 124 b 183 -8 314 40 260 -8 "},"Ѓ":{"ha":608,"x_min":0,"x_max":0,"o":"m 240 1040 b 139 1151 175 1040 139 1088 b 200 1239 139 1189 150 1218 l 401 1329 b 472 1346 424 1340 450 1346 b 575 1238 535 1346 575 1294 b 521 1150 575 1201 561 1168 l 336 1067 b 240 1040 275 1040 260 1040 m 183 -8 b 51 124 106 -8 51 40 l 51 858 b 183 989 51 936 110 989 l 511 989 b 639 867 588 989 639 940 b 513 746 639 789 586 746 l 314 746 l 314 124 b 183 -8 314 40 260 -8 "},"Ґ":{"ha":610,"x_min":0,"x_max":0,"o":"m 183 -8 b 51 124 106 -8 51 40 l 51 861 b 182 989 51 933 110 989 l 399 989 l 399 1107 b 518 1231 399 1178 443 1231 b 640 1107 590 1231 640 1182 l 640 861 b 514 746 640 793 590 746 l 314 746 l 314 124 b 183 -8 314 40 260 -8 "},"Д":{"ha":1188,"x_min":0,"x_max":0,"o":"m 131 -242 b 11 -118 60 -242 11 -193 l 11 128 b 149 243 11 190 56 243 b 199 429 165 283 183 338 l 269 850 b 404 989 286 954 338 989 l 865 989 b 1003 860 946 989 1003 933 l 1003 243 l 1038 243 b 1168 128 1122 243 1168 193 l 1168 -121 b 1047 -242 1168 -189 1124 -242 b 928 -118 975 -242 928 -193 l 928 0 l 251 0 l 251 -117 b 131 -242 251 -190 208 -242 m 740 243 l 740 746 l 519 746 l 461 408 b 421 243 453 372 439 297 "},"Е":{"ha":674,"x_min":0,"x_max":0,"o":"m 176 0 b 51 128 111 0 51 56 l 51 861 b 176 989 51 932 111 989 l 533 989 b 658 867 606 989 658 940 b 533 746 658 789 606 746 l 313 746 l 313 621 l 513 621 b 638 499 586 621 638 575 b 513 376 638 422 589 376 l 314 376 l 314 243 l 539 243 b 665 122 615 243 665 200 b 540 0 665 49 614 0 l 176 0 "},"Ѐ":{"ha":674,"x_min":0,"x_max":0,"o":"m 408 1051 b 314 1078 376 1051 361 1057 l 128 1161 b 71 1251 88 1179 71 1215 b 176 1357 71 1308 115 1357 b 247 1340 199 1357 225 1350 l 449 1250 b 514 1160 499 1228 514 1197 b 408 1051 514 1096 469 1051 m 176 0 b 51 128 111 0 51 56 l 51 861 b 176 989 51 932 111 989 l 533 989 b 658 867 606 989 658 940 b 533 746 658 789 606 746 l 313 746 l 313 621 l 513 621 b 638 499 586 621 638 575 b 513 376 638 422 589 376 l 314 376 l 314 243 l 539 243 b 665 122 615 243 665 200 b 540 0 665 49 614 0 l 176 0 "},"Ё":{"ha":674,"x_min":0,"x_max":0,"o":"m 172 1096 b 53 1215 106 1096 53 1150 b 172 1336 53 1282 106 1336 b 293 1215 239 1336 293 1282 b 172 1096 293 1150 239 1096 m 518 1096 b 397 1215 451 1096 397 1150 b 518 1336 397 1282 451 1336 b 638 1215 583 1336 638 1282 b 518 1096 638 1150 583 1096 m 176 0 b 51 128 111 0 51 56 l 51 861 b 176 989 51 932 111 989 l 533 989 b 658 867 606 989 658 940 b 533 746 658 789 606 746 l 313 746 l 313 621 l 513 621 b 638 499 586 621 638 575 b 513 376 638 422 589 376 l 314 376 l 314 243 l 539 243 b 665 122 615 243 665 200 b 540 0 665 49 614 0 l 176 0 "},"Ж":{"ha":1322,"x_min":0,"x_max":0,"o":"m 99 -8 b -29 118 24 -8 -29 40 b 10 207 -29 149 -15 179 l 290 525 l 64 771 b 17 875 32 806 17 838 b 142 997 17 942 82 997 b 260 933 189 997 213 986 l 529 615 l 529 865 b 661 997 529 949 583 997 b 792 865 738 997 792 949 l 792 614 l 1063 933 b 1181 997 1110 986 1133 997 b 1306 875 1240 997 1306 942 b 1258 771 1306 838 1290 806 l 1032 525 l 1313 207 b 1351 118 1338 179 1351 149 b 1224 -8 1351 40 1299 -8 b 1057 106 1179 -8 1142 1 l 792 426 l 792 124 b 661 -8 792 40 738 -8 b 529 124 583 -8 529 40 l 529 425 l 265 106 b 99 -8 181 1 143 -8 "},"З":{"ha":782,"x_min":0,"x_max":0,"o":"m 356 -26 b 93 28 269 -26 165 -10 b 8 144 43 54 8 93 b 132 279 8 218 54 279 b 179 269 147 279 161 275 b 360 233 226 258 286 233 b 469 306 438 233 469 265 b 285 386 469 361 415 383 b 133 499 182 389 133 426 b 274 619 133 574 185 617 b 422 701 360 622 422 650 b 339 765 422 744 390 765 b 218 732 281 765 249 743 b 156 715 200 725 179 715 b 43 838 89 715 43 765 b 379 1015 43 933 168 1015 b 704 742 578 1015 704 913 b 564 521 704 633 651 564 b 751 283 685 483 751 414 b 356 -26 751 78 590 -26 "},"И":{"ha":1010,"x_min":0,"x_max":0,"o":"m 183 -8 b 51 128 107 -8 51 39 l 51 865 b 183 997 51 949 106 997 b 314 865 260 997 314 949 l 314 475 l 317 475 l 697 918 b 828 997 740 972 772 997 b 958 864 906 997 958 947 l 958 124 b 828 -8 958 40 906 -8 b 696 124 751 -8 696 40 l 696 511 l 693 511 l 331 90 b 183 -8 272 18 239 -8 "},"Й":{"ha":994,"x_min":0,"x_max":0,"o":"m 517 1024 b 242 1264 367 1024 242 1128 b 333 1367 242 1321 269 1367 b 424 1276 376 1367 401 1335 b 517 1192 442 1225 463 1192 b 610 1276 569 1192 592 1225 b 700 1367 632 1336 657 1367 b 790 1264 763 1367 790 1321 b 517 1024 790 1128 665 1024 m 183 -8 b 51 128 107 -8 51 39 l 51 865 b 183 997 51 949 106 997 b 314 865 260 997 314 949 l 314 475 l 317 475 l 697 918 b 828 997 740 972 772 997 b 958 864 906 997 958 947 l 958 124 b 828 -8 958 40 906 -8 b 696 124 751 -8 696 40 l 696 511 l 693 511 l 331 90 b 183 -8 272 18 239 -8 "},"Ѝ":{"ha":1010,"x_min":0,"x_max":0,"o":"m 628 1051 b 533 1078 596 1051 581 1057 l 347 1161 b 290 1251 307 1179 290 1215 b 396 1357 290 1308 335 1357 b 467 1340 418 1357 444 1350 l 668 1250 b 733 1160 718 1228 733 1197 b 628 1051 733 1096 689 1051 m 183 -8 b 51 128 107 -8 51 39 l 51 865 b 183 997 51 949 106 997 b 314 865 260 997 314 949 l 314 475 l 317 475 l 697 918 b 828 997 740 972 772 997 b 958 864 906 997 958 947 l 958 124 b 828 -8 958 40 906 -8 b 696 124 751 -8 696 40 l 696 511 l 693 511 l 331 90 b 183 -8 272 18 239 -8 "},"К":{"ha":844,"x_min":0,"x_max":0,"o":"m 183 -8 b 51 124 106 -8 51 40 l 51 865 b 183 997 51 949 106 997 b 314 865 260 997 314 949 l 314 614 l 585 933 b 703 997 632 986 656 997 b 828 875 763 997 828 942 b 781 771 828 838 813 806 l 554 525 l 835 207 b 874 118 860 179 874 149 b 746 -8 874 40 821 -8 b 579 106 701 -8 664 1 l 314 426 l 314 124 b 183 -8 314 40 260 -8 "},"Ќ":{"ha":872,"x_min":0,"x_max":0,"o":"m 333 1051 b 232 1163 268 1051 232 1099 b 293 1250 232 1200 243 1229 l 494 1340 b 565 1357 517 1351 543 1357 b 668 1249 628 1357 668 1306 b 614 1161 668 1213 654 1179 l 429 1078 b 333 1051 368 1051 353 1051 m 183 -8 b 51 124 106 -8 51 40 l 51 865 b 183 997 51 949 106 997 b 314 865 260 997 314 949 l 314 614 l 585 933 b 703 997 632 986 656 997 b 828 875 763 997 828 942 b 781 771 828 838 813 806 l 554 525 l 835 207 b 874 118 860 179 874 149 b 746 -8 874 40 821 -8 b 579 106 701 -8 664 1 l 314 426 l 314 124 b 183 -8 314 40 260 -8 "},"Л":{"ha":1019,"x_min":0,"x_max":0,"o":"m 119 -8 b -10 126 40 -8 -10 43 b 53 228 -10 175 11 207 b 161 390 124 267 151 315 l 221 854 b 347 989 235 960 294 989 l 833 989 b 968 860 913 989 968 933 l 968 124 b 836 -8 968 40 914 -8 b 706 124 761 -8 706 40 l 706 746 l 468 746 l 410 308 b 119 -8 382 100 269 -8 "},"М":{"ha":1224,"x_min":0,"x_max":0,"o":"m 147 -8 b 21 118 67 -8 21 54 b 64 403 21 142 26 208 l 142 817 b 308 997 168 951 225 997 b 517 758 435 997 467 911 l 615 456 l 618 456 l 694 700 b 913 997 760 915 794 997 b 1089 815 1011 997 1064 953 l 1194 247 b 1210 118 1207 181 1210 135 b 1083 -8 1210 53 1164 -8 b 935 179 978 -8 956 47 l 885 504 l 882 504 l 754 93 b 617 -8 733 26 694 -8 b 472 103 533 -8 497 24 l 350 504 l 347 504 l 294 163 b 147 -8 271 7 215 -8 "},"Н":{"ha":1010,"x_min":0,"x_max":0,"o":"m 183 -8 b 51 124 106 -8 51 40 l 51 865 b 183 997 51 949 106 997 b 314 865 260 997 314 949 l 314 629 l 696 629 l 696 865 b 828 997 696 949 750 997 b 958 865 904 997 958 949 l 958 124 b 828 -8 958 40 904 -8 b 696 124 750 -8 696 40 l 696 385 l 314 385 l 314 124 b 183 -8 314 40 260 -8 "},"О":{"ha":1065,"x_min":0,"x_max":0,"o":"m 533 -26 b 26 496 231 -26 26 172 b 533 1015 26 817 228 1015 b 1039 494 833 1015 1039 821 b 533 -26 1039 178 843 -26 m 532 217 b 757 496 676 217 757 331 b 532 772 757 656 678 772 b 308 494 394 772 308 660 b 532 217 308 321 401 217 "},"П":{"ha":992,"x_min":0,"x_max":0,"o":"m 183 -8 b 51 124 106 -8 51 40 l 51 863 b 181 989 51 932 107 989 l 811 989 b 940 860 883 989 940 933 l 940 124 b 810 -8 940 40 886 -8 b 678 124 732 -8 678 40 l 678 746 l 314 746 l 314 124 b 183 -8 314 40 260 -8 "},"Р":{"ha":819,"x_min":0,"x_max":0,"o":"m 183 -8 b 51 124 106 -8 51 40 l 51 861 b 176 989 51 933 111 989 l 474 989 b 815 653 629 989 815 881 b 482 300 815 431 681 300 l 314 300 l 314 124 b 183 -8 314 40 260 -8 m 418 533 b 542 643 489 533 542 571 b 422 757 542 721 490 757 l 314 757 l 314 533 "},"С":{"ha":824,"x_min":0,"x_max":0,"o":"m 518 -26 b 26 492 218 -26 26 197 b 536 1015 26 804 229 1015 b 746 978 622 1015 694 1003 b 833 850 801 950 833 908 b 719 726 833 785 786 726 b 657 738 701 726 679 729 b 543 761 621 750 582 761 b 308 499 389 761 308 654 b 514 239 308 347 389 239 b 651 261 588 239 625 257 b 719 275 674 267 694 275 b 838 154 797 275 838 225 b 743 17 838 92 801 46 b 518 -26 686 -12 601 -26 "},"Т":{"ha":693,"x_min":0,"x_max":0,"o":"m 347 -8 b 215 124 269 -8 215 40 l 215 746 l 104 746 b -28 867 24 746 -28 790 b 104 989 -28 944 24 989 l 590 989 b 721 867 669 989 721 944 b 590 746 721 790 669 746 l 478 746 l 478 124 b 347 -8 478 40 425 -8 "},"У":{"ha":843,"x_min":0,"x_max":0,"o":"m 221 -8 b 14 118 113 -8 14 33 b 110 247 14 185 50 247 b 217 231 132 247 176 231 b 304 271 253 231 286 246 l 14 785 b -10 869 4 801 -10 840 b 132 997 -10 940 49 997 b 268 890 182 997 222 982 l 438 546 l 601 897 b 738 997 642 990 685 997 b 867 868 808 997 867 939 b 844 788 867 838 850 801 l 619 315 b 221 -8 492 47 368 -8 "},"Ў":{"ha":843,"x_min":0,"x_max":0,"o":"m 440 1042 b 165 1282 290 1042 165 1146 b 257 1385 165 1339 193 1385 b 347 1294 300 1385 325 1353 b 440 1210 365 1243 386 1210 b 533 1294 493 1210 515 1243 b 624 1385 556 1354 581 1385 b 714 1282 686 1385 714 1339 b 440 1042 714 1146 589 1042 m 221 -8 b 14 118 113 -8 14 33 b 110 247 14 185 50 247 b 217 231 132 247 176 231 b 304 271 253 231 286 246 l 14 785 b -10 869 4 801 -10 840 b 132 997 -10 940 49 997 b 268 890 182 997 222 982 l 438 546 l 601 897 b 738 997 642 990 685 997 b 867 868 808 997 867 939 b 844 788 867 838 850 801 l 619 315 b 221 -8 492 47 368 -8 "},"Ф":{"ha":1072,"x_min":0,"x_max":0,"o":"m 536 -28 b 407 117 464 -28 407 14 l 407 124 b 11 500 149 161 11 294 b 407 875 11 700 147 838 l 407 890 b 536 1028 407 985 464 1028 b 663 890 611 1028 663 982 l 663 875 b 1061 500 926 838 1061 697 b 663 124 1061 299 926 160 l 663 117 b 536 -28 663 11 608 -28 m 407 635 b 292 501 336 615 292 564 b 407 369 292 435 336 385 m 663 369 b 781 501 735 386 781 439 b 663 635 781 561 738 615 l 663 369 "},"Х":{"ha":858,"x_min":0,"x_max":0,"o":"m 126 -8 b -3 124 53 -8 -3 50 b 44 233 -3 156 7 185 l 272 532 l 94 758 b 46 874 69 790 46 826 b 186 997 46 940 101 997 b 296 932 228 997 265 975 l 432 753 l 553 915 b 679 997 588 964 625 997 b 817 874 764 997 817 939 b 768 757 817 824 790 786 l 592 532 l 801 261 b 865 124 828 222 865 186 b 736 -8 865 44 808 -8 b 614 64 683 -8 650 15 l 432 306 l 257 74 b 126 -8 214 15 178 -8 "},"Ч":{"ha":919,"x_min":0,"x_max":0,"o":"m 738 -8 b 606 124 660 -8 606 40 l 606 314 l 453 314 b 38 754 168 314 38 481 l 38 867 b 169 997 38 946 92 997 b 300 865 246 997 300 949 l 300 767 b 482 557 300 639 340 557 l 606 557 l 606 865 b 738 997 606 949 660 997 b 868 865 814 997 868 949 l 868 124 b 738 -8 868 40 814 -8 "},"Ц":{"ha":1139,"x_min":0,"x_max":0,"o":"m 1000 -242 b 879 -118 929 -242 879 -193 l 879 0 l 179 0 b 51 128 110 0 51 57 l 51 865 b 183 997 51 949 106 997 b 314 865 260 997 314 949 l 314 243 l 678 243 l 678 865 b 810 997 678 949 732 997 b 940 865 886 997 940 949 l 940 243 l 993 243 b 1119 128 1074 243 1119 197 l 1119 -121 b 1000 -242 1119 -189 1076 -242 "},"Ш":{"ha":1438,"x_min":0,"x_max":0,"o":"m 179 0 b 51 128 110 0 51 57 l 51 865 b 183 997 51 949 106 997 b 314 865 260 997 314 949 l 314 243 l 588 243 l 588 865 b 718 997 588 949 643 997 b 850 865 796 997 850 949 l 850 243 l 1124 243 l 1124 865 b 1256 997 1124 949 1179 997 b 1386 865 1333 997 1386 949 l 1386 126 b 1261 0 1386 56 1331 0 l 179 0 "},"Щ":{"ha":1586,"x_min":0,"x_max":0,"o":"m 1447 -242 b 1326 -118 1375 -242 1326 -193 l 1326 0 l 179 0 b 51 128 110 0 51 57 l 51 865 b 183 997 51 949 106 997 b 314 865 260 997 314 949 l 314 243 l 588 243 l 588 865 b 718 997 588 949 643 997 b 850 865 796 997 850 949 l 850 243 l 1124 243 l 1124 865 b 1256 997 1124 949 1179 997 b 1386 865 1333 997 1386 949 l 1386 243 l 1439 243 b 1567 128 1518 243 1567 197 l 1567 -119 b 1447 -242 1567 -190 1522 -242 "},"Џ":{"ha":992,"x_min":0,"x_max":0,"o":"m 494 -242 b 374 -118 419 -242 374 -189 l 374 0 l 179 0 b 51 126 108 0 51 58 l 51 865 b 183 997 51 949 106 997 b 314 865 260 997 314 949 l 314 243 l 678 243 l 678 865 b 810 997 678 949 732 997 b 940 865 886 997 940 949 l 940 125 b 817 0 940 56 879 0 l 615 0 l 615 -118 b 494 -242 615 -189 572 -242 "},"Ь":{"ha":871,"x_min":0,"x_max":0,"o":"m 176 0 b 51 128 111 0 51 56 l 51 865 b 183 997 51 949 106 997 b 314 865 260 997 314 949 l 314 642 l 519 642 b 851 332 728 642 851 507 b 506 0 851 128 719 0 l 176 0 m 474 232 b 578 315 533 232 578 264 b 472 399 578 379 529 399 l 314 399 l 314 232 "},"Ъ":{"ha":1013,"x_min":0,"x_max":0,"o":"m 317 0 b 193 128 253 0 193 56 l 193 746 l 101 746 b -31 867 21 746 -31 790 b 101 989 -31 944 18 989 l 332 989 b 456 872 414 989 456 943 l 456 642 l 661 642 b 993 332 864 642 993 514 b 649 0 993 129 863 0 l 317 0 m 614 232 b 721 315 676 232 721 264 b 613 399 721 378 672 399 l 456 399 l 456 232 "},"Ы":{"ha":1218,"x_min":0,"x_max":0,"o":"m 176 0 b 51 128 111 0 51 56 l 51 865 b 183 997 51 949 106 997 b 314 865 260 997 314 949 l 314 642 l 507 642 b 840 332 707 642 840 514 b 494 0 840 128 708 0 l 176 0 m 1035 -8 b 904 124 957 -8 904 40 l 904 865 b 1035 997 904 949 957 997 b 1167 865 1111 997 1167 949 l 1167 124 b 1035 -8 1167 40 1111 -8 m 461 232 b 567 315 521 232 567 264 b 463 399 567 378 521 399 l 314 399 l 314 232 "},"Љ":{"ha":1526,"x_min":0,"x_max":0,"o":"m 119 -8 b -10 126 40 -8 -10 43 b 53 228 -10 175 11 207 b 161 390 124 267 151 315 l 221 856 b 350 989 235 965 294 989 l 842 989 b 968 861 911 989 968 931 l 968 642 l 1175 642 b 1507 332 1378 642 1507 511 b 1161 0 1507 129 1376 0 l 832 0 b 706 128 767 0 706 56 l 706 746 l 468 746 l 410 306 b 119 -8 383 111 268 -8 m 1128 232 b 1233 315 1188 232 1233 264 b 1129 399 1233 379 1186 399 l 968 399 l 968 232 "},"Њ":{"ha":1515,"x_min":0,"x_max":0,"o":"m 183 -8 b 51 124 106 -8 51 40 l 51 865 b 183 997 51 949 106 997 b 314 865 260 997 314 949 l 314 642 l 696 642 l 696 865 b 828 997 696 949 750 997 b 958 865 904 997 958 949 l 958 642 l 1175 642 b 1496 332 1357 642 1496 513 b 1151 0 1496 125 1363 0 l 821 0 b 696 128 756 0 696 56 l 696 399 l 314 399 l 314 124 b 183 -8 314 40 260 -8 m 1118 232 b 1224 315 1179 232 1224 264 b 1118 399 1224 378 1174 399 l 958 399 l 958 232 "},"Ѕ":{"ha":778,"x_min":0,"x_max":0,"o":"m 357 -26 b 107 22 271 -26 176 -10 b 4 151 46 53 4 94 b 132 285 4 224 44 285 b 203 269 158 285 176 278 b 378 231 251 254 299 231 b 467 290 433 231 467 254 b 344 382 467 333 426 357 b 21 686 192 425 21 472 b 399 1015 21 899 171 1015 b 582 988 474 1015 535 1006 b 694 849 656 960 694 911 b 576 728 694 779 650 728 b 524 736 557 728 540 732 b 388 761 486 744 449 761 b 306 708 336 761 306 746 b 436 632 306 668 353 658 b 751 310 622 572 751 524 b 357 -26 751 97 601 -26 "},"Є":{"ha":839,"x_min":0,"x_max":0,"o":"m 522 -26 b 26 490 228 -26 26 201 b 532 1015 26 813 232 1015 b 719 988 610 1015 672 1006 b 826 850 790 960 826 914 b 714 728 826 786 779 728 b 654 739 690 728 671 733 b 535 761 621 750 585 761 b 322 621 431 761 360 721 l 611 621 b 738 499 686 621 738 575 b 611 376 738 419 686 376 l 321 376 b 531 239 351 294 417 239 b 678 265 599 239 640 254 b 719 271 692 269 701 271 b 838 151 799 271 838 221 b 735 13 838 86 796 40 b 522 -26 675 -15 599 -26 "},"Э":{"ha":844,"x_min":0,"x_max":0,"o":"m 318 -26 b 92 21 239 -26 154 -12 b 1 150 38 49 1 90 b 119 272 1 222 43 272 b 168 264 138 272 154 268 b 315 239 218 250 247 239 b 524 376 426 239 499 279 l 232 376 b 107 499 160 376 107 422 b 232 621 107 576 160 621 l 522 621 b 319 761 490 715 428 761 b 175 732 268 761 239 754 b 132 722 164 728 151 722 b 21 843 67 722 21 776 b 100 967 21 896 50 938 b 333 1015 156 999 236 1015 b 818 522 635 1015 818 821 b 318 -26 818 179 621 -26 "},"І":{"ha":365,"x_min":0,"x_max":0,"o":"m 183 -8 b 51 124 106 -8 51 40 l 51 865 b 183 997 51 949 106 997 b 314 865 260 997 314 949 l 314 124 b 183 -8 314 40 260 -8 "},"Ї":{"ha":365,"x_min":0,"x_max":0,"o":"m 15 1096 b -104 1215 -51 1096 -104 1150 b 15 1336 -104 1282 -51 1336 b 136 1215 82 1336 136 1282 b 15 1096 136 1150 82 1096 m 361 1096 b 240 1215 294 1096 240 1150 b 361 1336 240 1282 294 1336 b 481 1215 426 1336 481 1282 b 361 1096 481 1150 426 1096 m 183 -8 b 51 124 106 -8 51 40 l 51 865 b 183 997 51 949 106 997 b 314 865 260 997 314 949 l 314 124 b 183 -8 314 40 260 -8 "},"Ј":{"ha":624,"x_min":0,"x_max":0,"o":"m 249 -26 b -14 150 138 -19 -14 10 b 101 281 -14 226 24 281 b 243 231 158 281 194 231 b 310 372 297 231 310 274 l 310 865 b 440 997 310 949 365 997 b 572 865 518 997 572 949 l 572 319 b 249 -26 572 82 469 -26 "},"Ћ":{"ha":974,"x_min":0,"x_max":0,"o":"m 326 -8 b 194 124 250 -8 194 40 l 194 746 l 101 746 b -31 867 21 746 -31 790 b 101 989 -31 944 18 989 l 621 989 b 751 867 706 989 751 944 b 621 746 751 790 701 746 l 457 746 l 457 650 l 500 650 b 942 250 813 650 942 510 l 942 139 b 810 -8 942 40 899 -8 b 681 128 725 -8 681 44 l 681 192 b 469 413 681 347 632 413 l 457 413 l 457 124 b 326 -8 457 40 404 -8 "},"Ю":{"ha":1457,"x_min":0,"x_max":0,"o":"m 183 -8 b 51 124 106 -8 51 40 l 51 865 b 183 997 51 949 106 997 b 314 865 260 997 314 949 l 314 629 l 453 629 b 935 1015 503 881 689 1015 b 1431 494 1232 1015 1431 818 b 935 -26 1431 174 1233 -26 b 449 385 676 -26 492 119 l 314 385 l 314 124 b 183 -8 314 40 260 -8 m 936 217 b 1149 494 1072 217 1149 325 b 935 772 1149 668 1067 772 b 724 494 804 772 724 667 b 936 217 724 326 804 217 "},"Я":{"ha":832,"x_min":0,"x_max":0,"o":"m 147 -8 b 11 115 61 -8 11 58 b 67 228 11 158 38 197 l 228 399 l 217 403 b 26 669 72 457 26 561 b 365 989 26 867 167 989 l 656 989 b 781 861 719 989 781 933 l 781 124 b 650 -8 781 40 725 -8 b 518 124 572 -8 518 40 l 518 383 l 515 383 l 274 58 b 147 -8 226 -4 194 -8 m 518 574 l 518 746 l 372 746 b 289 664 332 746 289 710 b 372 574 289 617 324 574 "},"Ђ":{"ha":968,"x_min":0,"x_max":0,"o":"m 326 -8 b 194 124 250 -8 194 40 l 194 746 l 101 746 b -31 867 21 746 -31 790 b 101 989 -31 944 18 989 l 621 989 b 751 867 706 989 751 944 b 621 746 751 790 701 746 l 457 746 l 457 650 l 544 650 b 942 319 803 650 942 514 b 758 15 942 168 881 60 b 615 -8 717 0 669 -8 b 476 106 521 -8 476 26 b 585 214 476 169 504 208 b 681 306 643 218 681 246 b 514 413 681 382 617 413 l 457 413 l 457 124 b 326 -8 457 40 404 -8 "},"Ғ":{"ha":715,"x_min":0,"x_max":0,"o":"m 290 -8 b 158 124 213 -8 158 40 l 158 347 l 144 347 b 24 446 72 347 24 364 b 144 547 24 515 53 547 l 158 547 l 158 858 b 290 989 158 936 217 989 l 618 989 b 746 867 694 989 746 940 b 619 746 746 789 693 746 l 421 746 l 421 547 l 549 547 b 642 446 604 547 642 510 b 549 347 642 383 604 347 l 421 347 l 421 124 b 290 -8 421 40 367 -8 "},"Җ":{"ha":1490,"x_min":0,"x_max":0,"o":"m 1350 -242 b 1229 -118 1279 -242 1229 -193 l 1229 7 b 1056 140 1156 25 1111 74 l 819 426 l 819 124 b 689 -8 819 40 765 -8 b 557 124 611 -8 557 40 l 557 425 l 293 106 b 126 -8 208 1 171 -8 b -1 118 51 -8 -1 40 b 38 207 -1 149 13 179 l 318 525 l 92 771 b 44 875 60 806 44 838 b 169 997 44 942 110 997 b 288 933 217 997 240 986 l 557 615 l 557 865 b 689 997 557 949 611 997 b 819 865 765 997 819 949 l 819 614 l 1090 933 b 1208 997 1138 986 1161 997 b 1333 875 1268 997 1333 942 b 1286 771 1333 838 1318 806 l 1060 525 l 1271 285 b 1351 243 1299 254 1322 243 l 1358 243 b 1471 128 1425 243 1471 197 l 1471 -119 b 1350 -242 1471 -190 1426 -242 "},"Қ":{"ha":994,"x_min":0,"x_max":0,"o":"m 856 -242 b 735 -118 785 -242 735 -193 l 735 6 b 557 142 661 18 619 65 l 322 426 l 322 124 b 192 -8 322 40 268 -8 b 60 124 114 -8 60 40 l 60 865 b 192 997 60 949 114 997 b 322 865 268 997 322 949 l 322 614 l 593 933 b 711 997 640 986 664 997 b 836 875 771 997 836 942 b 789 771 836 838 821 806 l 563 525 l 774 285 b 844 243 801 254 814 243 l 850 243 b 975 128 928 243 975 197 l 975 -119 b 856 -242 975 -190 932 -242 "},"Ҝ":{"ha":893,"x_min":0,"x_max":0,"o":"m 183 -8 b 51 124 106 -8 51 40 l 51 865 b 183 997 51 949 106 997 b 314 865 260 997 314 949 l 314 622 l 335 622 l 335 708 b 433 828 335 778 351 828 b 532 708 499 828 532 799 l 532 710 l 535 710 l 592 892 b 719 997 608 947 650 997 b 854 886 789 997 854 960 b 840 819 854 863 849 840 l 742 554 l 876 186 b 890 115 883 167 890 135 b 756 -6 890 47 836 -6 b 593 163 669 -6 625 47 l 535 371 l 532 371 l 532 281 b 433 190 532 229 493 190 b 335 281 374 190 335 229 l 335 397 l 314 397 l 314 124 b 183 -8 314 40 260 -8 "},"Ң":{"ha":1158,"x_min":0,"x_max":0,"o":"m 1018 -242 b 897 -118 947 -242 897 -193 l 897 0 l 811 0 b 696 122 742 0 696 42 l 696 385 l 314 385 l 314 124 b 183 -8 314 40 260 -8 b 51 124 106 -8 51 40 l 51 865 b 183 997 51 949 106 997 b 314 865 260 997 314 949 l 314 629 l 696 629 l 696 865 b 828 997 696 949 750 997 b 958 865 904 997 958 949 l 958 243 l 1013 243 b 1139 128 1090 243 1139 197 l 1139 -119 b 1018 -242 1139 -190 1094 -242 "},"Ү":{"ha":782,"x_min":0,"x_max":0,"o":"m 392 -8 b 260 124 314 -8 260 40 l 260 463 l 90 665 b -29 879 7 776 -29 824 b 107 997 -29 946 26 997 b 247 900 176 997 218 940 l 392 704 l 533 899 b 675 997 603 993 640 997 b 811 879 754 997 811 946 b 700 676 811 828 782 786 l 522 463 l 522 124 b 392 -8 522 40 467 -8 "},"Ҳ":{"ha":1000,"x_min":0,"x_max":0,"o":"m 861 -242 b 740 -118 790 -242 740 -193 l 740 6 b 557 140 653 21 611 68 l 432 306 l 257 74 b 126 -8 214 15 178 -8 b -3 124 53 -8 -3 50 b 44 233 -3 156 7 185 l 272 532 l 94 758 b 46 874 69 790 46 826 b 186 997 46 940 101 997 b 296 932 228 997 265 975 l 432 753 l 553 915 b 679 997 588 964 625 997 b 817 874 764 997 817 939 b 768 757 817 824 790 786 l 592 532 l 782 285 b 850 243 808 251 817 243 l 856 243 b 981 128 935 243 981 197 l 981 -119 b 861 -242 981 -190 939 -242 "},"Ҹ":{"ha":919,"x_min":0,"x_max":0,"o":"m 738 -8 b 606 124 660 -8 606 40 l 606 314 l 544 314 l 544 218 b 444 128 544 165 506 128 b 346 218 385 128 346 165 l 346 321 b 38 754 135 358 38 517 l 38 867 b 169 997 38 946 92 997 b 300 865 246 997 300 949 l 300 767 b 346 592 300 692 308 631 l 346 688 b 444 807 346 758 363 807 b 544 688 511 807 544 778 l 544 557 l 606 557 l 606 865 b 738 997 606 949 660 997 b 868 865 814 997 868 949 l 868 124 b 738 -8 868 40 814 -8 "},"Һ":{"ha":919,"x_min":0,"x_max":0,"o":"m 183 -8 b 51 124 106 -8 51 40 l 51 865 b 183 997 51 949 106 997 b 314 865 260 997 314 949 l 314 660 l 467 660 b 882 219 753 660 882 490 l 882 122 b 750 -8 882 43 828 -8 b 619 124 672 -8 619 40 l 619 206 b 438 417 619 335 581 417 l 314 417 l 314 124 b 183 -8 314 40 260 -8 "},"Ӏ":{"ha":365,"x_min":0,"x_max":0,"o":"m 183 -8 b 51 124 106 -8 51 40 l 51 865 b 183 997 51 949 106 997 b 314 865 260 997 314 949 l 314 124 b 183 -8 314 40 260 -8 "},"Ә":{"ha":996,"x_min":0,"x_max":0,"o":"m 474 -26 b 24 447 199 -26 24 186 b 160 593 24 532 60 593 l 681 593 b 428 757 664 665 599 757 b 246 714 353 757 310 739 b 165 699 213 701 185 699 b 56 818 97 699 56 754 b 443 1015 56 943 260 1015 b 969 493 775 1015 969 814 b 474 -26 969 192 790 -26 m 485 218 b 671 382 601 218 667 311 l 310 382 b 485 218 318 307 372 218 "},"Ө":{"ha":1065,"x_min":0,"x_max":0,"o":"m 533 -26 b 26 496 231 -26 26 172 b 533 1015 26 817 228 1015 b 1039 494 833 1015 1039 821 b 533 -26 1039 178 843 -26 m 746 608 b 532 772 715 708 643 772 b 321 608 426 772 353 710 m 532 217 b 747 393 644 217 718 283 l 319 393 b 532 217 347 278 431 217 "},"а":{"ha":822,"x_min":0,"x_max":0,"o":"m 350 -26 b 18 369 169 -26 18 151 b 351 765 18 592 168 765 b 538 681 422 765 497 740 l 540 681 l 544 688 b 657 747 561 714 593 747 b 779 622 729 747 779 689 l 779 117 b 657 -8 779 50 729 -8 b 546 56 593 -8 560 28 l 544 58 l 542 58 b 350 -26 493 6 431 -26 m 397 219 b 528 369 474 219 528 282 b 396 519 528 457 475 519 b 267 369 321 519 267 460 b 397 219 267 282 321 219 "},"б":{"ha":799,"x_min":0,"x_max":0,"o":"m 403 -26 b 21 424 161 -26 21 125 b 82 750 21 571 46 668 b 432 982 136 874 229 953 b 622 1011 519 994 571 1011 b 729 892 674 1011 729 971 b 607 769 729 824 690 785 b 442 747 525 754 474 753 b 294 643 374 735 313 706 l 299 643 b 478 696 349 678 407 696 b 781 358 658 696 781 554 b 403 -26 781 124 629 -26 m 400 210 b 531 342 485 210 531 271 b 400 472 531 413 483 472 b 269 342 325 472 269 414 b 400 210 269 269 318 210 "},"в":{"ha":783,"x_min":0,"x_max":0,"o":"m 172 0 b 47 128 96 0 47 56 l 47 618 b 172 751 47 697 104 751 l 468 751 b 715 564 624 751 715 681 b 604 406 715 486 672 429 l 604 404 b 758 226 696 389 758 317 b 408 0 758 69 647 0 l 172 0 m 428 467 b 475 504 458 467 475 483 b 428 546 475 529 463 546 l 299 546 l 299 467 m 450 207 b 507 253 483 207 507 222 b 454 294 507 269 492 294 l 299 294 l 299 207 "},"г":{"ha":551,"x_min":0,"x_max":0,"o":"m 174 -8 b 47 117 101 -8 47 50 l 47 625 b 178 739 47 703 100 739 l 428 739 b 557 622 500 739 557 708 b 428 507 557 538 500 507 l 299 507 l 299 117 b 174 -8 299 50 244 -8 "},"ѓ":{"ha":551,"x_min":0,"x_max":0,"o":"m 196 819 b 94 931 131 819 94 867 b 156 1018 94 968 106 999 l 357 1108 b 428 1125 379 1119 406 1125 b 531 1017 490 1125 531 1074 b 476 929 531 981 517 947 l 292 846 b 196 819 231 819 215 819 m 174 -8 b 47 117 101 -8 47 50 l 47 625 b 178 739 47 703 100 739 l 428 739 b 557 622 500 739 557 708 b 428 507 557 538 500 507 l 299 507 l 299 117 b 174 -8 299 50 244 -8 "},"ґ":{"ha":553,"x_min":0,"x_max":0,"o":"m 174 -8 b 47 117 101 -8 47 50 l 47 624 b 178 739 47 703 100 739 l 338 739 l 338 842 b 449 961 338 913 378 961 b 558 840 513 961 558 914 l 558 618 b 429 507 558 544 506 507 l 299 507 l 299 117 b 174 -8 299 50 244 -8 "},"д":{"ha":972,"x_min":0,"x_max":0,"o":"m 114 -222 b 3 -103 44 -222 3 -174 l 3 103 b 118 232 3 175 28 232 l 124 232 b 164 410 132 264 143 281 l 196 615 b 326 739 213 711 258 739 l 703 739 b 831 625 779 739 831 704 l 831 232 l 833 232 b 964 118 932 232 964 182 l 964 -90 b 854 -222 964 -178 928 -222 b 746 -103 786 -222 746 -174 l 746 0 l 219 0 l 219 -103 b 114 -222 219 -174 182 -222 m 579 232 l 579 507 l 425 507 l 401 354 b 375 232 390 288 383 260 "},"е":{"ha":796,"x_min":0,"x_max":0,"o":"m 410 -26 b 18 369 174 -26 18 149 b 411 765 18 586 186 765 b 778 394 622 765 778 592 b 665 290 778 319 750 290 l 288 290 b 443 208 297 243 340 208 b 604 247 503 208 556 229 b 663 264 629 260 647 264 b 767 156 724 264 767 214 b 703 50 767 113 742 76 b 410 -26 633 0 518 -26 m 528 460 b 410 553 526 510 481 553 b 289 460 339 553 289 499 "},"ѐ":{"ha":796,"x_min":0,"x_max":0,"o":"m 476 819 b 382 846 446 819 433 824 l 196 929 b 139 1019 157 947 139 983 b 244 1125 139 1076 183 1125 b 315 1108 267 1125 293 1118 l 517 1018 b 582 928 567 996 582 965 b 476 819 582 864 538 819 m 410 -26 b 18 369 174 -26 18 149 b 411 765 18 586 186 765 b 778 394 622 765 778 592 b 665 290 778 319 750 290 l 288 290 b 443 208 297 243 340 208 b 604 247 503 208 556 229 b 663 264 629 260 647 264 b 767 156 724 264 767 214 b 703 50 767 113 742 76 b 410 -26 633 0 518 -26 m 528 460 b 410 553 526 510 481 553 b 289 460 339 553 289 499 "},"ё":{"ha":796,"x_min":0,"x_max":0,"o":"m 238 863 b 118 982 171 863 118 917 b 238 1103 118 1049 171 1103 b 358 982 304 1103 358 1049 b 238 863 358 917 304 863 m 583 863 b 463 982 517 863 463 917 b 583 1103 463 1049 517 1103 b 703 982 649 1103 703 1049 b 583 863 703 917 649 863 m 410 -26 b 18 369 174 -26 18 149 b 411 765 18 586 186 765 b 778 394 622 765 778 592 b 665 290 778 319 750 290 l 288 290 b 443 208 297 243 340 208 b 604 247 503 208 556 229 b 663 264 629 260 647 264 b 767 156 724 264 767 214 b 703 50 767 113 742 76 b 410 -26 633 0 518 -26 m 528 460 b 410 553 526 510 481 553 b 289 460 339 553 289 499 "},"ж":{"ha":1090,"x_min":0,"x_max":0,"o":"m 107 -8 b -14 101 36 -8 -14 43 b 7 175 -14 126 -10 153 l 175 394 l 81 492 b -3 633 14 561 -3 593 b 119 747 -3 699 46 747 b 232 685 165 747 197 725 l 419 475 l 419 622 b 546 747 419 689 474 747 b 671 622 617 747 671 689 l 671 475 l 858 685 b 971 747 893 725 925 747 b 1093 633 1044 747 1093 699 b 1010 492 1093 593 1076 561 l 915 394 l 1083 175 b 1104 101 1100 153 1104 126 b 983 -8 1104 43 1054 -8 b 843 81 925 -8 890 11 l 671 332 l 671 117 b 546 -8 671 50 617 -8 b 419 117 474 -8 419 50 l 419 332 l 247 81 b 107 -8 200 11 165 -8 "},"з":{"ha":638,"x_min":0,"x_max":0,"o":"m 289 -26 b 69 32 210 -26 125 -6 b 4 135 29 58 4 93 b 107 244 4 201 47 244 b 188 222 131 244 158 238 b 299 188 242 193 265 188 b 365 231 346 188 365 206 b 260 274 365 256 339 272 b 144 369 172 275 144 318 b 271 464 144 429 186 456 b 346 511 324 469 346 486 b 293 551 346 535 331 551 b 188 514 258 551 222 529 b 131 500 169 507 149 500 b 29 593 72 500 29 533 b 96 711 29 644 54 683 b 313 764 149 747 228 764 b 592 547 483 764 592 675 b 478 385 592 475 553 417 l 478 382 b 613 206 564 346 613 293 b 289 -26 613 56 489 -26 "},"и":{"ha":817,"x_min":0,"x_max":0,"o":"m 165 -8 b 47 118 88 -8 47 49 l 47 618 b 174 749 47 693 101 749 b 299 624 244 749 299 692 l 299 369 l 301 369 l 494 635 b 661 749 567 735 606 749 b 769 622 726 749 769 692 l 769 117 b 643 -8 769 54 715 -8 b 517 117 572 -8 517 53 l 517 349 l 514 349 l 338 111 b 165 -8 256 1 221 -8 "},"й":{"ha":817,"x_min":0,"x_max":0,"o":"m 419 801 b 144 1042 269 801 144 906 b 236 1144 144 1099 172 1144 b 326 1054 279 1144 304 1113 b 419 969 344 1003 365 969 b 513 1054 472 969 494 1003 b 603 1144 535 1114 560 1144 b 693 1042 665 1144 693 1099 b 419 801 693 906 568 801 m 165 -8 b 47 118 88 -8 47 49 l 47 618 b 174 749 47 693 101 749 b 299 624 244 749 299 692 l 299 369 l 301 369 l 494 635 b 661 749 567 735 606 749 b 769 622 726 749 769 692 l 769 117 b 643 -8 769 54 715 -8 b 517 117 572 -8 517 53 l 517 349 l 514 349 l 338 111 b 165 -8 256 1 221 -8 "},"ѝ":{"ha":817,"x_min":0,"x_max":0,"o":"m 539 819 b 444 846 508 819 496 824 l 258 929 b 201 1019 219 947 201 983 b 307 1125 201 1076 246 1125 b 378 1108 329 1125 356 1118 l 579 1018 b 644 928 629 996 644 965 b 539 819 644 864 600 819 m 165 -8 b 47 118 88 -8 47 49 l 47 618 b 174 749 47 693 101 749 b 299 624 244 749 299 692 l 299 369 l 301 369 l 494 635 b 661 749 567 735 606 749 b 769 622 726 749 769 692 l 769 117 b 643 -8 769 54 715 -8 b 517 117 572 -8 517 53 l 517 349 l 514 349 l 338 111 b 165 -8 256 1 221 -8 "},"к":{"ha":715,"x_min":0,"x_max":0,"o":"m 174 -8 b 47 117 101 -8 47 50 l 47 622 b 174 747 47 689 101 747 b 299 622 244 747 299 689 l 299 475 l 486 685 b 599 747 521 725 553 747 b 721 633 672 747 721 699 b 638 492 721 593 704 561 l 543 394 l 711 175 b 732 101 728 153 732 126 b 611 -8 732 43 682 -8 b 471 81 553 -8 518 11 l 299 332 l 299 117 b 174 -8 299 50 244 -8 "},"ќ":{"ha":715,"x_min":0,"x_max":0,"o":"m 269 819 b 168 931 204 819 168 867 b 229 1018 168 968 179 999 l 431 1108 b 501 1125 453 1119 479 1125 b 604 1017 564 1125 604 1074 b 550 929 604 981 590 947 l 365 846 b 269 819 304 819 289 819 m 174 -8 b 47 117 101 -8 47 50 l 47 622 b 174 747 47 689 101 747 b 299 622 244 747 299 689 l 299 475 l 486 685 b 599 747 521 725 553 747 b 721 633 672 747 721 699 b 638 492 721 593 704 561 l 543 394 l 711 175 b 732 101 728 153 732 126 b 611 -8 732 43 682 -8 b 471 81 553 -8 518 11 l 299 332 l 299 117 b 174 -8 299 50 244 -8 "},"л":{"ha":829,"x_min":0,"x_max":0,"o":"m 96 -8 b -10 103 25 -8 -10 39 b 47 193 -10 156 6 178 b 117 296 78 204 106 226 l 165 610 b 299 739 181 714 235 739 l 651 739 b 782 625 731 739 782 704 l 782 117 b 657 -8 782 50 728 -8 b 529 117 585 -8 529 50 l 529 507 l 397 507 l 356 238 b 96 -8 331 74 235 -8 "},"м":{"ha":1049,"x_min":0,"x_max":0,"o":"m 151 -8 b 25 114 71 -8 25 43 b 36 214 25 140 29 174 l 101 601 b 271 747 118 699 181 747 b 429 633 361 747 404 706 l 525 363 l 528 363 l 624 628 b 796 747 651 706 697 747 b 950 594 883 747 935 692 l 1015 182 b 1024 113 1019 160 1024 131 b 900 -8 1024 43 978 -8 b 776 113 842 -8 790 19 l 742 353 l 739 353 l 665 131 b 528 -10 625 8 590 -10 b 381 139 467 -10 435 -1 l 299 353 l 296 353 l 276 135 b 151 -8 267 22 203 -8 "},"н":{"ha":796,"x_min":0,"x_max":0,"o":"m 174 -8 b 47 117 101 -8 47 50 l 47 624 b 174 749 47 692 101 749 b 299 624 244 749 299 692 l 299 490 l 497 490 l 497 624 b 622 749 497 688 551 749 b 749 619 694 749 749 689 l 749 115 b 622 -8 749 54 694 -8 b 497 117 551 -8 497 54 l 497 283 l 299 283 l 299 117 b 174 -8 299 50 244 -8 "},"о":{"ha":796,"x_min":0,"x_max":0,"o":"m 397 -26 b 18 369 178 -26 18 149 b 397 765 18 600 179 765 b 778 369 608 765 778 606 b 397 -26 778 149 617 -26 m 397 219 b 526 369 474 219 526 282 b 396 519 526 457 475 519 b 267 369 319 519 267 457 b 397 219 267 281 321 219 "},"п":{"ha":800,"x_min":0,"x_max":0,"o":"m 174 -8 b 47 117 101 -8 47 50 l 47 628 b 175 739 47 703 99 739 l 622 739 b 753 624 700 739 753 703 l 753 117 b 626 -8 753 54 699 -8 b 500 117 556 -8 500 54 l 500 507 l 299 507 l 299 117 b 174 -8 299 50 244 -8 "},"р":{"ha":822,"x_min":0,"x_max":0,"o":"m 169 -311 b 43 -187 97 -311 43 -251 l 43 622 b 163 747 43 689 92 747 b 276 685 232 747 260 711 l 279 681 l 282 681 b 467 765 315 731 382 765 b 804 369 668 765 804 582 b 464 -26 804 142 646 -26 b 297 17 394 -26 344 -14 l 294 17 l 294 -187 b 169 -311 294 -251 240 -311 m 425 219 b 556 369 501 219 556 281 b 424 519 556 457 503 519 b 294 369 349 519 294 458 b 425 219 294 282 347 219 "},"с":{"ha":671,"x_min":0,"x_max":0,"o":"m 396 -26 b 18 371 183 -26 18 136 b 393 765 18 604 178 765 b 588 729 469 765 538 753 b 672 603 640 703 672 661 b 575 488 672 539 631 488 b 526 496 557 488 539 489 b 415 522 483 514 457 522 b 267 367 319 522 267 456 b 399 217 267 279 317 217 b 513 242 449 217 483 231 b 571 257 533 250 553 257 b 674 142 636 257 674 201 b 603 29 674 93 644 56 b 396 -26 544 -8 461 -26 "},"т":{"ha":676,"x_min":0,"x_max":0,"o":"m 342 -8 b 215 117 269 -8 215 54 l 215 507 l 124 507 b -6 622 50 507 -6 538 b 124 739 -6 708 51 739 l 554 739 b 682 622 624 739 682 708 b 554 507 682 538 625 507 l 467 507 l 467 117 b 342 -8 467 54 415 -8 "},"у":{"ha":731,"x_min":0,"x_max":0,"o":"m 124 -310 b 6 -200 38 -310 6 -264 b 93 -101 6 -153 21 -115 b 194 3 135 -93 165 -68 l 228 85 l 50 478 b -3 629 25 532 -3 592 b 122 747 -3 694 51 747 b 257 635 182 747 221 721 l 361 386 l 364 386 l 467 618 b 603 747 508 721 546 747 b 733 619 681 747 733 697 b 682 463 733 582 714 538 l 432 -74 b 124 -310 376 -196 299 -308 "},"ў":{"ha":731,"x_min":0,"x_max":0,"o":"m 383 801 b 108 1042 233 801 108 906 b 200 1144 108 1099 136 1144 b 290 1054 243 1144 268 1113 b 383 969 308 1003 329 969 b 476 1054 436 969 458 1003 b 567 1144 499 1114 524 1144 b 657 1042 629 1144 657 1099 b 383 801 657 906 532 801 m 124 -310 b 6 -200 38 -310 6 -264 b 93 -101 6 -153 21 -115 b 194 3 135 -93 165 -68 l 228 85 l 50 478 b -3 629 25 532 -3 592 b 122 747 -3 694 51 747 b 257 635 182 747 221 721 l 361 386 l 364 386 l 467 618 b 603 747 508 721 546 747 b 733 619 681 747 733 697 b 682 463 733 582 714 538 l 432 -74 b 124 -310 376 -196 299 -308 "},"ф":{"ha":1025,"x_min":0,"x_max":0,"o":"m 513 -311 b 386 -186 442 -311 386 -249 l 386 -26 b 18 369 160 -8 18 163 b 386 765 18 581 158 746 l 386 943 b 513 1068 386 1007 442 1068 b 638 943 583 1068 638 1007 l 638 765 b 1007 369 861 749 1007 576 b 638 -26 1007 161 868 -8 l 638 -186 b 513 -311 638 -249 583 -311 m 386 519 b 267 369 313 513 267 456 b 386 219 267 285 311 226 m 638 219 b 758 369 715 226 758 285 b 638 519 758 454 715 514 l 638 219 "},"х":{"ha":719,"x_min":0,"x_max":0,"o":"m 110 -8 b -14 119 44 -8 -14 42 b 38 225 -14 163 13 201 l 204 388 l 122 468 b 19 617 71 517 19 561 b 138 747 19 700 72 747 b 263 686 192 747 222 733 l 365 571 l 461 682 b 586 747 503 729 535 747 b 701 635 649 747 701 701 b 606 476 701 585 676 551 l 517 383 l 683 225 b 733 119 722 188 733 153 b 606 -8 733 42 678 -8 b 514 33 571 -8 536 10 l 360 200 l 253 83 b 110 -8 218 49 168 -8 "},"ч":{"ha":751,"x_min":0,"x_max":0,"o":"m 579 -8 b 453 117 508 -8 453 50 l 453 204 l 333 204 b 25 524 156 204 25 317 l 25 618 b 151 747 25 690 76 747 b 276 613 222 747 276 693 l 276 551 b 386 415 276 469 297 415 l 453 415 l 453 622 b 579 747 453 689 508 747 b 704 622 651 747 704 689 l 704 117 b 579 -8 704 50 651 -8 "},"ц":{"ha":894,"x_min":0,"x_max":0,"o":"m 776 -222 b 667 -103 707 -222 667 -174 l 667 0 l 178 0 b 47 113 100 0 47 39 l 47 622 b 174 747 47 689 101 747 b 299 622 244 747 299 689 l 299 232 l 500 232 l 500 622 b 626 747 500 686 556 747 b 753 622 699 747 753 686 l 753 232 l 761 232 b 886 119 850 232 886 186 l 886 -106 b 776 -222 886 -174 846 -222 "},"ш":{"ha":1226,"x_min":0,"x_max":0,"o":"m 178 0 b 47 111 100 0 47 39 l 47 622 b 174 747 47 689 101 747 b 299 622 244 747 299 689 l 299 232 l 488 232 l 488 622 b 614 747 488 689 542 747 b 739 622 683 747 739 689 l 739 232 l 928 232 l 928 622 b 1054 747 928 689 982 747 b 1179 622 1125 747 1179 689 l 1179 126 b 1042 0 1179 57 1126 0 l 178 0 "},"щ":{"ha":1321,"x_min":0,"x_max":0,"o":"m 1203 -222 b 1093 -103 1136 -222 1093 -174 l 1093 0 l 178 0 b 47 113 100 0 47 39 l 47 622 b 174 747 47 689 101 747 b 299 622 244 747 299 689 l 299 232 l 488 232 l 488 622 b 614 747 488 689 542 747 b 739 622 683 747 739 689 l 739 232 l 928 232 l 928 622 b 1054 747 928 689 982 747 b 1179 622 1125 747 1179 689 l 1179 232 l 1183 232 b 1313 125 1281 232 1313 188 l 1313 -104 b 1203 -222 1313 -174 1272 -222 "},"џ":{"ha":800,"x_min":0,"x_max":0,"o":"m 400 -222 b 290 -103 332 -222 290 -174 l 290 0 l 178 0 b 47 113 100 0 47 38 l 47 622 b 174 747 47 689 101 747 b 299 622 244 747 299 689 l 299 232 l 500 232 l 500 622 b 626 747 500 686 556 747 b 753 622 699 747 753 686 l 753 108 b 625 0 753 38 701 0 l 510 0 l 510 -103 b 400 -222 510 -174 469 -222 "},"ь":{"ha":769,"x_min":0,"x_max":0,"o":"m 172 0 b 47 128 107 0 47 56 l 47 622 b 174 747 47 689 101 747 b 299 622 244 747 299 689 l 299 508 l 490 508 b 758 271 647 508 758 411 b 408 0 758 93 629 0 l 172 0 m 450 207 b 507 261 483 207 507 233 b 451 311 507 292 481 311 l 299 311 l 299 207 "},"ъ":{"ha":938,"x_min":0,"x_max":0,"o":"m 340 0 b 215 128 275 0 215 56 l 215 507 l 124 507 b -6 622 50 507 -6 538 b 124 739 -6 708 51 739 l 322 739 b 467 625 418 739 467 701 l 467 508 l 653 508 b 926 271 819 508 926 410 b 576 0 926 93 796 0 l 340 0 m 615 207 b 675 261 649 207 675 229 b 617 311 675 289 651 311 l 467 311 l 467 207 "},"ы":{"ha":1103,"x_min":0,"x_max":0,"o":"m 185 0 b 47 128 97 0 47 60 l 47 622 b 174 747 47 689 101 747 b 299 622 244 747 299 689 l 299 508 l 478 508 b 744 271 633 508 744 413 b 393 0 744 93 614 0 l 185 0 m 929 -8 b 804 117 857 -8 804 50 l 804 622 b 929 747 804 689 854 747 b 1056 622 1000 747 1056 689 l 1056 117 b 929 -8 1056 50 1000 -8 m 435 207 b 493 261 468 207 493 233 b 435 311 493 293 467 311 l 299 311 l 299 207 "},"љ":{"ha":1253,"x_min":0,"x_max":0,"o":"m 83 -8 b -10 101 33 -8 -10 38 b 51 194 -10 156 3 174 b 118 307 79 207 106 228 l 167 607 b 300 739 183 713 233 739 l 654 739 b 782 625 731 739 782 704 l 782 508 l 974 508 b 1242 271 1126 508 1242 413 b 892 0 1242 90 1110 0 l 656 0 b 529 128 590 0 529 56 l 529 507 l 397 507 l 357 242 b 83 -8 331 63 231 -8 m 931 207 b 989 261 965 207 989 229 b 933 311 989 289 965 311 l 782 311 l 782 207 "},"њ":{"ha":1219,"x_min":0,"x_max":0,"o":"m 174 -8 b 47 117 101 -8 47 50 l 47 624 b 174 749 47 692 101 749 b 299 619 244 749 299 692 l 299 508 l 497 508 l 497 624 b 622 749 497 688 551 749 b 749 622 694 749 749 689 l 749 508 l 940 508 b 1208 271 1097 508 1208 407 b 857 0 1208 90 1078 0 l 622 0 b 497 128 556 0 497 56 l 497 311 l 299 311 l 299 117 b 174 -8 299 50 244 -8 m 897 207 b 956 261 931 207 956 231 b 899 311 956 292 931 311 l 749 311 l 749 207 "},"ѕ":{"ha":608,"x_min":0,"x_max":0,"o":"m 306 -26 b 92 19 225 -26 147 -11 b 17 128 46 44 17 81 b 118 243 17 201 63 243 b 174 231 140 243 157 238 b 313 189 215 215 257 189 b 354 219 343 189 354 207 b 33 513 354 301 33 260 b 321 765 33 647 140 765 b 496 719 378 765 444 750 b 575 599 542 693 575 653 b 471 503 575 535 526 503 b 403 522 447 503 428 511 b 307 551 369 538 333 551 b 272 517 283 551 272 539 b 592 225 272 450 592 457 b 306 -26 592 60 463 -26 "},"є":{"ha":682,"x_min":0,"x_max":0,"o":"m 383 -26 b 18 371 171 -26 18 119 b 413 765 18 613 174 765 b 593 732 488 765 549 753 b 678 615 649 706 678 664 b 576 507 678 551 635 507 b 525 519 561 507 543 513 b 421 542 496 529 463 542 b 274 467 342 542 296 506 l 449 467 b 574 369 518 467 574 440 b 449 271 574 296 519 271 l 274 271 b 400 192 292 222 342 192 b 528 221 460 192 497 208 b 575 232 544 226 560 232 b 678 131 644 232 678 188 b 599 17 678 82 649 44 b 383 -26 546 -11 471 -26 "},"э":{"ha":690,"x_min":0,"x_max":0,"o":"m 278 -26 b 75 18 193 -26 122 -10 b 4 125 29 44 4 81 b 106 233 4 188 42 233 b 154 222 121 233 133 231 b 269 192 199 204 232 192 b 408 271 339 192 390 224 l 240 271 b 117 369 171 271 117 296 b 240 467 117 440 171 467 l 408 467 b 276 542 389 514 336 542 b 161 514 232 542 193 525 b 118 506 144 510 131 506 b 17 615 61 506 17 553 b 94 724 17 657 44 696 b 303 765 143 749 214 765 b 672 392 538 765 672 610 b 278 -26 672 129 508 -26 "},"і":{"ha":339,"x_min":0,"x_max":0,"o":"m 174 796 b 25 943 96 796 25 860 b 174 1090 25 1025 92 1090 b 319 943 258 1090 319 1026 b 174 796 319 861 257 796 m 174 -8 b 47 117 101 -8 47 50 l 47 622 b 174 747 47 689 101 747 b 299 622 249 747 299 689 l 299 117 b 174 -8 299 50 244 -8 "},"ї":{"ha":338,"x_min":0,"x_max":0,"o":"m -4 863 b -124 982 -71 863 -124 917 b -4 1103 -124 1049 -71 1103 b 117 982 63 1103 117 1049 b -4 863 117 917 63 863 m 342 863 b 221 982 275 863 221 917 b 342 1103 221 1049 275 1103 b 461 982 407 1103 461 1049 b 342 863 461 917 407 863 m 169 -8 b 43 117 97 -8 43 50 l 43 622 b 169 747 43 689 97 747 b 294 622 244 747 294 689 l 294 117 b 169 -8 294 50 240 -8 "},"ј":{"ha":339,"x_min":0,"x_max":0,"o":"m 171 796 b 22 943 93 796 22 861 b 171 1090 22 1025 89 1090 b 317 943 256 1090 317 1026 b 171 796 317 861 253 796 m 171 -311 b 44 -187 99 -311 44 -251 l 44 624 b 171 747 44 689 99 747 b 296 624 246 747 296 689 l 296 -187 b 171 -311 296 -251 242 -311 "},"ћ":{"ha":804,"x_min":0,"x_max":0,"o":"m 178 -8 b 51 117 106 -8 51 54 l 51 738 l 47 738 b -57 842 -11 738 -57 772 b 47 949 -57 911 -11 949 l 51 949 l 51 956 b 178 1068 51 1014 108 1068 b 303 954 247 1068 303 1014 l 303 949 l 501 949 b 608 842 564 949 608 911 b 501 738 608 772 564 738 l 303 738 l 303 632 l 306 632 b 486 689 361 665 408 689 b 757 442 663 689 757 579 l 757 117 b 631 -8 757 50 703 -8 b 504 125 560 -8 504 49 l 504 369 b 404 478 504 431 467 478 b 303 369 340 478 303 426 l 303 117 b 178 -8 303 54 250 -8 "},"ю":{"ha":1103,"x_min":0,"x_max":0,"o":"m 174 -8 b 47 117 101 -8 47 50 l 47 624 b 174 749 47 692 101 749 b 299 624 244 749 299 692 l 299 490 l 371 490 b 722 765 419 661 556 765 b 1085 369 935 765 1085 594 b 722 -26 1085 143 928 -26 b 364 283 539 -26 400 104 l 299 283 l 299 117 b 174 -8 299 50 244 -8 m 722 219 b 836 369 790 219 836 282 b 722 519 836 457 789 519 b 607 369 654 519 607 457 b 722 219 607 283 654 219 "},"я":{"ha":768,"x_min":0,"x_max":0,"o":"m 131 -8 b 14 100 60 -8 14 43 b 68 201 14 142 31 169 l 206 322 l 194 324 b 21 519 89 338 21 418 b 374 751 21 683 149 751 l 589 751 b 721 624 669 751 721 692 l 721 119 b 596 -8 721 54 665 -8 b 469 119 525 -8 469 56 l 469 268 l 267 60 b 131 -8 206 -3 167 -8 m 469 463 l 469 546 l 332 546 b 272 504 300 546 272 532 b 333 463 272 478 299 463 "},"ђ":{"ha":804,"x_min":0,"x_max":0,"o":"m 439 -321 b 328 -208 367 -321 328 -281 b 401 -117 328 -157 354 -129 b 504 31 469 -94 504 -46 l 504 369 b 404 478 504 432 465 478 b 303 369 342 478 303 426 l 303 117 b 178 -8 303 54 250 -8 b 51 117 106 -8 51 54 l 51 738 l 46 738 b -57 842 -12 738 -57 772 b 46 949 -57 911 -12 949 l 51 949 l 51 957 b 178 1068 51 1014 108 1068 b 303 954 247 1068 303 1015 l 303 949 l 501 949 b 608 842 564 949 608 911 b 501 738 608 772 564 738 l 303 738 l 303 632 l 306 632 b 486 689 357 663 408 689 b 757 442 663 689 757 579 l 757 22 b 439 -321 757 -187 621 -321 "},"ғ":{"ha":558,"x_min":0,"x_max":0,"o":"m 181 -8 b 54 117 108 -8 54 50 l 54 229 l 0 229 b -64 299 -39 229 -64 258 b -3 371 -64 344 -36 371 l 54 371 l 54 625 b 185 739 54 703 107 739 l 435 739 b 564 622 507 739 564 708 b 435 507 564 538 507 507 l 306 507 l 306 371 l 397 371 b 461 299 432 371 461 344 b 397 229 461 258 432 229 l 306 229 l 306 117 b 181 -8 306 50 251 -8 "}}}
